SplineFontDB: 3.0
FontName: Jost-Bold
FullName: Jost* 700 Bold
FamilyName: Jost*
Weight: Bold
Copyright: Copyright (c) 2018, Owen Earl,,,
UComments: "2018-6-8: Created with FontForge (http://fontforge.org)"
Version: 003.400
ItalicAngle: 0
UnderlinePosition: -100
UnderlineWidth: 50
Ascent: 800
Descent: 200
InvalidEm: 0
LayerCount: 2
Layer: 0 0 "Back" 1
Layer: 1 0 "Fore" 0
XUID: [1021 69 1495626776 12280187]
FSType: 0
OS2Version: 0
OS2_WeightWidthSlopeOnly: 0
OS2_UseTypoMetrics: 0
CreationTime: 1528476916
ModificationTime: 1577663281
PfmFamily: 17
TTFWeight: 700
TTFWidth: 5
LineGap: 100
VLineGap: 0
OS2TypoAscent: 825
OS2TypoAOffset: 0
OS2TypoDescent: -225
OS2TypoDOffset: 0
OS2TypoLinegap: 100
OS2WinAscent: 900
OS2WinAOffset: 0
OS2WinDescent: 300
OS2WinDOffset: 0
HheadAscent: 1030
HheadAOffset: 0
HheadDescent: -350
HheadDOffset: 0
OS2CapHeight: 700
OS2XHeight: 460
OS2Vendor: 'PfEd'
Lookup: 1 0 0 "alt a" { "alt a"  } ['ss01' ('DFLT' <'dflt' > 'latn' <'dflt' > ) ]
Lookup: 1 0 0 "Tabular Numbers lookup" { "Tabular Numbers lookup"  } ['tnum' ('DFLT' <'dflt' > 'grek' <'dflt' > 'latn' <'dflt' > ) ]
Lookup: 258 0 0 "Lets get our kern on" { "kernin like nobodys business" [150,0,0] } ['kern' ('DFLT' <'dflt' > 'latn' <'dflt' > ) ]
MarkAttachClasses: 1
DEI: 91125
KernClass2: 16 14 "kernin like nobodys business"
 43 slash seven V W Wcircumflex uni040E uni0423
 175 quotedbl quotesingle asterisk grave dieresis ordfeminine macron degree acute ordmasculine circumflex breve dotaccent ring tilde quoteleft quoteright quotedblleft quotedblright
 25 nine question F P uni0420
 131 A L backslash Agrave Aacute Acircumflex Atilde Adieresis Aring Amacron Abreve Aogonek Lacute uni013B Lslash uni0410 uni0414 uni041C
 58 three eight B C germandbls uni0411 uni0412 uni0417 uni0421
 29 K X Z uni0416 uni041A uni0425
 157 at D G O Ograve Oacute Ocircumflex Otilde Odieresis Oslash Dcaron Dcroat Gcircumflex Gbreve Gdotaccent uni0122 Omacron Obreve uni041E uni0424 uni042D uni042E

StartChar: H
Encoding: 72 72 0
Width: 786
VWidth: 0
Flags: HMW
LayerCount: 2
Fore
SplineSet
121 293 m 1
 121 445 l 1
 651 445 l 1
 651 293 l 1
 121 293 l 1
544 700 m 1
 713 700 l 1
 713 0 l 1
 544 0 l 1
 544 700 l 1
74 700 m 1
 243 700 l 1
 243 0 l 1
 74 0 l 1
 74 700 l 1
EndSplineSet
EndChar

StartChar: O
Encoding: 79 79 1
Width: 821
VWidth: 0
Flags: HMW
LayerCount: 2
Fore
SplineSet
213 350 m 0
 213 226 292 139 411 139 c 0
 530 139 608 226 608 350 c 0
 608 474 533 561 411 561 c 0
 292 561 213 474 213 350 c 0
34 350 m 0
 34 566 198 716 411 716 c 0
 627 716 788 566 788 350 c 0
 788 134 631 -22 411 -22 c 0
 191 -22 34 134 34 350 c 0
EndSplineSet
EndChar

StartChar: I
Encoding: 73 73 2
Width: 320
VWidth: 0
Flags: HMW
LayerCount: 2
Fore
SplineSet
74 700 m 1
 246 700 l 1
 246 0 l 1
 74 0 l 1
 74 700 l 1
EndSplineSet
EndChar

StartChar: C
Encoding: 67 67 3
Width: 700
VWidth: 0
Flags: HMW
LayerCount: 2
Fore
SplineSet
219 350 m 0
 219 221 315 145 428 145 c 0
 527 145 591 188 637 238 c 1
 637 54 l 1
 581 11 520 -16 418 -16 c 0
 193 -16 34 132 34 350 c 0
 34 568 193 716 418 716 c 0
 520 716 581 689 637 646 c 1
 637 462 l 1
 591 512 527 555 428 555 c 0
 315 555 219 479 219 350 c 0
EndSplineSet
EndChar

StartChar: E
Encoding: 69 69 4
Width: 603
VWidth: 0
Flags: HMW
LayerCount: 2
Fore
SplineSet
186 0 m 1
 186 139 l 1
 539 139 l 1
 539 0 l 1
 186 0 l 1
186 561 m 1
 186 700 l 1
 539 700 l 1
 539 561 l 1
 186 561 l 1
186 299 m 1
 186 436 l 1
 519 436 l 1
 519 299 l 1
 186 299 l 1
74 700 m 1
 237 700 l 1
 237 0 l 1
 74 0 l 1
 74 700 l 1
EndSplineSet
EndChar

StartChar: F
Encoding: 70 70 6
Width: 553
VWidth: 0
Flags: HMW
LayerCount: 2
Fore
SplineSet
186 554 m 1
 186 700 l 1
 499 700 l 1
 499 554 l 1
 186 554 l 1
186 281 m 1
 186 417 l 1
 489 417 l 1
 489 281 l 1
 186 281 l 1
74 700 m 1
 237 700 l 1
 237 0 l 1
 74 0 l 1
 74 700 l 1
EndSplineSet
EndChar

StartChar: G
Encoding: 71 71 7
Width: 814
VWidth: 0
Flags: HMW
LayerCount: 2
Fore
SplineSet
421 253 m 1
 421 383 l 1
 775 383 l 1
 787 161 656 -22 417 -22 c 0
 194 -22 34 128 34 350 c 0
 34 572 200 716 423 716 c 0
 571 716 673 647 739 550 c 1
 588 472 l 1
 556 527 505 569 423 569 c 0
 306 569 211 488 211 350 c 0
 211 212 300 125 423 125 c 0
 526 125 584 180 607 253 c 1
 421 253 l 1
EndSplineSet
EndChar

StartChar: T
Encoding: 84 84 8
Width: 561
VWidth: 0
Flags: HMW
LayerCount: 2
Fore
SplineSet
4 548 m 1
 4 700 l 1
 558 700 l 1
 558 548 l 1
 366 548 l 1
 366 0 l 1
 196 0 l 1
 196 548 l 1
 4 548 l 1
EndSplineSet
EndChar

StartChar: L
Encoding: 76 76 9
Width: 528
VWidth: 0
Flags: HMW
LayerCount: 2
Fore
SplineSet
74 700 m 1
 243 700 l 1
 243 146 l 1
 524 146 l 1
 524 0 l 1
 74 0 l 1
 74 700 l 1
EndSplineSet
EndChar

StartChar: D
Encoding: 68 68 10
Width: 733
VWidth: 0
Flags: HMW
LayerCount: 2
Fore
SplineSet
74 700 m 1
 249 700 l 1
 249 0 l 1
 74 0 l 1
 74 700 l 1
324 0 m 2
 186 0 l 1
 186 151 l 1
 318 151 l 2
 426 151 524 200 524 350 c 0
 524 500 426 549 318 549 c 2
 186 549 l 1
 186 700 l 1
 324 700 l 2
 553 700 699 565 699 350 c 0
 699 135 553 0 324 0 c 2
EndSplineSet
EndChar

StartChar: Q
Encoding: 81 81 11
Width: 863
VWidth: 0
Flags: HMW
LayerCount: 2
Fore
SplineSet
213 350 m 0
 213 214 307 127 426 127 c 0
 545 127 627 207 627 331 c 0
 627 455 548 561 414 561 c 0
 295 561 213 474 213 350 c 0
34 350 m 0
 34 566 201 716 414 716 c 0
 630 716 788 566 788 350 c 0
 788 134 634 -22 414 -22 c 0
 194 -22 34 134 34 350 c 0
356 300 m 1
 532 300 l 1
 870 -12 l 1
 688 -12 l 1
 356 300 l 1
EndSplineSet
EndChar

StartChar: A
Encoding: 65 65 12
Width: 735
VWidth: 0
Flags: HMW
LayerCount: 2
Fore
SplineSet
184 135 m 1
 196 264 l 1
 543 264 l 1
 554 135 l 1
 184 135 l 1
368 442 m 1
 270 217 l 1
 277 179 l 1
 191 0 l 1
 -1 0 l 1
 368 744 l 1
 736 0 l 1
 544 0 l 1
 460 172 l 1
 466 216 l 1
 368 442 l 1
EndSplineSet
EndChar

StartChar: R
Encoding: 82 82 13
Width: 647
VWidth: 0
Flags: HMW
LayerCount: 2
Fore
SplineSet
249 317 m 1
 425 317 l 1
 644 0 l 1
 445 0 l 1
 249 317 l 1
74 700 m 1
 243 700 l 1
 243 0 l 1
 74 0 l 1
 74 700 l 1
180 556 m 1
 180 700 l 1
 329 700 l 2
 508 700 602 606 602 471 c 0
 602 336 508 242 329 242 c 2
 180 242 l 1
 180 374 l 1
 317 374 l 2
 385 374 426 407 426 465 c 0
 426 523 385 556 317 556 c 2
 180 556 l 1
EndSplineSet
EndChar

StartChar: V
Encoding: 86 86 14
Width: 735
VWidth: 0
Flags: HMW
LayerCount: 2
Fore
SplineSet
368 283 m 1
 538 700 l 1
 736 700 l 1
 368 -44 l 1
 -1 700 l 1
 197 700 l 1
 368 283 l 1
EndSplineSet
EndChar

StartChar: M
Encoding: 77 77 15
Width: 891
VWidth: 0
Flags: HMW
LayerCount: 2
Fore
SplineSet
255 356 m 1
 212 0 l 1
 34 0 l 1
 147 735 l 1
 446 309 l 1
 744 735 l 1
 858 0 l 1
 679 0 l 1
 637 356 l 1
 446 65 l 1
 255 356 l 1
EndSplineSet
EndChar

StartChar: W
Encoding: 87 87 16
Width: 1065
VWidth: 0
Flags: HMW
LayerCount: 2
Fore
SplineSet
724 301 m 1
 860 700 l 1
 1061 700 l 1
 758 -41 l 1
 532 380 l 1
 307 -41 l 1
 4 700 l 1
 205 700 l 1
 342 301 l 1
 532 735 l 1
 724 301 l 1
EndSplineSet
EndChar

StartChar: N
Encoding: 78 78 17
Width: 793
VWidth: 0
Flags: HMW
LayerCount: 2
Fore
SplineSet
557 700 m 1
 720 700 l 1
 720 -35 l 1
 237 393 l 1
 237 0 l 1
 74 0 l 1
 74 735 l 1
 557 307 l 1
 557 700 l 1
EndSplineSet
EndChar

StartChar: a
Encoding: 97 97 18
Width: 539
VWidth: 0
Flags: HMW
LayerCount: 2
Fore
SplineSet
177 144 m 0
 177 108 205 88 242 88 c 0
 293 88 340 121 340 186 c 1
 356 126 l 1
 356 37 276 -10 188 -10 c 0
 99 -10 24 41 24 136 c 0
 24 224 88 279 204 279 c 0
 286 279 349 252 373 226 c 1
 373 159 l 1
 341 183 297 196 251 196 c 0
 198 196 177 177 177 144 c 0
109 319 m 1
 58 420 l 1
 111 445 185 473 272 473 c 0
 393 473 485 419 485 324 c 2
 485 0 l 1
 340 0 l 1
 340 290 l 2
 340 336 310 358 253 358 c 0
 192 358 127 331 109 319 c 1
EndSplineSet
Substitution2: "alt a" a.alt
EndChar

StartChar: X
Encoding: 88 88 19
Width: 686
VWidth: 0
Flags: HMW
LayerCount: 2
Fore
SplineSet
458 700 m 1
 668 700 l 1
 448 359 l 1
 682 0 l 1
 473 0 l 1
 345 232 l 1
 213 0 l 1
 4 0 l 1
 244 359 l 1
 29 700 l 1
 238 700 l 1
 347 497 l 1
 458 700 l 1
EndSplineSet
EndChar

StartChar: K
Encoding: 75 75 20
Width: 700
VWidth: 0
Flags: HMW
LayerCount: 2
Fore
SplineSet
74 700 m 1
 249 700 l 1
 249 0 l 1
 74 0 l 1
 74 700 l 1
487 700 m 1
 686 700 l 1
 402 372 l 1
 701 0 l 1
 496 0 l 1
 200 367 l 1
 487 700 l 1
EndSplineSet
EndChar

StartChar: Y
Encoding: 89 89 21
Width: 660
VWidth: 0
Flags: HMW
LayerCount: 2
Fore
SplineSet
467 700 m 1
 662 700 l 1
 417 285 l 1
 417 0 l 1
 244 0 l 1
 244 284 l 1
 -1 700 l 1
 194 700 l 1
 330 437 l 1
 467 700 l 1
EndSplineSet
EndChar

StartChar: B
Encoding: 66 66 22
Width: 664
VWidth: 0
Flags: HMW
LayerCount: 2
Fore
SplineSet
200 348 m 1
 200 422 l 1
 313 422 l 2
 371 422 405 450 405 497 c 0
 405 544 371 569 313 569 c 2
 243 569 l 1
 243 131 l 1
 329 131 l 2
 394 131 445 154 445 221 c 0
 445 282 394 304 329 304 c 2
 200 304 l 1
 200 396 l 1
 348 396 l 2
 483 396 620 339 620 197 c 0
 620 58 514 0 348 0 c 2
 74 0 l 1
 74 700 l 1
 332 700 l 2
 476 700 580 641 580 522 c 0
 580 410 476 348 332 348 c 2
 200 348 l 1
EndSplineSet
EndChar

StartChar: Z
Encoding: 90 90 23
Width: 620
VWidth: 0
Flags: HMW
LayerCount: 2
Fore
SplineSet
57 548 m 1
 57 700 l 1
 606 700 l 1
 276 146 l 1
 571 146 l 1
 571 0 l 1
 9 0 l 1
 335 548 l 1
 57 548 l 1
EndSplineSet
EndChar

StartChar: o
Encoding: 111 111 24
Width: 589
VWidth: 0
Flags: HMW
LayerCount: 2
Fore
SplineSet
32 230 m 0
 32 375 144 471 295 471 c 0
 446 471 558 375 558 230 c 0
 558 85 446 -10 295 -10 c 0
 144 -10 32 85 32 230 c 0
188 230 m 0
 188 159 236 115 295 115 c 0
 354 115 402 159 402 230 c 0
 402 301 354 346 295 346 c 0
 236 346 188 301 188 230 c 0
EndSplineSet
EndChar

StartChar: J
Encoding: 74 74 25
Width: 330
VWidth: 0
Flags: HMW
LayerCount: 2
Fore
SplineSet
-72 -63 m 1
 -52 -81 -21 -96 9 -96 c 0
 39 -96 74 -76 74 -16 c 2
 74 700 l 1
 257 700 l 1
 257 -54 l 2
 257 -188 151 -239 26 -239 c 0
 -52 -239 -124 -208 -164 -182 c 1
 -72 -63 l 1
EndSplineSet
EndChar

StartChar: t
Encoding: 116 116 26
Width: 318
VWidth: 0
Flags: HMW
LayerCount: 2
Fore
SplineSet
5 460 m 1
 313 460 l 1
 313 335 l 1
 5 335 l 1
 5 460 l 1
86 620 m 1
 232 620 l 1
 232 0 l 1
 86 0 l 1
 86 620 l 1
EndSplineSet
EndChar

StartChar: d
Encoding: 100 100 27
Width: 616
VWidth: 0
Flags: HMW
LayerCount: 2
Fore
SplineSet
408 780 m 1
 559 780 l 1
 559 0 l 1
 408 0 l 1
 408 780 l 1
32 230 m 0
 32 385 138 470 250 470 c 0
 365 470 450 379 450 230 c 0
 450 81 365 -10 250 -10 c 0
 138 -10 32 75 32 230 c 0
191 230 m 0
 191 158 241 112 301 112 c 0
 352 112 408 155 408 230 c 0
 408 305 352 348 301 348 c 0
 241 348 191 302 191 230 c 0
EndSplineSet
EndChar

StartChar: l
Encoding: 108 108 28
Width: 270
VWidth: 0
Flags: HMW
LayerCount: 2
Fore
SplineSet
59 780 m 1
 211 780 l 1
 211 0 l 1
 59 0 l 1
 59 780 l 1
EndSplineSet
EndChar

StartChar: i
Encoding: 105 105 29
Width: 276
VWidth: 0
Flags: HMW
LayerCount: 2
Fore
SplineSet
50 632 m 0
 50 680 89 714 138 714 c 0
 187 714 226 680 226 632 c 0
 226 584 187 551 138 551 c 0
 89 551 50 584 50 632 c 0
64 460 m 1
 211 460 l 1
 211 0 l 1
 64 0 l 1
 64 460 l 1
EndSplineSet
EndChar

StartChar: r
Encoding: 114 114 30
Width: 411
VWidth: 0
Flags: HMW
LayerCount: 2
Fore
SplineSet
208 460 m 1
 208 0 l 1
 59 0 l 1
 59 460 l 1
 208 460 l 1
341 303 m 1
 325 319 308 329 282 329 c 0
 238 329 208 293 208 227 c 1
 172 280 l 1
 172 389 246 471 324 471 c 0
 357 471 391 456 407 433 c 1
 341 303 l 1
EndSplineSet
EndChar

StartChar: c
Encoding: 99 99 31
Width: 493
VWidth: 0
Flags: HMW
LayerCount: 2
Fore
SplineSet
186 230 m 0
 186 156 241 111 309 111 c 0
 364 111 417 135 444 179 c 1
 444 32 l 1
 412 6 365 -10 296 -10 c 0
 142 -10 30 85 30 230 c 0
 30 375 142 470 296 470 c 0
 365 470 412 453 444 430 c 1
 444 282 l 1
 417 326 358 349 309 349 c 0
 241 349 186 298 186 230 c 0
EndSplineSet
EndChar

StartChar: b
Encoding: 98 98 32
Width: 616
VWidth: 0
Flags: HMW
LayerCount: 2
Fore
SplineSet
209 780 m 1
 209 0 l 1
 58 0 l 1
 58 780 l 1
 209 780 l 1
585 230 m 0
 585 75 478 -10 366 -10 c 0
 251 -10 167 81 167 230 c 0
 167 379 251 470 366 470 c 0
 478 470 585 385 585 230 c 0
426 230 m 0
 426 302 376 348 316 348 c 0
 265 348 209 305 209 230 c 0
 209 155 265 112 316 112 c 0
 376 112 426 158 426 230 c 0
EndSplineSet
EndChar

StartChar: p
Encoding: 112 112 33
Width: 616
VWidth: 0
Flags: HMW
LayerCount: 2
Fore
SplineSet
209 -220 m 1
 58 -220 l 1
 58 460 l 1
 209 460 l 1
 209 -220 l 1
585 230 m 0
 585 68 478 -16 366 -16 c 0
 245 -16 173 81 173 230 c 0
 173 379 245 476 366 476 c 0
 478 476 585 392 585 230 c 0
426 230 m 0
 426 302 376 342 316 342 c 0
 265 342 209 305 209 230 c 0
 209 155 265 118 316 118 c 0
 376 118 426 158 426 230 c 0
EndSplineSet
EndChar

StartChar: q
Encoding: 113 113 34
Width: 616
VWidth: 0
Flags: HMW
LayerCount: 2
Fore
SplineSet
408 -220 m 1
 408 460 l 1
 559 460 l 1
 559 -220 l 1
 408 -220 l 1
32 230 m 0
 32 392 138 476 250 476 c 0
 371 476 444 379 444 230 c 0
 444 81 371 -16 250 -16 c 0
 138 -16 32 68 32 230 c 0
191 230 m 0
 191 158 241 118 301 118 c 0
 352 118 408 155 408 230 c 0
 408 305 352 342 301 342 c 0
 241 342 191 302 191 230 c 0
EndSplineSet
EndChar

StartChar: h
Encoding: 104 104 35
Width: 568
VWidth: 0
Flags: HMW
LayerCount: 2
Fore
SplineSet
211 780 m 1
 211 0 l 1
 59 0 l 1
 59 780 l 1
 211 780 l 1
358 280 m 2
 358 334 340 364 291 364 c 0
 243 364 211 334 211 280 c 1
 185 280 l 1
 185 389 237 477 351 477 c 0
 465 477 509 415 509 302 c 2
 509 0 l 1
 358 0 l 1
 358 280 l 2
EndSplineSet
EndChar

StartChar: n
Encoding: 110 110 36
Width: 575
VWidth: 0
Flags: HMW
LayerCount: 2
Fore
SplineSet
358 280 m 2
 358 334 340 364 291 364 c 0
 243 364 211 334 211 280 c 2
 211 0 l 1
 59 0 l 1
 59 460 l 1
 211 460 l 1
 211 391 l 1
 238 441 283 471 351 471 c 0
 465 471 516 406 516 296 c 2
 516 0 l 1
 358 0 l 1
 358 280 l 2
EndSplineSet
EndChar

StartChar: m
Encoding: 109 109 37
Width: 820
VWidth: 0
Flags: HMW
LayerCount: 2
Fore
SplineSet
761 296 m 2
 761 0 l 1
 609 0 l 1
 609 280 l 2
 609 335 592 364 551 364 c 0
 511 364 483 336 483 280 c 2
 483 0 l 1
 331 0 l 1
 331 280 l 2
 331 335 314 364 273 364 c 0
 233 364 205 336 205 280 c 2
 205 0 l 1
 59 0 l 1
 59 460 l 1
 205 460 l 1
 205 392 l 1
 231 442 275 471 338 471 c 0
 410 471 452 445 470 395 c 1
 503 443 553 471 616 471 c 0
 723 471 761 407 761 296 c 2
EndSplineSet
EndChar

StartChar: k
Encoding: 107 107 38
Width: 577
VWidth: 0
Flags: HMW
LayerCount: 2
Fore
SplineSet
58 780 m 1
 203 780 l 1
 203 0 l 1
 58 0 l 1
 58 780 l 1
371 460 m 1
 551 460 l 1
 354 270 l 1
 571 0 l 1
 393 0 l 1
 174 270 l 1
 371 460 l 1
EndSplineSet
EndChar

StartChar: u
Encoding: 117 117 39
Width: 575
VWidth: 0
Flags: HMW
LayerCount: 2
Fore
SplineSet
218 180 m 2
 218 127 235 96 284 96 c 0
 332 96 364 126 364 180 c 2
 364 460 l 1
 516 460 l 1
 516 0 l 1
 364 0 l 1
 364 69 l 1
 337 19 292 -11 224 -11 c 0
 110 -11 59 55 59 164 c 2
 59 460 l 1
 218 460 l 1
 218 180 l 2
EndSplineSet
EndChar

StartChar: e
Encoding: 101 101 40
Width: 573
VWidth: 0
Flags: HMW
LayerCount: 2
Fore
SplineSet
294 -10 m 0
 132 -10 32 83 32 230 c 0
 32 379 130 470 291 470 c 0
 450 470 539 385 539 237 c 0
 539 222 539 208 538 198 c 1
 117 198 l 1
 117 282 l 1
 401 282 l 1
 365 236 l 1
 371 246 377 261 377 271 c 0
 377 331 342 369 288 369 c 0
 220 369 185 324 185 232 c 0
 183 148 222 99 291 99 c 0
 344 99 382 119 405 159 c 1
 541 126 l 1
 492 35 411 -10 294 -10 c 0
EndSplineSet
EndChar

StartChar: g
Encoding: 103 103 41
Width: 610
VWidth: 0
Flags: HMW
LayerCount: 2
Fore
SplineSet
42 -33 m 1
 189 -33 l 1
 194 -90 234 -118 293 -118 c 0
 357 -118 408 -75 408 10 c 2
 408 460 l 1
 553 460 l 1
 553 10 l 2
 553 -168 440 -239 300 -239 c 0
 128 -239 53 -155 42 -33 c 1
32 236 m 0
 32 391 138 470 250 470 c 0
 365 470 450 385 450 236 c 0
 450 87 365 2 250 2 c 0
 138 2 32 81 32 236 c 0
191 236 m 0
 191 164 241 124 301 124 c 0
 352 124 408 161 408 236 c 0
 408 311 352 348 301 348 c 0
 241 348 191 308 191 236 c 0
EndSplineSet
EndChar

StartChar: f
Encoding: 102 102 42
Width: 344
VWidth: 0
Flags: HMW
LayerCount: 2
Fore
SplineSet
18 460 m 1
 332 460 l 1
 332 335 l 1
 18 335 l 1
 18 460 l 1
316 635 m 1
 303 653 287 660 269 660 c 0
 239 660 221 639 221 592 c 2
 221 0 l 1
 76 0 l 1
 76 630 l 2
 76 733 134 796 249 796 c 0
 317 796 356 766 377 746 c 1
 316 635 l 1
EndSplineSet
EndChar

StartChar: s
Encoding: 115 115 43
Width: 456
VWidth: 0
Flags: HMW
LayerCount: 2
Fore
SplineSet
84 167 m 1
 154 108 204 92 236 92 c 0
 266 92 281 106 281 128 c 0
 281 157 257 171 183 195 c 0
 118 217 53 252 53 340 c 0
 53 424 126 470 225 470 c 0
 304 470 369 440 422 402 c 1
 368 303 l 1
 330 339 275 366 234 366 c 0
 207 366 193 354 193 337 c 0
 193 306 231 298 299 272 c 0
 370 245 432 215 432 130 c 0
 432 32 369 -19 259 -19 c 0
 159 -19 83 18 21 67 c 1
 84 167 l 1
EndSplineSet
EndChar

StartChar: y
Encoding: 121 121 44
Width: 521
VWidth: 0
Flags: HMW
LayerCount: 2
Fore
SplineSet
531 460 m 1
 231 -220 l 1
 78 -220 l 1
 190 37 l 1
 -9 460 l 1
 158 460 l 1
 306 91 l 1
 228 92 l 1
 375 460 l 1
 531 460 l 1
EndSplineSet
EndChar

StartChar: w
Encoding: 119 119 45
Width: 761
VWidth: 0
Flags: HMW
LayerCount: 2
Fore
SplineSet
-8 460 m 1
 151 460 l 1
 247 225 l 1
 379 495 l 1
 514 224 l 1
 610 460 l 1
 769 460 l 1
 531 -29 l 1
 379 244 l 1
 230 -29 l 1
 -8 460 l 1
EndSplineSet
EndChar

StartChar: v
Encoding: 118 118 46
Width: 527
VWidth: 0
Flags: HMW
LayerCount: 2
Fore
SplineSet
-3 460 m 1
 159 460 l 1
 264 205 l 1
 369 460 l 1
 531 460 l 1
 264 -54 l 1
 -3 460 l 1
EndSplineSet
EndChar

StartChar: x
Encoding: 120 120 47
Width: 532
VWidth: 0
Flags: HMW
LayerCount: 2
Fore
SplineSet
354 460 m 1
 522 460 l 1
 346 236 l 1
 532 0 l 1
 364 0 l 1
 269 133 l 1
 174 0 l 1
 0 0 l 1
 189 236 l 1
 10 460 l 1
 184 460 l 1
 269 339 l 1
 354 460 l 1
EndSplineSet
EndChar

StartChar: z
Encoding: 122 122 48
Width: 522
VWidth: 0
Flags: HMW
LayerCount: 2
Fore
SplineSet
256 322 m 1
 58 322 l 1
 58 460 l 1
 508 460 l 1
 278 138 l 1
 475 138 l 1
 475 0 l 1
 15 0 l 1
 256 322 l 1
EndSplineSet
EndChar

StartChar: j
Encoding: 106 106 49
Width: 271
VWidth: 0
Flags: HMW
LayerCount: 2
Fore
SplineSet
45 632 m 0
 45 680 84 714 133 714 c 0
 182 714 221 680 221 632 c 0
 221 584 182 551 133 551 c 0
 84 551 45 584 45 632 c 0
-33 -77 m 1
 -21 -92 -7 -102 13 -102 c 0
 45 -102 61 -80 61 -34 c 2
 61 460 l 1
 207 460 l 1
 207 -72 l 2
 207 -172 148 -239 33 -239 c 0
 -34 -239 -71 -211 -94 -188 c 1
 -33 -77 l 1
EndSplineSet
EndChar

StartChar: P
Encoding: 80 80 50
Width: 623
VWidth: 0
Flags: HMW
LayerCount: 2
Fore
SplineSet
74 700 m 1
 243 700 l 1
 243 0 l 1
 74 0 l 1
 74 700 l 1
180 561 m 1
 180 700 l 1
 317 700 l 2
 496 700 589 613 589 471 c 0
 589 329 496 242 317 242 c 2
 180 242 l 1
 180 382 l 1
 317 382 l 2
 385 382 426 413 426 471 c 0
 426 529 385 561 317 561 c 2
 180 561 l 1
EndSplineSet
EndChar

StartChar: U
Encoding: 85 85 51
Width: 701
VWidth: 0
Flags: HMW
LayerCount: 2
Fore
SplineSet
69 700 m 1
 238 700 l 1
 238 242 l 2
 238 171 275 123 350 123 c 0
 425 123 463 171 463 242 c 2
 463 700 l 1
 632 700 l 1
 632 230 l 2
 632 54 508 -29 350 -29 c 0
 192 -29 69 54 69 230 c 2
 69 700 l 1
EndSplineSet
EndChar

StartChar: S
Encoding: 83 83 52
Width: 625
VWidth: 0
Flags: HMW
LayerCount: 2
Fore
SplineSet
151 246 m 1
 194 170 252 122 323 122 c 0
 373 122 408 148 408 191 c 0
 408 243 369 262 268 300 c 0
 199 326 81 380 81 516 c 0
 81 641 189 716 325 716 c 0
 466 716 547 636 584 564 c 1
 455 492 l 1
 424 542 381 575 327 575 c 0
 279 575 254 552 254 521 c 0
 254 473 311 448 408 414 c 0
 506 380 587 314 587 199 c 0
 587 56 460 -22 328 -22 c 0
 191 -22 79 59 33 161 c 1
 151 246 l 1
EndSplineSet
EndChar

StartChar: at
Encoding: 64 64 53
Width: 770
VWidth: 0
Flags: HMW
LayerCount: 2
Fore
SplineSet
316 320 m 0
 316 276 332 252 361 252 c 0
 395 252 435 296 435 364 c 0
 435 411 416 432 388 432 c 0
 349 432 316 381 316 320 c 0
196 313 m 0
 196 452 280 530 359 530 c 0
 431 530 482 455 482 370 c 0
 482 231 410 154 328 154 c 0
 248 154 196 214 196 313 c 0
19 320 m 0
 19 545 185 722 415 722 c 0
 629 722 751 555 751 390 c 0
 751 212 653 144 559 144 c 0
 492 144 437 198 447 264 c 1
 434 295 l 1
 458 520 l 1
 574 520 l 1
 548 308 l 2
 547 301 546 289 546 281 c 0
 546 257 552 241 572 241 c 0
 596 241 640 270 640 390 c 0
 640 517 564 623 415 623 c 0
 239 623 130 497 130 320 c 0
 130 170 214 74 378 74 c 0
 448 74 504 88 562 118 c 1
 599 28 l 1
 539 -6 467 -26 365 -26 c 0
 139 -26 19 121 19 320 c 0
EndSplineSet
EndChar

StartChar: period
Encoding: 46 46 54
Width: 322
VWidth: 0
Flags: HMW
LayerCount: 2
Fore
SplineSet
67 68 m 0
 67 119 106 161 161 161 c 0
 216 161 256 119 256 68 c 0
 256 17 216 -24 161 -24 c 0
 106 -24 67 17 67 68 c 0
EndSplineSet
EndChar

StartChar: comma
Encoding: 44 44 55
Width: 323
VWidth: 0
Flags: HMW
LayerCount: 2
Fore
SplineSet
120 110 m 1
 272 78 l 1
 146 -172 l 1
 32 -149 l 1
 120 110 l 1
EndSplineSet
EndChar

StartChar: colon
Encoding: 58 58 56
Width: 322
VWidth: 0
Flags: HMW
LayerCount: 2
Fore
SplineSet
67 68 m 0
 67 119 106 161 161 161 c 0
 216 161 256 119 256 68 c 0
 256 17 216 -24 161 -24 c 0
 106 -24 67 17 67 68 c 0
67 442 m 0
 67 493 106 534 161 534 c 0
 216 534 256 493 256 442 c 0
 256 391 216 349 161 349 c 0
 106 349 67 391 67 442 c 0
EndSplineSet
EndChar

StartChar: semicolon
Encoding: 59 59 57
Width: 393
VWidth: 0
Flags: HMW
LayerCount: 2
Fore
SplineSet
119 436 m 0
 119 487 158 528 213 528 c 0
 268 528 308 487 308 436 c 0
 308 385 268 343 213 343 c 0
 158 343 119 385 119 436 c 0
142 110 m 1
 294 78 l 1
 168 -172 l 1
 54 -149 l 1
 142 110 l 1
EndSplineSet
EndChar

StartChar: quotedbl
Encoding: 34 34 58
Width: 518
VWidth: 0
Flags: HMW
LayerCount: 2
Fore
SplineSet
105 700 m 1
 266 700 l 1
 160 381 l 1
 61 381 l 1
 105 700 l 1
316 700 m 1
 477 700 l 1
 371 381 l 1
 272 381 l 1
 316 700 l 1
EndSplineSet
EndChar

StartChar: exclam
Encoding: 33 33 59
Width: 343
VWidth: 0
Flags: HMW
LayerCount: 2
Fore
SplineSet
78 700 m 1
 266 700 l 1
 233 231 l 1
 111 231 l 1
 78 700 l 1
78 62 m 0
 78 113 117 148 172 148 c 0
 227 148 266 113 266 62 c 0
 266 11 227 -24 172 -24 c 0
 117 -24 78 11 78 62 c 0
EndSplineSet
EndChar

StartChar: quotesingle
Encoding: 39 39 60
Width: 306
VWidth: 0
Flags: HMW
LayerCount: 2
Fore
SplineSet
105 700 m 1
 266 700 l 1
 160 381 l 1
 61 381 l 1
 105 700 l 1
EndSplineSet
EndChar

StartChar: numbersign
Encoding: 35 35 61
Width: 667
VWidth: 0
Flags: HMW
LayerCount: 2
Fore
SplineSet
75 412 m 1
 75 533 l 1
 632 533 l 1
 632 412 l 1
 478 412 l 0
 448 418 l 0
 244 418 l 0
 218 412 l 0
 75 412 l 1
35 172 m 1
 35 293 l 1
 176 293 l 0
 208 287 l 0
 438 287 l 0
 468 293 l 0
 592 293 l 1
 592 172 l 1
 35 172 l 1
474 700 m 1
 605 700 l 1
 435 0 l 1
 304 0 l 1
 358 224 l 0
 371 250 l 0
 421 456 l 0
 422 487 l 0
 474 700 l 1
232 700 m 1
 364 700 l 1
 312 488 l 0
 298 456 l 0
 248 252 l 0
 249 226 l 0
 194 0 l 1
 62 0 l 1
 232 700 l 1
EndSplineSet
EndChar

StartChar: hyphen
Encoding: 45 45 62
Width: 222
VWidth: 0
Flags: HMW
LayerCount: 2
Fore
SplineSet
5 172 m 1
 5 303 l 1
 218 303 l 1
 218 172 l 1
 5 172 l 1
EndSplineSet
EndChar

StartChar: dollar
Encoding: 36 36 63
Width: 621
VWidth: 0
Flags: HMW
LayerCount: 2
Fore
SplineSet
262 818 m 1
 386 818 l 1
 380 637 l 1
 268 637 l 1
 262 818 l 1
268 62 m 1
 379 62 l 1
 386 -112 l 1
 262 -112 l 1
 268 62 l 1
449 489 m 1
 419 547 378 585 326 585 c 0
 271 585 248 558 248 522 c 0
 248 463 323 445 408 414 c 0
 503 380 586 317 586 196 c 0
 586 64 482 -10 318 -10 c 0
 190 -10 77 71 33 167 c 1
 153 251 l 1
 201 167 248 125 322 125 c 0
 381 125 408 149 408 194 c 0
 408 250 345 270 263 302 c 0
 194 328 74 385 74 521 c 0
 74 623 176 710 321 710 c 0
 465 710 534 637 576 562 c 1
 449 489 l 1
EndSplineSet
EndChar

StartChar: bar
Encoding: 124 124 64
Width: 352
VWidth: 0
Flags: HMW
LayerCount: 2
Fore
SplineSet
100 785 m 1
 253 785 l 1
 253 -215 l 1
 100 -215 l 1
 100 785 l 1
EndSplineSet
EndChar

StartChar: zero
Encoding: 48 48 65
Width: 662
VWidth: 0
Flags: HMW
LayerCount: 2
Fore
SplineSet
203 350 m 0
 203 218 254 132 331 132 c 0
 408 132 459 218 459 350 c 0
 459 482 408 568 331 568 c 0
 254 568 203 482 203 350 c 0
40 350 m 0
 40 578 158 713 331 713 c 0
 510 713 622 578 622 350 c 0
 622 122 510 -13 331 -13 c 0
 158 -13 40 122 40 350 c 0
EndSplineSet
Substitution2: "Tabular Numbers lookup" uniFF10
EndChar

StartChar: one
Encoding: 49 49 66
Width: 509
VWidth: 0
Flags: HMW
LayerCount: 2
Fore
SplineSet
68 498 m 1
 68 645 l 1
 404 713 l 1
 404 0 l 1
 241 0 l 1
 241 540 l 1
 68 498 l 1
EndSplineSet
Substitution2: "Tabular Numbers lookup" uniFF11
EndChar

StartChar: two
Encoding: 50 50 67
Width: 656
VWidth: 0
Flags: HMW
LayerCount: 2
Fore
SplineSet
20 0 m 1
 332 323 l 2
 388 383 422 425 422 480 c 0
 422 525 390 568 326 568 c 0
 261 568 220 516 220 441 c 1
 54 441 l 1
 54 590 150 714 332 714 c 0
 505 714 597 598 597 492 c 0
 597 417 557 353 496 301 c 2
 334 155 l 1
 614 155 l 1
 614 0 l 1
 20 0 l 1
EndSplineSet
Substitution2: "Tabular Numbers lookup" uniFF12
EndChar

StartChar: four
Encoding: 52 52 68
Width: 698
VWidth: 0
Flags: HMW
LayerCount: 2
Fore
SplineSet
14 124 m 1
 420 700 l 1
 546 700 l 1
 546 0 l 1
 370 0 l 1
 370 176 l 1
 389 187 l 1
 389 455 l 1
 238 246 l 1
 496 246 l 1
 513 268 l 1
 656 268 l 1
 656 124 l 1
 14 124 l 1
EndSplineSet
Substitution2: "Tabular Numbers lookup" uniFF14
EndChar

StartChar: slash
Encoding: 47 47 69
Width: 608
VWidth: 0
Flags: HMW
LayerCount: 2
Fore
SplineSet
448 700 m 1
 594 700 l 1
 167 -150 l 1
 15 -150 l 1
 448 700 l 1
EndSplineSet
EndChar

StartChar: backslash
Encoding: 92 92 70
Width: 546
VWidth: 0
Flags: HMW
LayerCount: 2
Fore
SplineSet
15 700 m 1
 162 700 l 1
 531 0 l 1
 384 0 l 1
 15 700 l 1
EndSplineSet
EndChar

StartChar: eight
Encoding: 56 56 71
Width: 627
VWidth: 0
Flags: HMW
LayerCount: 2
Fore
SplineSet
77 531 m 0
 77 649 185 716 314 716 c 0
 443 716 550 649 550 531 c 0
 550 403 429 342 314 342 c 0
 199 342 77 403 77 531 c 0
236 515 m 0
 236 468 270 435 314 435 c 0
 358 435 391 468 391 515 c 0
 391 562 360 594 314 594 c 0
 268 594 236 562 236 515 c 0
52 190 m 0
 52 338 199 396 314 396 c 0
 429 396 575 338 575 190 c 0
 575 62 452 -16 314 -16 c 0
 176 -16 52 62 52 190 c 0
220 216 m 0
 220 155 263 121 314 121 c 0
 365 121 407 155 407 216 c 0
 407 267 365 307 314 307 c 0
 263 307 220 267 220 216 c 0
EndSplineSet
Substitution2: "Tabular Numbers lookup" uniFF18
EndChar

StartChar: nine
Encoding: 57 57 72
Width: 669
VWidth: 0
Flags: HMW
LayerCount: 2
Fore
SplineSet
452 454 m 0
 452 525 402 572 335 572 c 0
 268 572 217 525 217 454 c 0
 217 383 268 335 335 335 c 0
 402 335 452 383 452 454 c 0
337 3 m 1
 122 3 l 1
 349 256 l 1
 383 271 l 1
 345 235 316 227 266 227 c 0
 161 227 50 312 50 454 c 0
 50 626 178 716 335 716 c 0
 492 716 620 626 620 454 c 0
 620 378 584 315 538 259 c 2
 337 3 l 1
EndSplineSet
Substitution2: "Tabular Numbers lookup" uniFF19
EndChar

StartChar: three
Encoding: 51 51 73
Width: 621
VWidth: 0
Flags: HMW
LayerCount: 2
Fore
SplineSet
275 339 m 1
 275 415 l 1
 353 415 404 458 404 508 c 0
 404 549 378 578 325 578 c 0
 273 578 234 543 234 495 c 1
 78 495 l 1
 78 620 176 713 325 713 c 0
 483 713 572 627 572 519 c 0
 572 398 441 339 275 339 c 1
317 -16 m 0
 148 -16 48 97 48 222 c 1
 215 222 l 1
 215 153 266 120 324 120 c 0
 382 120 424 148 424 208 c 0
 424 266 377 306 275 306 c 1
 275 392 l 1
 460 392 592 333 592 191 c 0
 592 69 489 -16 317 -16 c 0
EndSplineSet
Substitution2: "Tabular Numbers lookup" uniFF13
EndChar

StartChar: five
Encoding: 53 53 74
Width: 645
VWidth: 0
Flags: HMW
LayerCount: 2
Fore
SplineSet
605 224 m 0
 605 59 458 -13 323 -13 c 0
 194 -13 107 29 42 78 c 1
 108 217 l 1
 164 169 233 142 285 142 c 0
 369 142 420 174 420 242 c 0
 420 310 353 340 285 340 c 0
 231 340 159 332 88 296 c 1
 186 700 l 1
 591 700 l 1
 591 553 l 1
 310 553 l 1
 270 429 l 1
 307 447 348 453 392 453 c 0
 503 453 605 369 605 224 c 0
EndSplineSet
Substitution2: "Tabular Numbers lookup" uniFF15
EndChar

StartChar: six
Encoding: 54 54 75
Width: 669
VWidth: 0
Flags: HMW
LayerCount: 2
Fore
SplineSet
217 246 m 0
 217 175 268 128 335 128 c 0
 402 128 452 175 452 246 c 0
 452 317 402 365 335 365 c 0
 268 365 217 317 217 246 c 0
333 697 m 1
 548 697 l 1
 321 444 l 1
 286 429 l 1
 324 465 353 473 403 473 c 0
 508 473 620 388 620 246 c 0
 620 74 492 -16 335 -16 c 0
 178 -16 50 74 50 246 c 0
 50 322 86 385 132 441 c 2
 333 697 l 1
EndSplineSet
Substitution2: "Tabular Numbers lookup" uniFF16
EndChar

StartChar: seven
Encoding: 55 55 76
Width: 603
VWidth: 0
Flags: HMW
LayerCount: 2
Fore
SplineSet
30 542 m 1
 30 700 l 1
 601 700 l 1
 263 0 l 1
 80 0 l 1
 353 542 l 1
 30 542 l 1
EndSplineSet
Substitution2: "Tabular Numbers lookup" uniFF17
EndChar

StartChar: plus
Encoding: 43 43 77
Width: 674
VWidth: 0
Flags: HMW
LayerCount: 2
Fore
SplineSet
65 196 m 1
 65 342 l 1
 609 342 l 1
 609 196 l 1
 65 196 l 1
259 541 m 1
 416 541 l 1
 416 -2 l 1
 259 -2 l 1
 259 541 l 1
EndSplineSet
EndChar

StartChar: equal
Encoding: 61 61 78
Width: 626
VWidth: 0
Flags: HMW
LayerCount: 2
Fore
SplineSet
56 84 m 1
 56 215 l 1
 571 215 l 1
 571 84 l 1
 56 84 l 1
56 290 m 1
 56 421 l 1
 571 421 l 1
 571 290 l 1
 56 290 l 1
EndSplineSet
EndChar

StartChar: percent
Encoding: 37 37 79
Width: 919
VWidth: 0
Flags: HMW
LayerCount: 2
Fore
SplineSet
22 534 m 0
 22 636 104 719 212 719 c 0
 320 719 401 636 401 534 c 0
 401 432 320 349 212 349 c 0
 104 349 22 432 22 534 c 0
147 534 m 0
 147 498 174 468 212 468 c 0
 250 468 276 498 276 534 c 0
 276 570 250 601 212 601 c 0
 174 601 147 570 147 534 c 0
519 166 m 0
 519 268 600 351 708 351 c 0
 816 351 897 268 897 166 c 0
 897 64 816 -19 708 -19 c 0
 600 -19 519 64 519 166 c 0
644 166 m 0
 644 130 670 100 708 100 c 0
 746 100 772 130 772 166 c 0
 772 202 746 232 708 232 c 0
 670 232 644 202 644 166 c 0
650 700 m 1
 807 700 l 1
 269 0 l 1
 113 0 l 1
 650 700 l 1
EndSplineSet
EndChar

StartChar: ampersand
Encoding: 38 38 80
Width: 752
VWidth: 0
Flags: HMW
LayerCount: 2
Fore
SplineSet
223 372 m 2
 176 423 126 473 126 544 c 0
 126 632 208 717 342 717 c 0
 473 717 544 632 544 548 c 0
 544 456 484 418 372 344 c 0
 301 298 199 282 199 201 c 0
 199 153 236 115 304 115 c 0
 418 115 528 217 608 341 c 1
 709 263 l 1
 622 135 482 -13 284 -13 c 0
 150 -13 40 62 40 187 c 0
 40 347 222 387 292 420 c 0
 367 456 406 497 406 534 c 0
 406 566 381 596 340 596 c 0
 294 596 273 566 273 534 c 0
 273 494 312 458 366 400 c 2
 736 0 l 1
 562 0 l 1
 223 372 l 2
EndSplineSet
EndChar

StartChar: question
Encoding: 63 63 81
Width: 627
VWidth: 0
Flags: HMW
LayerCount: 2
Fore
SplineSet
420 500 m 0
 420 558 379 591 308 591 c 0
 247 591 187 560 150 504 c 1
 48 589 l 1
 119 671 199 719 318 719 c 0
 449 719 573 638 573 500 c 0
 573 378 466 303 359 285 c 1
 354 201 l 1
 232 201 l 1
 212 379 l 1
 244 379 l 2
 364 379 420 449 420 500 c 0
199 59 m 0
 199 103 239 142 294 142 c 0
 349 142 388 103 388 59 c 0
 388 15 349 -24 294 -24 c 0
 239 -24 199 15 199 59 c 0
EndSplineSet
EndChar

StartChar: parenleft
Encoding: 40 40 82
Width: 341
VWidth: 0
Flags: HMW
LayerCount: 2
Fore
SplineSet
189 780 m 1
 327 780 l 1
 257 630 218 460 218 290 c 0
 218 120 257 -50 327 -200 c 1
 189 -200 l 1
 109 -50 68 120 68 290 c 0
 68 460 109 630 189 780 c 1
EndSplineSet
EndChar

StartChar: parenright
Encoding: 41 41 83
Width: 341
VWidth: 0
Flags: HMW
LayerCount: 2
Fore
SplineSet
152 -200 m 1
 14 -200 l 1
 84 -50 124 120 124 290 c 0
 124 460 84 630 14 780 c 1
 152 780 l 1
 232 630 273 460 273 290 c 0
 273 120 232 -50 152 -200 c 1
EndSplineSet
EndChar

StartChar: asterisk
Encoding: 42 42 84
Width: 592
VWidth: 0
Flags: HMW
LayerCount: 2
Fore
SplineSet
498 603 m 1
 541 471 l 1
 308 428 l 1
 284 500 l 1
 498 603 l 1
491 315 m 1
 378 233 l 1
 266 442 l 1
 326 486 l 1
 491 315 l 1
214 233 m 1
 101 315 l 1
 266 486 l 1
 326 442 l 1
 214 233 l 1
51 471 m 1
 94 603 l 1
 308 500 l 1
 284 428 l 1
 51 471 l 1
227 700 m 1
 365 700 l 1
 334 464 l 1
 258 464 l 1
 227 700 l 1
EndSplineSet
EndChar

StartChar: less
Encoding: 60 60 85
Width: 640
VWidth: 0
Flags: HMW
LayerCount: 2
Fore
SplineSet
281 268 m 1
 575 148 l 1
 575 -1 l 1
 65 213 l 1
 65 314 l 1
 575 528 l 1
 575 379 l 1
 281 268 l 1
EndSplineSet
EndChar

StartChar: greater
Encoding: 62 62 86
Width: 640
VWidth: 0
Flags: HMW
LayerCount: 2
Fore
SplineSet
359 260 m 1
 65 379 l 1
 65 528 l 1
 575 314 l 1
 575 213 l 1
 65 -1 l 1
 65 148 l 1
 359 260 l 1
EndSplineSet
EndChar

StartChar: bracketleft
Encoding: 91 91 87
Width: 362
VWidth: 0
Flags: HMW
LayerCount: 2
Fore
SplineSet
242 649 m 1
 242 -89 l 1
 342 -89 l 1
 342 -220 l 1
 91 -220 l 1
 91 780 l 1
 342 780 l 1
 342 649 l 1
 242 649 l 1
EndSplineSet
EndChar

StartChar: bracketright
Encoding: 93 93 88
Width: 362
VWidth: 0
Flags: HMW
LayerCount: 2
Fore
SplineSet
121 -89 m 1
 121 649 l 1
 20 649 l 1
 20 780 l 1
 272 780 l 1
 272 -220 l 1
 20 -220 l 1
 20 -89 l 1
 121 -89 l 1
EndSplineSet
EndChar

StartChar: asciicircum
Encoding: 94 94 89
Width: 510
VWidth: 0
Flags: HMW
LayerCount: 2
Fore
SplineSet
255 580 m 1
 176 448 l 1
 40 448 l 1
 210 710 l 1
 300 710 l 1
 470 448 l 1
 334 448 l 1
 255 580 l 1
EndSplineSet
EndChar

StartChar: underscore
Encoding: 95 95 90
Width: 531
VWidth: 0
Flags: HMW
LayerCount: 2
Fore
SplineSet
0 -154 m 1
 0 -57 l 1
 531 -57 l 1
 531 -154 l 1
 0 -154 l 1
EndSplineSet
EndChar

StartChar: grave
Encoding: 96 96 91
Width: 375
VWidth: 0
Flags: HMW
LayerCount: 2
Fore
SplineSet
53 654 m 1
 169 706 l 1
 319 546 l 1
 233 504 l 1
 53 654 l 1
EndSplineSet
EndChar

StartChar: braceleft
Encoding: 123 123 92
Width: 398
VWidth: 0
Flags: HMW
LayerCount: 2
Fore
SplineSet
266 610 m 2
 266 490 l 2
 266 401 261 280 121 280 c 1
 121 300 l 1
 261 300 266 179 266 90 c 2
 266 -30 l 2
 266 -56 284 -80 314 -80 c 2
 348 -80 l 1
 348 -200 l 1
 257 -200 l 2
 175 -200 98 -159 98 -60 c 2
 98 125 l 2
 98 201 80 225 38 235 c 1
 38 345 l 1
 80 355 98 379 98 455 c 2
 98 640 l 2
 98 739 175 780 257 780 c 2
 348 780 l 1
 348 660 l 1
 314 660 l 2
 284 660 266 636 266 610 c 2
EndSplineSet
EndChar

StartChar: braceright
Encoding: 125 125 93
Width: 398
VWidth: 0
Flags: HMW
LayerCount: 2
Fore
SplineSet
136 -30 m 2
 136 90 l 2
 136 179 141 300 281 300 c 1
 281 280 l 1
 141 280 136 401 136 490 c 2
 136 610 l 2
 136 636 118 660 88 660 c 2
 53 660 l 1
 53 780 l 1
 145 780 l 2
 227 780 304 739 304 640 c 2
 304 455 l 2
 304 379 322 355 364 345 c 1
 364 235 l 1
 322 225 304 201 304 125 c 2
 304 -60 l 2
 304 -159 227 -200 145 -200 c 2
 53 -200 l 1
 53 -80 l 1
 88 -80 l 2
 118 -80 136 -56 136 -30 c 2
EndSplineSet
EndChar

StartChar: asciitilde
Encoding: 126 126 94
Width: 575
VWidth: 0
Flags: HMW
LayerCount: 2
Fore
SplineSet
156 164 m 1
 37 168 l 1
 35 175 34 183 34 192 c 0
 34 226 41 258 65 288 c 0
 92 322 127 346 194 346 c 0
 239 346 271 329 319 297 c 0
 350 276 372 263 390 263 c 0
 412 263 423 280 423 302 c 0
 423 313 420 326 416 336 c 1
 537 330 l 1
 539 322 541 312 541 302 c 0
 541 270 535 235 512 206 c 0
 485 173 455 153 400 153 c 0
 360 153 325 171 276 203 c 0
 245 224 218 237 193 237 c 0
 161 237 150 214 150 192 c 0
 150 179 153 172 156 164 c 1
EndSplineSet
EndChar

StartChar: exclamdown
Encoding: 161 161 95
Width: 343
VWidth: 0
Flags: HMW
LayerCount: 2
Fore
SplineSet
266 -229 m 1
 78 -229 l 1
 111 239 l 1
 233 239 l 1
 266 -229 l 1
266 409 m 0
 266 358 227 322 172 322 c 0
 117 322 78 358 78 409 c 0
 78 460 117 495 172 495 c 0
 227 495 266 460 266 409 c 0
EndSplineSet
EndChar

StartChar: cent
Encoding: 162 162 96
Width: 580
VWidth: 0
Flags: HMW
LayerCount: 2
Fore
SplineSet
236 38 m 1
 347 38 l 1
 356 -112 l 1
 227 -112 l 1
 236 38 l 1
205 230 m 0
 205 153 263 111 328 111 c 0
 390 111 436 141 463 180 c 1
 463 30 l 1
 431 4 379 -10 316 -10 c 0
 162 -10 50 85 50 230 c 0
 50 375 162 470 316 470 c 0
 379 470 431 454 463 430 c 1
 463 280 l 1
 436 319 390 349 328 349 c 0
 263 349 205 301 205 230 c 0
227 578 m 1
 356 578 l 1
 347 428 l 1
 236 428 l 1
 227 578 l 1
EndSplineSet
EndChar

StartChar: sterling
Encoding: 163 163 97
Width: 611
VWidth: 0
Flags: HMW
LayerCount: 2
Fore
SplineSet
67 370 m 1
 446 370 l 1
 446 270 l 1
 67 270 l 1
 67 370 l 1
434 466 m 1
 430 520 408 576 334 576 c 0
 286 576 244 552 244 495 c 0
 244 410 336 382 336 270 c 0
 336 164 214 70 140 50 c 1
 192 139 l 1
 539 139 l 1
 539 0 l 1
 52 0 l 1
 150 102 189 186 189 286 c 0
 189 380 85 404 85 521 c 0
 85 640 195 710 327 710 c 0
 479 710 566 603 571 517 c 1
 434 466 l 1
EndSplineSet
EndChar

StartChar: currency
Encoding: 164 164 98
Width: 576
VWidth: 0
Flags: HMW
LayerCount: 2
Fore
SplineSet
23 503 m 1
 86 566 l 1
 185 465 l 1
 124 404 l 1
 23 503 l 1
86 34 m 1
 23 97 l 1
 124 196 l 1
 185 135 l 1
 86 34 l 1
454 404 m 1
 392 465 l 1
 492 566 l 1
 553 503 l 1
 454 404 l 1
392 135 m 1
 454 196 l 1
 553 97 l 1
 492 34 l 1
 392 135 l 1
51 300 m 0
 51 439 154 540 289 540 c 0
 424 540 527 439 527 300 c 0
 527 161 424 60 289 60 c 0
 154 60 51 161 51 300 c 0
188 300 m 0
 188 238 230 198 289 198 c 0
 348 198 390 238 390 300 c 0
 390 362 348 402 289 402 c 0
 230 402 188 362 188 300 c 0
EndSplineSet
EndChar

StartChar: yen
Encoding: 165 165 99
Width: 669
VWidth: 0
Flags: HMW
LayerCount: 2
Fore
SplineSet
45 265 m 1
 45 365 l 1
 621 365 l 1
 621 265 l 1
 45 265 l 1
45 115 m 1
 45 215 l 1
 621 215 l 1
 621 115 l 1
 45 115 l 1
471 700 m 1
 665 700 l 1
 422 287 l 1
 422 0 l 1
 248 0 l 1
 248 284 l 1
 2 700 l 1
 198 700 l 1
 334 437 l 1
 471 700 l 1
EndSplineSet
EndChar

StartChar: brokenbar
Encoding: 166 166 100
Width: 352
VWidth: 0
Flags: HMW
LayerCount: 2
Fore
SplineSet
100 695 m 1
 253 695 l 1
 253 430 l 1
 100 430 l 1
 100 695 l 1
253 270 m 1
 253 5 l 1
 100 5 l 1
 100 270 l 1
 253 270 l 1
EndSplineSet
EndChar

StartChar: section
Encoding: 167 167 101
Width: 577
VWidth: 0
Flags: HMW
LayerCount: 2
Fore
SplineSet
401 549 m 1
 373 579 326 598 295 598 c 0
 261 598 243 587 243 569 c 0
 243 543 290 534 344 519 c 0
 420 498 480 451 480 378 c 0
 480 275 376 229 268 229 c 1
 268 271 l 1
 306 277 343 303 343 344 c 0
 343 398 274 416 222 436 c 0
 164 458 99 495 99 578 c 0
 99 675 195 724 285 724 c 0
 365 724 444 689 472 648 c 1
 401 549 l 1
128 174 m 1
 178 124 240 102 278 102 c 0
 316 102 333 116 333 137 c 0
 333 168 290 179 235 194 c 0
 159 215 85 257 85 334 c 0
 85 429 190 480 304 480 c 1
 304 442 l 1
 263 428 227 410 227 369 c 0
 227 309 307 299 358 278 c 0
 423 251 485 210 485 130 c 0
 485 25 385 -22 286 -22 c 0
 176 -22 101 20 56 76 c 1
 128 174 l 1
EndSplineSet
EndChar

StartChar: dieresis
Encoding: 168 168 102
Width: 511
VWidth: 0
Flags: HMW
LayerCount: 2
Fore
SplineSet
289 632 m 0
 289 680 329 714 378 714 c 0
 427 714 466 680 466 632 c 0
 466 584 427 550 378 550 c 0
 329 550 289 584 289 632 c 0
46 632 m 0
 46 680 85 714 134 714 c 0
 183 714 222 680 222 632 c 0
 222 584 183 550 134 550 c 0
 85 550 46 584 46 632 c 0
EndSplineSet
EndChar

StartChar: copyright
Encoding: 169 169 103
Width: 800
VWidth: 0
Flags: HMW
LayerCount: 2
Fore
SplineSet
289 350 m 0
 289 273 345 227 415 227 c 0
 474 227 513 253 540 283 c 1
 540 172 l 1
 506 146 470 130 409 130 c 0
 274 130 178 219 178 350 c 0
 178 481 274 570 409 570 c 0
 470 570 506 554 540 528 c 1
 540 417 l 1
 513 447 474 473 415 473 c 0
 345 473 289 427 289 350 c 0
95 350 m 0
 95 172 227 40 400 40 c 0
 573 40 705 172 705 350 c 0
 705 528 573 660 400 660 c 0
 227 660 95 528 95 350 c 0
40 350 m 0
 40 559 196 710 400 710 c 0
 604 710 760 559 760 350 c 0
 760 141 604 -10 400 -10 c 0
 196 -10 40 141 40 350 c 0
EndSplineSet
EndChar

StartChar: registered
Encoding: 174 174 104
Width: 800
VWidth: 0
Flags: HMW
LayerCount: 2
Fore
SplineSet
377 328 m 1
 470 328 l 1
 589 150 l 1
 470 150 l 1
 377 328 l 1
253 570 m 1
 355 570 l 1
 355 150 l 1
 253 150 l 1
 253 570 l 1
317 484 m 1
 317 570 l 1
 407 570 l 2
 514 570 570 513 570 439 c 0
 570 358 514 302 407 302 c 2
 317 302 l 1
 317 380 l 1
 399 380 l 2
 440 380 465 398 465 433 c 0
 465 468 440 484 399 484 c 2
 317 484 l 1
95 350 m 0
 95 172 227 40 400 40 c 0
 573 40 705 172 705 350 c 0
 705 528 573 660 400 660 c 0
 227 660 95 528 95 350 c 0
40 350 m 0
 40 559 196 710 400 710 c 0
 604 710 760 559 760 350 c 0
 760 141 604 -10 400 -10 c 0
 196 -10 40 141 40 350 c 0
EndSplineSet
EndChar

StartChar: ordfeminine
Encoding: 170 170 105
Width: 270
VWidth: 0
Flags: HMW
LayerCount: 2
Fore
SplineSet
94 530 m 0
 94 514 106 505 127 505 c 0
 153 505 178 516 178 553 c 1
 186 525 l 1
 186 481 149 455 101 455 c 0
 53 455 18 482 18 528 c 0
 18 574 61 603 117 603 c 0
 152 603 184 589 194 579 c 1
 194 543 l 1
 177 556 160 562 134 562 c 0
 110 562 94 548 94 530 c 0
64 625 m 1
 38 679 l 1
 64 691 102 705 144 705 c 0
 206 705 250 679 250 631 c 2
 250 460 l 1
 178 460 l 1
 178 611 l 2
 178 631 163 645 138 645 c 0
 105 645 75 632 64 625 c 1
EndSplineSet
EndChar

StartChar: ordmasculine
Encoding: 186 186 106
Width: 278
VWidth: 0
Flags: HMW
LayerCount: 2
Fore
SplineSet
19 580 m 0
 19 652 74 700 150 700 c 0
 226 700 282 652 282 580 c 0
 282 508 226 460 150 460 c 0
 74 460 19 508 19 580 c 0
96 580 m 0
 96 544 121 523 150 523 c 0
 179 523 204 544 204 580 c 0
 204 616 179 638 150 638 c 0
 121 638 96 616 96 580 c 0
EndSplineSet
EndChar

StartChar: guillemotleft
Encoding: 171 171 107
Width: 541
VWidth: 0
Flags: HMW
LayerCount: 2
Fore
SplineSet
352 259 m 1
 502 65 l 1
 409 1 l 1
 231 255 l 1
 409 509 l 1
 502 445 l 1
 352 259 l 1
149 259 m 1
 299 65 l 1
 205 1 l 1
 28 255 l 1
 205 509 l 1
 299 445 l 1
 149 259 l 1
EndSplineSet
EndChar

StartChar: guillemotright
Encoding: 187 187 108
Width: 541
VWidth: 0
Flags: HMW
LayerCount: 2
Fore
SplineSet
189 251 m 1
 39 445 l 1
 132 509 l 1
 310 255 l 1
 132 1 l 1
 39 65 l 1
 189 251 l 1
393 251 m 1
 242 445 l 1
 336 509 l 1
 514 255 l 1
 336 1 l 1
 242 65 l 1
 393 251 l 1
EndSplineSet
EndChar

StartChar: uni00AD
Encoding: 173 173 109
Width: 210
VWidth: 0
Flags: HMW
LayerCount: 2
Fore
SplineSet
5 200 m 1
 5 275 l 1
 205 275 l 1
 205 200 l 1
 5 200 l 1
EndSplineSet
EndChar

StartChar: logicalnot
Encoding: 172 172 110
Width: 650
VWidth: 0
Flags: HMW
LayerCount: 2
Fore
SplineSet
65 272 m 1
 65 403 l 1
 586 403 l 1
 586 175 l 1
 479 175 l 1
 479 272 l 1
 65 272 l 1
EndSplineSet
EndChar

StartChar: macron
Encoding: 175 175 111
Width: 531
VWidth: 0
Flags: HMW
LayerCount: 2
Fore
SplineSet
80 572 m 1
 80 703 l 1
 452 703 l 1
 452 572 l 1
 80 572 l 1
EndSplineSet
EndChar

StartChar: degree
Encoding: 176 176 112
Width: 296
VWidth: 0
Flags: HMW
LayerCount: 2
Fore
SplineSet
17 597 m 0
 17 669 72 720 148 720 c 0
 224 720 280 669 280 597 c 0
 280 525 224 474 148 474 c 0
 72 474 17 525 17 597 c 0
91 597 m 0
 91 561 116 539 148 539 c 0
 180 539 205 561 205 597 c 0
 205 633 180 656 148 656 c 0
 116 656 91 633 91 597 c 0
EndSplineSet
EndChar

StartChar: plusminus
Encoding: 177 177 113
Width: 633
VWidth: 0
Flags: HMW
LayerCount: 2
Fore
SplineSet
65 6 m 1
 65 136 l 1
 569 136 l 1
 569 6 l 1
 65 6 l 1
65 332 m 1
 65 469 l 1
 569 469 l 1
 569 332 l 1
 65 332 l 1
240 620 m 1
 394 620 l 1
 394 181 l 1
 240 181 l 1
 240 620 l 1
EndSplineSet
EndChar

StartChar: uni00B2
Encoding: 178 178 114
Width: 408
VWidth: 0
Flags: HMW
LayerCount: 2
Fore
SplineSet
25 282 m 1
 212 476 l 2
 246 512 266 537 266 570 c 0
 266 597 248 624 210 624 c 0
 171 624 145 592 145 547 c 1
 45 547 l 1
 45 636 104 711 214 711 c 0
 318 711 371 640 371 575 c 0
 371 530 346 493 310 462 c 2
 213 375 l 1
 381 375 l 1
 381 282 l 1
 25 282 l 1
EndSplineSet
EndChar

StartChar: uni00B3
Encoding: 179 179 115
Width: 365
VWidth: 0
Flags: HMW
LayerCount: 2
Fore
SplineSet
154 483 m 1
 154 529 l 1
 200 529 232 555 232 586 c 0
 232 611 216 627 184 627 c 0
 152 627 130 607 130 577 c 1
 36 577 l 1
 36 651 94 708 184 708 c 0
 278 708 332 657 332 592 c 0
 332 520 254 483 154 483 c 1
180 270 m 0
 78 270 18 340 18 414 c 1
 118 414 l 1
 118 372 148 352 183 352 c 0
 218 352 244 367 244 404 c 0
 244 439 216 464 154 464 c 1
 154 515 l 1
 265 515 344 480 344 395 c 0
 344 322 283 270 180 270 c 0
EndSplineSet
EndChar

StartChar: acute
Encoding: 180 180 116
Width: 375
VWidth: 0
Flags: HMW
LayerCount: 2
Fore
SplineSet
319 654 m 1
 139 504 l 1
 53 546 l 1
 203 706 l 1
 319 654 l 1
EndSplineSet
EndChar

StartChar: mu
Encoding: 181 181 117
Width: 575
VWidth: 0
Flags: HMW
LayerCount: 2
Fore
SplineSet
218 460 m 1
 218 205 l 2
 218 151 235 121 284 121 c 0
 332 121 364 151 364 205 c 2
 364 460 l 1
 516 460 l 1
 516 0 l 1
 364 0 l 1
 364 53 l 1
 344 21 311 -4 271 -4 c 0
 249 -4 229 0 205 16 c 1
 205 -320 l 1
 59 -320 l 1
 59 460 l 1
 218 460 l 1
EndSplineSet
EndChar

StartChar: paragraph
Encoding: 182 182 118
Width: 671
VWidth: 0
Flags: HMW
LayerCount: 2
Fore
SplineSet
288 270 m 1
 163 270 60 346 60 485 c 0
 60 624 163 700 288 700 c 2
 612 700 l 1
 612 -220 l 1
 479 -220 l 1
 479 607 l 1
 420 607 l 1
 420 -220 l 1
 288 -220 l 1
 288 270 l 1
EndSplineSet
EndChar

StartChar: periodcentered
Encoding: 183 183 119
Width: 322
VWidth: 0
Flags: HMW
LayerCount: 2
Fore
SplineSet
67 268 m 0
 67 319 106 361 161 361 c 0
 216 361 256 319 256 268 c 0
 256 217 216 176 161 176 c 0
 106 176 67 217 67 268 c 0
EndSplineSet
EndChar

StartChar: uni00B9
Encoding: 185 185 120
Width: 482
VWidth: 0
Flags: HMW
LayerCount: 2
Fore
SplineSet
133 572 m 1
 133 661 l 1
 335 702 l 1
 335 274 l 1
 238 274 l 1
 238 598 l 1
 133 572 l 1
EndSplineSet
EndChar

StartChar: cedilla
Encoding: 184 184 121
Width: 393
VWidth: 0
Flags: HMW
LayerCount: 2
Fore
SplineSet
184 71 m 1
 294 68 l 1
 207 -54 l 1
 218 -51 231 -51 244 -51 c 0
 284 -51 336 -82 336 -148 c 0
 336 -220 267 -258 204 -258 c 0
 148 -258 107 -248 60 -218 c 1
 106 -150 l 1
 131 -168 164 -175 184 -175 c 0
 218 -175 239 -164 239 -140 c 0
 239 -114 209 -108 178 -108 c 0
 168 -108 131 -110 96 -124 c 1
 184 71 l 1
EndSplineSet
EndChar

StartChar: questiondown
Encoding: 191 191 122
Width: 627
VWidth: 0
Flags: HMW
LayerCount: 2
Fore
SplineSet
207 200 m 0
 207 142 248 109 319 109 c 0
 380 109 440 140 477 196 c 1
 580 111 l 1
 509 29 428 -19 309 -19 c 0
 178 -19 54 62 54 200 c 0
 54 322 161 397 268 415 c 1
 273 499 l 1
 395 499 l 1
 415 321 l 1
 383 321 l 2
 263 321 207 251 207 200 c 0
428 641 m 0
 428 597 388 558 333 558 c 0
 278 558 239 597 239 641 c 0
 239 685 278 724 333 724 c 0
 388 724 428 685 428 641 c 0
EndSplineSet
EndChar

StartChar: multiply
Encoding: 215 215 123
Width: 596
VWidth: 0
Flags: HMW
LayerCount: 2
Fore
SplineSet
140 3 m 1
 46 97 l 1
 209 255 l 1
 46 413 l 1
 140 507 l 1
 298 344 l 1
 456 507 l 1
 550 413 l 1
 387 255 l 1
 550 97 l 1
 456 3 l 1
 298 166 l 1
 140 3 l 1
EndSplineSet
EndChar

StartChar: Oslash
Encoding: 216 216 124
Width: 790
VWidth: 0
Flags: HMW
LayerCount: 2
Fore
SplineSet
213 350 m 0
 213 223 292 139 411 139 c 0
 530 139 608 223 608 350 c 0
 608 477 530 561 411 561 c 0
 292 561 213 477 213 350 c 0
34 350 m 0
 34 566 195 716 411 716 c 0
 627 716 788 566 788 350 c 0
 788 134 627 -22 411 -22 c 0
 195 -22 34 134 34 350 c 0
697 756 m 1
 769 704 l 1
 120 -56 l 1
 49 -4 l 1
 697 756 l 1
EndSplineSet
EndChar

StartChar: Thorn
Encoding: 222 222 125
Width: 612
VWidth: 0
Flags: HMW
LayerCount: 2
Fore
SplineSet
80 700 m 1
 228 700 l 1
 228 0 l 1
 80 0 l 1
 80 700 l 1
174 446 m 1
 174 579 l 1
 311 579 l 2
 490 579 583 495 583 353 c 0
 583 211 490 128 311 128 c 2
 174 128 l 1
 174 261 l 1
 311 261 l 2
 388 261 432 286 432 353 c 0
 432 420 388 446 311 446 c 2
 174 446 l 1
EndSplineSet
EndChar

StartChar: divide
Encoding: 247 247 126
Width: 639
VWidth: 0
Flags: HMW
LayerCount: 2
Fore
SplineSet
225 553 m 0
 225 604 264 646 319 646 c 0
 374 646 414 604 414 553 c 0
 414 502 374 461 319 461 c 0
 264 461 225 502 225 553 c 0
225 98 m 0
 225 149 264 191 319 191 c 0
 374 191 414 149 414 98 c 0
 414 47 374 6 319 6 c 0
 264 6 225 47 225 98 c 0
26 259 m 1
 26 396 l 1
 613 396 l 1
 613 259 l 1
 26 259 l 1
EndSplineSet
EndChar

StartChar: oslash
Encoding: 248 248 127
Width: 546
VWidth: 0
Flags: HMW
LayerCount: 2
Fore
SplineSet
32 230 m 0
 32 382 147 470 295 470 c 0
 443 470 558 382 558 230 c 0
 558 78 443 -10 295 -10 c 0
 147 -10 32 78 32 230 c 0
175 230 m 0
 175 153 230 109 295 109 c 0
 360 109 414 153 414 230 c 0
 414 301 360 351 295 351 c 0
 230 351 175 301 175 230 c 0
456 506 m 1
 513 474 l 1
 123 -50 l 1
 66 -18 l 1
 456 506 l 1
EndSplineSet
EndChar

StartChar: circumflex
Encoding: 710 710 128
Width: 480
VWidth: 0
Flags: HMW
LayerCount: 2
Fore
SplineSet
240 629 m 1
 149 544 l 1
 42 615 l 1
 240 755 l 1
 438 615 l 1
 331 544 l 1
 240 629 l 1
EndSplineSet
EndChar

StartChar: ogonek
Encoding: 731 731 129
Width: 260
VWidth: 0
Flags: HMW
LayerCount: 2
Fore
SplineSet
194 -111 m 1
 227 -180 l 1
 212 -200 182 -220 126 -220 c 0
 61 -220 10 -185 10 -120 c 0
 10 -55 78 -11 148 25 c 1
 189 0 l 1
 137 -28 108 -63 108 -94 c 0
 108 -119 120 -131 144 -131 c 0
 164 -131 180 -124 194 -111 c 1
EndSplineSet
EndChar

StartChar: tilde
Encoding: 732 732 130
Width: 530
VWidth: 0
Flags: HMW
LayerCount: 2
Fore
SplineSet
75 638 m 1
 85 687 131 732 195 732 c 0
 261 732 275 680 331 680 c 0
 356 680 376 701 396 733 c 1
 468 659 l 1
 452 622 395 573 333 573 c 0
 278 573 243 626 194 626 c 0
 156 626 147 591 147 576 c 1
 75 638 l 1
EndSplineSet
EndChar

StartChar: ring
Encoding: 730 730 131
Width: 328
VWidth: 0
Flags: HMW
LayerCount: 2
Fore
SplineSet
39 769 m 0
 39 838 93 885 163 885 c 0
 233 885 289 838 289 769 c 0
 289 700 233 654 163 654 c 0
 93 654 39 700 39 769 c 0
117 769 m 0
 117 739 138 722 163 722 c 0
 188 722 210 739 210 769 c 0
 210 799 188 817 163 817 c 0
 138 817 117 799 117 769 c 0
EndSplineSet
EndChar

StartChar: dotaccent
Encoding: 729 729 132
Width: 300
VWidth: 0
Flags: HMW
LayerCount: 2
Fore
SplineSet
62 813 m 0
 62 861 101 895 150 895 c 0
 199 895 238 861 238 813 c 0
 238 765 199 731 150 731 c 0
 101 731 62 765 62 813 c 0
EndSplineSet
EndChar

StartChar: uni2010
Encoding: 8208 8208 133
Width: 222
VWidth: 0
Flags: HMW
LayerCount: 2
Fore
SplineSet
5 172 m 1
 5 303 l 1
 218 303 l 1
 218 172 l 1
 5 172 l 1
EndSplineSet
EndChar

StartChar: endash
Encoding: 8211 8211 134
Width: 783
VWidth: 0
Flags: HMW
LayerCount: 2
Fore
SplineSet
70 172 m 1
 70 303 l 1
 708 303 l 1
 708 172 l 1
 70 172 l 1
EndSplineSet
EndChar

StartChar: figuredash
Encoding: 8210 8210 135
Width: 627
VWidth: 0
Flags: HMW
LayerCount: 2
Fore
SplineSet
70 172 m 1
 70 303 l 1
 548 303 l 1
 548 172 l 1
 70 172 l 1
EndSplineSet
EndChar

StartChar: emdash
Encoding: 8212 8212 136
Width: 940
VWidth: 0
Flags: HMW
LayerCount: 2
Fore
SplineSet
70 172 m 1
 70 303 l 1
 867 303 l 1
 867 172 l 1
 70 172 l 1
EndSplineSet
EndChar

StartChar: minus
Encoding: 8722 8722 137
Width: 593
VWidth: 0
Flags: HMW
LayerCount: 2
Fore
SplineSet
58 172 m 1
 58 303 l 1
 536 303 l 1
 536 172 l 1
 58 172 l 1
EndSplineSet
EndChar

StartChar: quoteright
Encoding: 8217 8217 138
Width: 331
VWidth: 0
Flags: HMW
LayerCount: 2
Fore
SplineSet
104 700 m 1
 261 700 l 1
 158 445 l 1
 50 445 l 1
 104 700 l 1
EndSplineSet
EndChar

StartChar: quoteleft
Encoding: 8216 8216 139
Width: 331
VWidth: 0
Flags: HMW
LayerCount: 2
Fore
SplineSet
228 445 m 1
 70 445 l 1
 173 700 l 1
 281 700 l 1
 228 445 l 1
EndSplineSet
EndChar

StartChar: quotesinglbase
Encoding: 8218 8218 140
Width: 331
VWidth: 0
Flags: HMW
LayerCount: 2
Fore
SplineSet
114 80 m 1
 271 80 l 1
 168 -175 l 1
 60 -175 l 1
 114 80 l 1
EndSplineSet
EndChar

StartChar: quotedblleft
Encoding: 8220 8220 141
Width: 562
VWidth: 0
Flags: HMW
LayerCount: 2
Fore
SplineSet
228 445 m 1
 70 445 l 1
 173 700 l 1
 281 700 l 1
 228 445 l 1
459 445 m 1
 301 445 l 1
 404 700 l 1
 512 700 l 1
 459 445 l 1
EndSplineSet
EndChar

StartChar: quotedblright
Encoding: 8221 8221 142
Width: 562
VWidth: 0
Flags: HMW
LayerCount: 2
Fore
SplineSet
104 700 m 1
 261 700 l 1
 158 445 l 1
 50 445 l 1
 104 700 l 1
335 700 m 1
 492 700 l 1
 389 445 l 1
 281 445 l 1
 335 700 l 1
EndSplineSet
EndChar

StartChar: perthousand
Encoding: 8240 8240 143
Width: 1374
VWidth: 0
Flags: HMW
LayerCount: 2
Fore
SplineSet
974 166 m 0
 974 268 1055 351 1163 351 c 0
 1271 351 1352 268 1352 166 c 0
 1352 64 1271 -19 1163 -19 c 0
 1055 -19 974 64 974 166 c 0
1098 166 m 0
 1098 130 1125 100 1163 100 c 0
 1201 100 1228 130 1228 166 c 0
 1228 202 1201 232 1163 232 c 0
 1125 232 1098 202 1098 166 c 0
22 534 m 0
 22 636 104 719 212 719 c 0
 320 719 401 636 401 534 c 0
 401 432 320 349 212 349 c 0
 104 349 22 432 22 534 c 0
147 534 m 0
 147 498 174 468 212 468 c 0
 250 468 276 498 276 534 c 0
 276 570 250 601 212 601 c 0
 174 601 147 570 147 534 c 0
519 166 m 0
 519 268 600 351 708 351 c 0
 816 351 897 268 897 166 c 0
 897 64 816 -19 708 -19 c 0
 600 -19 519 64 519 166 c 0
644 166 m 0
 644 130 670 100 708 100 c 0
 746 100 772 130 772 166 c 0
 772 202 746 232 708 232 c 0
 670 232 644 202 644 166 c 0
650 700 m 1
 807 700 l 1
 269 0 l 1
 113 0 l 1
 650 700 l 1
EndSplineSet
EndChar

StartChar: guilsinglleft
Encoding: 8249 8249 144
Width: 350
VWidth: 0
Flags: HMW
LayerCount: 2
Fore
SplineSet
149 259 m 1
 299 65 l 1
 205 1 l 1
 28 255 l 1
 205 509 l 1
 299 445 l 1
 149 259 l 1
EndSplineSet
EndChar

StartChar: guilsinglright
Encoding: 8250 8250 145
Width: 350
VWidth: 0
Flags: HMW
LayerCount: 2
Fore
SplineSet
201 251 m 1
 51 445 l 1
 145 509 l 1
 322 255 l 1
 145 1 l 1
 51 65 l 1
 201 251 l 1
EndSplineSet
EndChar

StartChar: uni2031
Encoding: 8241 8241 146
Width: 1829
VWidth: 0
Flags: HMW
LayerCount: 2
Fore
SplineSet
1429 166 m 0
 1429 268 1510 351 1618 351 c 0
 1726 351 1807 268 1807 166 c 0
 1807 64 1726 -19 1618 -19 c 0
 1510 -19 1429 64 1429 166 c 0
1554 166 m 0
 1554 130 1580 100 1618 100 c 0
 1656 100 1682 130 1682 166 c 0
 1682 202 1656 232 1618 232 c 0
 1580 232 1554 202 1554 166 c 0
974 166 m 0
 974 268 1055 351 1163 351 c 0
 1271 351 1352 268 1352 166 c 0
 1352 64 1271 -19 1163 -19 c 0
 1055 -19 974 64 974 166 c 0
1098 166 m 0
 1098 130 1125 100 1163 100 c 0
 1201 100 1228 130 1228 166 c 0
 1228 202 1201 232 1163 232 c 0
 1125 232 1098 202 1098 166 c 0
22 534 m 0
 22 636 104 719 212 719 c 0
 320 719 401 636 401 534 c 0
 401 432 320 349 212 349 c 0
 104 349 22 432 22 534 c 0
147 534 m 0
 147 498 174 468 212 468 c 0
 250 468 276 498 276 534 c 0
 276 570 250 601 212 601 c 0
 174 601 147 570 147 534 c 0
519 166 m 0
 519 268 600 351 708 351 c 0
 816 351 897 268 897 166 c 0
 897 64 816 -19 708 -19 c 0
 600 -19 519 64 519 166 c 0
644 166 m 0
 644 130 670 100 708 100 c 0
 746 100 772 130 772 166 c 0
 772 202 746 232 708 232 c 0
 670 232 644 202 644 166 c 0
650 700 m 1
 807 700 l 1
 269 0 l 1
 113 0 l 1
 650 700 l 1
EndSplineSet
EndChar

StartChar: uni203D
Encoding: 8253 8253 147
Width: 627
VWidth: 0
Flags: HMW
LayerCount: 2
Fore
SplineSet
434 481 m 0
 434 555 381 591 300 591 c 0
 239 591 181 566 150 504 c 1
 48 589 l 1
 94 659 191 718 316 718 c 0
 447 718 573 638 573 500 c 0
 573 350 409 278 294 278 c 1
 275 348 l 1
 357 348 434 405 434 481 c 0
216 504 m 1
 361 504 l 1
 333 201 l 1
 243 201 l 1
 216 504 l 1
198 62 m 0
 198 111 239 148 294 148 c 0
 349 148 389 111 389 62 c 0
 389 13 349 -24 294 -24 c 0
 239 -24 198 13 198 62 c 0
EndSplineSet
EndChar

StartChar: Euro
Encoding: 8364 8364 148
Width: 655
VWidth: 0
Flags: HMW
LayerCount: 2
Fore
SplineSet
54 381 m 1
 54 466 l 1
 545 466 l 1
 545 381 l 1
 54 381 l 1
40 250 m 1
 40 334 l 1
 526 334 l 1
 526 250 l 1
 40 250 l 1
249 350 m 0
 249 200 317 120 414 120 c 0
 471 120 523 142 564 182 c 1
 564 22 l 1
 519 -4 468 -19 414 -19 c 0
 221 -19 101 141 101 350 c 0
 101 559 221 720 414 720 c 0
 468 720 519 705 564 679 c 1
 564 518 l 1
 523 558 471 580 414 580 c 0
 317 580 249 500 249 350 c 0
EndSplineSet
EndChar

StartChar: fraction
Encoding: 8260 8260 149
Width: 730
VWidth: 0
Flags: HMW
LayerCount: 2
Fore
SplineSet
580 700 m 1
 701 700 l 1
 181 0 l 1
 60 0 l 1
 580 700 l 1
EndSplineSet
EndChar

StartChar: onequarter
Encoding: 188 188 150
Width: 822
VWidth: 0
Flags: HMW
LayerCount: 2
Fore
SplineSet
630 700 m 1
 727 700 l 1
 207 0 l 1
 110 0 l 1
 630 700 l 1
24 572 m 1
 24 661 l 1
 226 702 l 1
 226 274 l 1
 128 274 l 1
 128 598 l 1
 24 572 l 1
407 75 m 1
 490 148 l 1
 676 148 l 0
 686 161 l 0
 792 161 l 1
 792 75 l 1
 407 75 l 1
510 105 m 1
 407 75 l 1
 651 420 l 1
 726 420 l 1
 726 0 l 1
 621 0 l 1
 621 97 l 0
 632 103 l 0
 632 273 l 1
 510 105 l 1
EndSplineSet
EndChar

StartChar: onehalf
Encoding: 189 189 151
Width: 894
VWidth: 0
Flags: HMW
LayerCount: 2
Fore
SplineSet
630 700 m 1
 727 700 l 1
 207 0 l 1
 110 0 l 1
 630 700 l 1
24 572 m 1
 24 661 l 1
 226 702 l 1
 226 274 l 1
 128 274 l 1
 128 598 l 1
 24 572 l 1
506 2 m 1
 693 196 l 2
 727 232 747 257 747 290 c 0
 747 317 729 344 691 344 c 0
 652 344 626 312 626 267 c 1
 526 267 l 1
 526 356 584 431 694 431 c 0
 798 431 851 360 851 295 c 0
 851 250 827 213 791 182 c 2
 694 95 l 1
 862 95 l 1
 862 2 l 1
 506 2 l 1
EndSplineSet
EndChar

StartChar: threequarters
Encoding: 190 190 152
Width: 879
VWidth: 0
Flags: HMW
LayerCount: 2
Fore
SplineSet
694 700 m 1
 791 700 l 1
 271 0 l 1
 174 0 l 1
 694 700 l 1
162 483 m 1
 162 529 l 1
 208 529 240 555 240 586 c 0
 240 611 224 627 192 627 c 0
 160 627 138 607 138 577 c 1
 44 577 l 1
 44 651 103 708 193 708 c 0
 287 708 340 657 340 592 c 0
 340 520 262 483 162 483 c 1
188 270 m 0
 86 270 26 340 26 414 c 1
 126 414 l 1
 126 372 157 352 192 352 c 0
 227 352 252 367 252 404 c 0
 252 439 224 464 162 464 c 1
 162 515 l 1
 273 515 352 480 352 395 c 0
 352 322 291 270 188 270 c 0
464 75 m 1
 548 148 l 1
 733 148 l 0
 743 161 l 0
 850 161 l 1
 850 75 l 1
 464 75 l 1
567 105 m 1
 464 75 l 1
 709 420 l 1
 784 420 l 1
 784 0 l 1
 679 0 l 1
 679 97 l 0
 690 103 l 0
 690 273 l 1
 567 105 l 1
EndSplineSet
EndChar

StartChar: uni2150
Encoding: 8528 8528 153
Width: 942
VWidth: 0
Flags: HMW
LayerCount: 2
Fore
SplineSet
606 700 m 1
 727 700 l 1
 207 0 l 1
 86 0 l 1
 606 700 l 1
24 572 m 1
 24 661 l 1
 226 702 l 1
 226 274 l 1
 128 274 l 1
 128 598 l 1
 24 572 l 1
577 325 m 1
 577 420 l 1
 920 420 l 1
 717 0 l 1
 608 0 l 1
 771 325 l 1
 577 325 l 1
EndSplineSet
EndChar

StartChar: uni2151
Encoding: 8529 8529 154
Width: 884
VWidth: 0
Flags: HMW
LayerCount: 2
Fore
SplineSet
599 700 m 1
 720 700 l 1
 200 0 l 1
 79 0 l 1
 599 700 l 1
24 572 m 1
 24 661 l 1
 226 702 l 1
 226 274 l 1
 128 274 l 1
 128 598 l 1
 24 572 l 1
761 275 m 0
 761 318 730 345 690 345 c 0
 650 345 620 318 620 275 c 0
 620 232 650 203 690 203 c 0
 730 203 761 232 761 275 c 0
692 4 m 1
 562 4 l 1
 699 156 l 1
 719 164 l 1
 697 142 679 138 649 138 c 0
 587 138 519 191 519 275 c 0
 519 378 596 432 690 432 c 0
 784 432 862 378 862 275 c 0
 862 230 839 192 812 158 c 2
 692 4 l 1
EndSplineSet
EndChar

StartChar: uni2152
Encoding: 8530 8530 155
Width: 1211
VWidth: 0
Flags: HMW
LayerCount: 2
Fore
SplineSet
599 700 m 1
 720 700 l 1
 200 0 l 1
 79 0 l 1
 599 700 l 1
24 572 m 1
 24 661 l 1
 226 702 l 1
 226 274 l 1
 128 274 l 1
 128 598 l 1
 24 572 l 1
550 299 m 1
 550 388 l 1
 753 429 l 1
 753 1 l 1
 655 1 l 1
 655 325 l 1
 550 299 l 1
926 210 m 0
 926 131 957 80 1003 80 c 0
 1049 80 1080 131 1080 210 c 0
 1080 289 1049 340 1003 340 c 0
 957 340 926 289 926 210 c 0
829 210 m 0
 829 346 900 428 1003 428 c 0
 1110 428 1178 346 1178 210 c 0
 1178 74 1110 -8 1003 -8 c 0
 900 -8 829 74 829 210 c 0
EndSplineSet
EndChar

StartChar: onethird
Encoding: 8531 8531 156
Width: 873
VWidth: 0
Flags: HMW
LayerCount: 2
Fore
SplineSet
599 700 m 1
 720 700 l 1
 200 0 l 1
 79 0 l 1
 599 700 l 1
24 572 m 1
 24 661 l 1
 226 702 l 1
 226 274 l 1
 128 274 l 1
 128 598 l 1
 24 572 l 1
659 203 m 1
 659 249 l 1
 705 249 736 275 736 306 c 0
 736 331 721 347 689 347 c 0
 657 347 634 327 634 297 c 1
 540 297 l 1
 540 371 599 428 689 428 c 0
 783 428 837 377 837 312 c 0
 837 240 759 203 659 203 c 1
684 -10 m 0
 582 -10 522 60 522 134 c 1
 623 134 l 1
 623 92 653 72 688 72 c 0
 723 72 748 87 748 124 c 0
 748 159 721 184 659 184 c 1
 659 235 l 1
 770 235 849 200 849 115 c 0
 849 42 787 -10 684 -10 c 0
EndSplineSet
EndChar

StartChar: twothirds
Encoding: 8532 8532 157
Width: 1007
VWidth: 0
Flags: HMW
LayerCount: 2
Fore
SplineSet
745 700 m 1
 866 700 l 1
 346 0 l 1
 225 0 l 1
 745 700 l 1
30 282 m 1
 217 476 l 2
 251 512 271 537 271 570 c 0
 271 597 253 624 215 624 c 0
 176 624 150 592 150 547 c 1
 50 547 l 1
 50 636 108 711 218 711 c 0
 322 711 376 640 376 575 c 0
 376 530 352 493 316 462 c 2
 218 375 l 1
 386 375 l 1
 386 282 l 1
 30 282 l 1
792 203 m 1
 792 249 l 1
 838 249 870 275 870 306 c 0
 870 331 854 347 822 347 c 0
 790 347 768 327 768 297 c 1
 674 297 l 1
 674 371 733 428 823 428 c 0
 917 428 970 377 970 312 c 0
 970 240 892 203 792 203 c 1
818 -10 m 0
 716 -10 656 60 656 134 c 1
 756 134 l 1
 756 92 787 72 822 72 c 0
 857 72 882 87 882 124 c 0
 882 159 854 184 792 184 c 1
 792 235 l 1
 903 235 982 200 982 115 c 0
 982 42 921 -10 818 -10 c 0
EndSplineSet
EndChar

StartChar: uni2155
Encoding: 8533 8533 158
Width: 862
VWidth: 0
Flags: HMW
LayerCount: 2
Fore
SplineSet
599 700 m 1
 720 700 l 1
 200 0 l 1
 79 0 l 1
 599 700 l 1
24 572 m 1
 24 661 l 1
 226 702 l 1
 226 274 l 1
 128 274 l 1
 128 598 l 1
 24 572 l 1
840 132 m 0
 840 33 751 -10 670 -10 c 0
 593 -10 541 15 502 44 c 1
 542 129 l 1
 576 101 617 83 648 83 c 0
 699 83 729 103 729 144 c 0
 729 185 689 202 648 202 c 0
 616 202 573 196 530 175 c 1
 601 226 l 1
 633 260 670 270 712 270 c 0
 778 270 840 219 840 132 c 0
663 330 m 1
 628 226 l 1
 530 175 l 1
 588 418 l 1
 831 418 l 1
 831 330 l 1
 663 330 l 1
EndSplineSet
EndChar

StartChar: uni2156
Encoding: 8534 8534 159
Width: 1005
VWidth: 0
Flags: HMW
LayerCount: 2
Fore
SplineSet
745 700 m 1
 866 700 l 1
 346 0 l 1
 225 0 l 1
 745 700 l 1
30 282 m 1
 217 476 l 2
 251 512 271 537 271 570 c 0
 271 597 253 624 215 624 c 0
 176 624 150 592 150 547 c 1
 50 547 l 1
 50 636 108 711 218 711 c 0
 322 711 376 640 376 575 c 0
 376 530 352 493 316 462 c 2
 218 375 l 1
 386 375 l 1
 386 282 l 1
 30 282 l 1
973 132 m 0
 973 33 884 -10 803 -10 c 0
 726 -10 675 15 636 44 c 1
 675 129 l 1
 709 101 750 83 781 83 c 0
 832 83 862 103 862 144 c 0
 862 185 822 202 781 202 c 0
 749 202 706 196 663 175 c 1
 734 226 l 1
 766 260 803 270 845 270 c 0
 911 270 973 219 973 132 c 0
796 330 m 1
 761 226 l 1
 663 175 l 1
 721 418 l 1
 964 418 l 1
 964 330 l 1
 796 330 l 1
EndSplineSet
EndChar

StartChar: uni2157
Encoding: 8535 8535 160
Width: 931
VWidth: 0
Flags: HMW
LayerCount: 2
Fore
SplineSet
674 700 m 1
 795 700 l 1
 275 0 l 1
 154 0 l 1
 674 700 l 1
159 483 m 1
 159 529 l 1
 205 529 237 555 237 586 c 0
 237 611 221 627 189 627 c 0
 157 627 134 607 134 577 c 1
 40 577 l 1
 40 651 100 708 190 708 c 0
 284 708 337 657 337 592 c 0
 337 520 259 483 159 483 c 1
185 270 m 0
 83 270 22 340 22 414 c 1
 123 414 l 1
 123 372 153 352 188 352 c 0
 223 352 249 367 249 404 c 0
 249 439 221 464 159 464 c 1
 159 515 l 1
 270 515 349 480 349 395 c 0
 349 322 288 270 185 270 c 0
895 132 m 0
 895 33 807 -10 726 -10 c 0
 649 -10 597 15 558 44 c 1
 597 129 l 1
 631 101 672 83 703 83 c 0
 754 83 785 103 785 144 c 0
 785 185 744 202 703 202 c 0
 671 202 629 196 586 175 c 1
 656 226 l 1
 688 260 726 270 768 270 c 0
 834 270 895 219 895 132 c 0
718 330 m 1
 684 226 l 1
 586 175 l 1
 644 418 l 1
 887 418 l 1
 887 330 l 1
 718 330 l 1
EndSplineSet
EndChar

StartChar: uni2158
Encoding: 8536 8536 161
Width: 1016
VWidth: 0
Flags: HMW
LayerCount: 2
Fore
SplineSet
734 699 m 1
 855 699 l 1
 335 -1 l 1
 214 -1 l 1
 734 699 l 1
22 355 m 1
 105 428 l 1
 291 428 l 0
 301 441 l 0
 408 441 l 1
 408 355 l 1
 22 355 l 1
125 385 m 1
 22 355 l 1
 266 700 l 1
 342 700 l 1
 342 280 l 1
 236 280 l 1
 236 377 l 0
 247 383 l 0
 247 553 l 1
 125 385 l 1
987 132 m 0
 987 33 898 -10 817 -10 c 0
 740 -10 688 15 649 44 c 1
 689 128 l 1
 723 100 764 82 795 82 c 0
 846 82 876 102 876 143 c 0
 876 184 836 201 795 201 c 0
 763 201 720 196 677 175 c 1
 748 226 l 1
 780 260 817 269 859 269 c 0
 925 269 987 219 987 132 c 0
810 329 m 1
 775 225 l 1
 677 175 l 1
 735 417 l 1
 978 417 l 1
 978 329 l 1
 810 329 l 1
EndSplineSet
EndChar

StartChar: uni2159
Encoding: 8537 8537 162
Width: 871
VWidth: 0
Flags: HMW
LayerCount: 2
Fore
SplineSet
618 700 m 1
 739 700 l 1
 219 0 l 1
 98 0 l 1
 618 700 l 1
24 572 m 1
 24 661 l 1
 226 702 l 1
 226 274 l 1
 128 274 l 1
 128 598 l 1
 24 572 l 1
602 145 m 0
 602 102 633 75 673 75 c 0
 713 75 743 102 743 145 c 0
 743 188 713 217 673 217 c 0
 633 217 602 188 602 145 c 0
671 416 m 1
 800 416 l 1
 664 264 l 1
 644 256 l 1
 666 278 684 282 714 282 c 0
 776 282 844 229 844 145 c 0
 844 42 767 -12 673 -12 c 0
 579 -12 502 42 502 145 c 0
 502 190 523 228 550 262 c 2
 671 416 l 1
EndSplineSet
EndChar

StartChar: uni215A
Encoding: 8538 8538 163
Width: 931
VWidth: 0
Flags: HMW
LayerCount: 2
Fore
SplineSet
696 700 m 1
 818 700 l 1
 298 0 l 1
 176 0 l 1
 696 700 l 1
367 412 m 0
 367 313 279 270 198 270 c 0
 121 270 69 295 30 324 c 1
 69 409 l 1
 103 381 144 363 175 363 c 0
 226 363 257 383 257 424 c 0
 257 465 216 482 175 482 c 0
 143 482 101 476 58 455 c 1
 128 506 l 1
 160 540 198 550 240 550 c 0
 306 550 367 499 367 412 c 0
190 610 m 1
 156 506 l 1
 58 455 l 1
 116 698 l 1
 359 698 l 1
 359 610 l 1
 190 610 l 1
661 145 m 0
 661 102 692 75 732 75 c 0
 772 75 802 102 802 145 c 0
 802 188 772 217 732 217 c 0
 692 217 661 188 661 145 c 0
731 416 m 1
 860 416 l 1
 724 264 l 1
 703 256 l 1
 725 278 743 282 773 282 c 0
 835 282 903 229 903 145 c 0
 903 42 826 -12 732 -12 c 0
 638 -12 561 42 561 145 c 0
 561 190 583 228 610 262 c 2
 731 416 l 1
EndSplineSet
EndChar

StartChar: oneeighth
Encoding: 8539 8539 164
Width: 891
VWidth: 0
Flags: HMW
LayerCount: 2
Fore
SplineSet
618 700 m 1
 739 700 l 1
 219 0 l 1
 98 0 l 1
 618 700 l 1
24 572 m 1
 24 661 l 1
 226 702 l 1
 226 274 l 1
 128 274 l 1
 128 598 l 1
 24 572 l 1
561 319 m 0
 561 389 626 430 703 430 c 0
 780 430 846 389 846 319 c 0
 846 243 772 206 703 206 c 0
 634 206 561 243 561 319 c 0
657 309 m 0
 657 280 676 261 703 261 c 0
 730 261 750 280 750 309 c 0
 750 338 731 357 703 357 c 0
 675 357 657 338 657 309 c 0
546 114 m 0
 546 202 634 238 703 238 c 0
 772 238 861 202 861 114 c 0
 861 38 785 -10 703 -10 c 0
 621 -10 546 38 546 114 c 0
648 129 m 0
 648 92 672 73 703 73 c 0
 734 73 759 92 759 129 c 0
 759 160 734 184 703 184 c 0
 672 184 648 160 648 129 c 0
EndSplineSet
EndChar

StartChar: threeeighths
Encoding: 8540 8540 165
Width: 953
VWidth: 0
Flags: HMW
LayerCount: 2
Fore
SplineSet
680 700 m 1
 801 700 l 1
 281 0 l 1
 160 0 l 1
 680 700 l 1
159 483 m 1
 159 529 l 1
 205 529 237 555 237 586 c 0
 237 611 221 627 189 627 c 0
 157 627 134 607 134 577 c 1
 40 577 l 1
 40 651 100 708 190 708 c 0
 284 708 337 657 337 592 c 0
 337 520 259 483 159 483 c 1
185 270 m 0
 83 270 22 340 22 414 c 1
 123 414 l 1
 123 372 153 352 188 352 c 0
 223 352 249 367 249 404 c 0
 249 439 221 464 159 464 c 1
 159 515 l 1
 270 515 349 480 349 395 c 0
 349 322 288 270 185 270 c 0
623 319 m 0
 623 389 688 430 765 430 c 0
 842 430 908 389 908 319 c 0
 908 243 834 206 765 206 c 0
 696 206 623 243 623 319 c 0
719 309 m 0
 719 280 738 261 765 261 c 0
 792 261 812 280 812 309 c 0
 812 338 793 357 765 357 c 0
 737 357 719 338 719 309 c 0
608 114 m 0
 608 202 696 238 765 238 c 0
 834 238 923 202 923 114 c 0
 923 38 847 -10 765 -10 c 0
 683 -10 608 38 608 114 c 0
710 129 m 0
 710 92 734 73 765 73 c 0
 796 73 821 92 821 129 c 0
 821 160 796 184 765 184 c 0
 734 184 710 160 710 129 c 0
EndSplineSet
EndChar

StartChar: fiveeighths
Encoding: 8541 8541 166
Width: 969
VWidth: 0
Flags: HMW
LayerCount: 2
Fore
SplineSet
696 700 m 1
 818 700 l 1
 298 0 l 1
 176 0 l 1
 696 700 l 1
361 412 m 0
 361 313 273 270 192 270 c 0
 115 270 63 295 24 324 c 1
 63 409 l 1
 97 381 138 363 169 363 c 0
 220 363 250 383 250 424 c 0
 250 465 210 482 169 482 c 0
 137 482 94 476 51 455 c 1
 122 506 l 1
 154 540 192 550 234 550 c 0
 300 550 361 499 361 412 c 0
184 610 m 1
 149 506 l 1
 51 455 l 1
 110 698 l 1
 352 698 l 1
 352 610 l 1
 184 610 l 1
639 319 m 0
 639 389 705 430 782 430 c 0
 859 430 924 389 924 319 c 0
 924 243 851 206 782 206 c 0
 713 206 639 243 639 319 c 0
735 309 m 0
 735 280 755 261 782 261 c 0
 809 261 828 280 828 309 c 0
 828 338 810 357 782 357 c 0
 754 357 735 338 735 309 c 0
624 114 m 0
 624 202 713 238 782 238 c 0
 851 238 939 202 939 114 c 0
 939 38 864 -10 782 -10 c 0
 700 -10 624 38 624 114 c 0
726 129 m 0
 726 92 751 73 782 73 c 0
 813 73 837 92 837 129 c 0
 837 160 813 184 782 184 c 0
 751 184 726 160 726 129 c 0
EndSplineSet
EndChar

StartChar: seveneighths
Encoding: 8542 8542 167
Width: 859
VWidth: 0
Flags: HMW
LayerCount: 2
Fore
SplineSet
580 700 m 1
 701 700 l 1
 181 0 l 1
 60 0 l 1
 580 700 l 1
23 605 m 1
 23 700 l 1
 366 700 l 1
 163 280 l 1
 54 280 l 1
 217 605 l 1
 23 605 l 1
529 319 m 0
 529 389 595 430 672 430 c 0
 749 430 814 389 814 319 c 0
 814 243 741 206 672 206 c 0
 603 206 529 243 529 319 c 0
625 309 m 0
 625 280 645 261 672 261 c 0
 699 261 718 280 718 309 c 0
 718 338 700 357 672 357 c 0
 644 357 625 338 625 309 c 0
514 114 m 0
 514 202 603 238 672 238 c 0
 741 238 829 202 829 114 c 0
 829 38 754 -10 672 -10 c 0
 590 -10 514 38 514 114 c 0
616 129 m 0
 616 92 641 73 672 73 c 0
 703 73 727 92 727 129 c 0
 727 160 703 184 672 184 c 0
 641 184 616 160 616 129 c 0
EndSplineSet
EndChar

StartChar: uni2074
Encoding: 8308 8308 168
Width: 426
VWidth: 0
Flags: HMW
LayerCount: 2
Fore
SplineSet
16 355 m 1
 99 428 l 1
 285 428 l 0
 295 441 l 0
 401 441 l 1
 401 355 l 1
 16 355 l 1
118 385 m 1
 16 355 l 1
 260 700 l 1
 335 700 l 1
 335 280 l 1
 230 280 l 1
 230 377 l 0
 241 383 l 0
 241 553 l 1
 118 385 l 1
EndSplineSet
EndChar

StartChar: uni2075
Encoding: 8309 8309 169
Width: 387
VWidth: 0
Flags: HMW
LayerCount: 2
Fore
SplineSet
361 412 m 0
 361 313 273 270 192 270 c 0
 115 270 63 295 24 324 c 1
 63 409 l 1
 97 381 138 363 169 363 c 0
 220 363 250 383 250 424 c 0
 250 465 210 482 169 482 c 0
 137 482 94 476 51 455 c 1
 122 506 l 1
 154 540 192 550 234 550 c 0
 300 550 361 499 361 412 c 0
184 610 m 1
 149 506 l 1
 51 455 l 1
 110 698 l 1
 352 698 l 1
 352 610 l 1
 184 610 l 1
EndSplineSet
EndChar

StartChar: uni2076
Encoding: 8310 8310 170
Width: 383
VWidth: 0
Flags: HMW
LayerCount: 2
Fore
SplineSet
122 425 m 0
 122 382 153 355 193 355 c 0
 233 355 264 382 264 425 c 0
 264 468 233 497 193 497 c 0
 153 497 122 468 122 425 c 0
192 696 m 1
 321 696 l 1
 185 544 l 1
 165 536 l 1
 187 558 204 562 234 562 c 0
 296 562 364 509 364 425 c 0
 364 322 287 268 193 268 c 0
 99 268 22 322 22 425 c 0
 22 470 44 508 71 542 c 2
 192 696 l 1
EndSplineSet
EndChar

StartChar: uni2077
Encoding: 8311 8311 171
Width: 379
VWidth: 0
Flags: HMW
LayerCount: 2
Fore
SplineSet
23 605 m 1
 23 700 l 1
 366 700 l 1
 163 280 l 1
 54 280 l 1
 217 605 l 1
 23 605 l 1
EndSplineSet
EndChar

StartChar: uni2078
Encoding: 8312 8312 172
Width: 362
VWidth: 0
Flags: HMW
LayerCount: 2
Fore
SplineSet
38 599 m 0
 38 669 103 710 180 710 c 0
 257 710 322 669 322 599 c 0
 322 523 249 486 180 486 c 0
 111 486 38 523 38 599 c 0
133 589 m 0
 133 560 153 541 180 541 c 0
 207 541 226 560 226 589 c 0
 226 618 208 637 180 637 c 0
 152 637 133 618 133 589 c 0
22 394 m 0
 22 482 111 518 180 518 c 0
 249 518 337 482 337 394 c 0
 337 318 262 270 180 270 c 0
 98 270 22 318 22 394 c 0
124 409 m 0
 124 372 149 353 180 353 c 0
 211 353 236 372 236 409 c 0
 236 440 211 464 180 464 c 0
 149 464 124 440 124 409 c 0
EndSplineSet
EndChar

StartChar: uni2079
Encoding: 8313 8313 173
Width: 380
VWidth: 0
Flags: HMW
LayerCount: 2
Fore
SplineSet
265 555 m 0
 265 598 234 625 194 625 c 0
 154 625 124 598 124 555 c 0
 124 512 154 483 194 483 c 0
 234 483 265 512 265 555 c 0
196 284 m 1
 66 284 l 1
 203 436 l 1
 223 444 l 1
 201 422 183 418 153 418 c 0
 91 418 23 471 23 555 c 0
 23 658 100 712 194 712 c 0
 288 712 366 658 366 555 c 0
 366 510 343 472 316 438 c 2
 196 284 l 1
EndSplineSet
EndChar

StartChar: uni2070
Encoding: 8304 8304 174
Width: 390
VWidth: 0
Flags: HMW
LayerCount: 2
Fore
SplineSet
118 490 m 0
 118 411 149 360 195 360 c 0
 241 360 272 411 272 490 c 0
 272 569 241 620 195 620 c 0
 149 620 118 569 118 490 c 0
21 490 m 0
 21 626 92 708 195 708 c 0
 302 708 370 626 370 490 c 0
 370 354 302 272 195 272 c 0
 92 272 21 354 21 490 c 0
EndSplineSet
EndChar

StartChar: uni2080
Encoding: 8320 8320 175
Width: 390
VWidth: 0
Flags: HMW
LayerCount: 2
Fore
SplineSet
118 210 m 0
 118 131 149 80 195 80 c 0
 241 80 272 131 272 210 c 0
 272 289 241 340 195 340 c 0
 149 340 118 289 118 210 c 0
21 210 m 0
 21 346 92 428 195 428 c 0
 302 428 370 346 370 210 c 0
 370 74 302 -8 195 -8 c 0
 92 -8 21 74 21 210 c 0
EndSplineSet
EndChar

StartChar: uni2084
Encoding: 8324 8324 176
Width: 431
VWidth: 0
Flags: HMW
LayerCount: 2
Fore
SplineSet
14 75 m 1
 98 148 l 1
 283 148 l 0
 293 161 l 0
 400 161 l 1
 400 75 l 1
 14 75 l 1
117 105 m 1
 14 75 l 1
 259 420 l 1
 334 420 l 1
 334 0 l 1
 229 0 l 1
 229 97 l 0
 240 103 l 0
 240 273 l 1
 117 105 l 1
EndSplineSet
EndChar

StartChar: uni2085
Encoding: 8325 8325 177
Width: 396
VWidth: 0
Flags: HMW
LayerCount: 2
Fore
SplineSet
364 132 m 0
 364 33 276 -10 195 -10 c 0
 118 -10 66 15 27 44 c 1
 66 129 l 1
 100 101 141 83 172 83 c 0
 223 83 254 103 254 144 c 0
 254 185 213 202 172 202 c 0
 140 202 97 196 54 175 c 1
 125 226 l 1
 157 260 195 270 237 270 c 0
 303 270 364 219 364 132 c 0
187 330 m 1
 152 226 l 1
 54 175 l 1
 113 418 l 1
 356 418 l 1
 356 330 l 1
 187 330 l 1
EndSplineSet
EndChar

StartChar: uni2086
Encoding: 8326 8326 178
Width: 394
VWidth: 0
Flags: HMW
LayerCount: 2
Fore
SplineSet
126 145 m 0
 126 102 157 75 197 75 c 0
 237 75 267 102 267 145 c 0
 267 188 237 217 197 217 c 0
 157 217 126 188 126 145 c 0
196 416 m 1
 324 416 l 1
 188 264 l 1
 168 256 l 1
 190 278 208 282 238 282 c 0
 300 282 368 229 368 145 c 0
 368 42 291 -12 197 -12 c 0
 103 -12 26 42 26 145 c 0
 26 190 47 228 74 262 c 2
 196 416 l 1
EndSplineSet
EndChar

StartChar: uni2087
Encoding: 8327 8327 179
Width: 384
VWidth: 0
Flags: HMW
LayerCount: 2
Fore
SplineSet
27 325 m 1
 27 420 l 1
 370 420 l 1
 167 0 l 1
 58 0 l 1
 220 325 l 1
 27 325 l 1
EndSplineSet
EndChar

StartChar: uni2088
Encoding: 8328 8328 180
Width: 368
VWidth: 0
Flags: HMW
LayerCount: 2
Fore
SplineSet
42 319 m 0
 42 389 107 430 184 430 c 0
 261 430 326 389 326 319 c 0
 326 243 253 206 184 206 c 0
 115 206 42 243 42 319 c 0
138 309 m 0
 138 280 157 261 184 261 c 0
 211 261 230 280 230 309 c 0
 230 338 212 357 184 357 c 0
 156 357 138 338 138 309 c 0
27 114 m 0
 27 202 115 238 184 238 c 0
 253 238 341 202 341 114 c 0
 341 38 266 -10 184 -10 c 0
 102 -10 27 38 27 114 c 0
128 129 m 0
 128 92 153 73 184 73 c 0
 215 73 240 92 240 129 c 0
 240 160 215 184 184 184 c 0
 153 184 128 160 128 129 c 0
EndSplineSet
EndChar

StartChar: uni2089
Encoding: 8329 8329 181
Width: 398
VWidth: 0
Flags: HMW
LayerCount: 2
Fore
SplineSet
266 275 m 0
 266 318 236 345 196 345 c 0
 156 345 125 318 125 275 c 0
 125 232 156 203 196 203 c 0
 236 203 266 232 266 275 c 0
197 4 m 1
 68 4 l 1
 204 156 l 1
 225 164 l 1
 203 142 185 138 155 138 c 0
 93 138 25 191 25 275 c 0
 25 378 102 432 196 432 c 0
 290 432 367 378 367 275 c 0
 367 230 345 192 318 158 c 2
 197 4 l 1
EndSplineSet
EndChar

StartChar: uni2081
Encoding: 8321 8321 182
Width: 360
VWidth: 0
Flags: HMW
LayerCount: 2
Fore
SplineSet
90 299 m 1
 90 388 l 1
 292 429 l 1
 292 1 l 1
 194 1 l 1
 194 325 l 1
 90 299 l 1
EndSplineSet
EndChar

StartChar: uni2082
Encoding: 8322 8322 183
Width: 411
VWidth: 0
Flags: HMW
LayerCount: 2
Fore
SplineSet
28 2 m 1
 216 196 l 2
 250 232 270 257 270 290 c 0
 270 317 252 344 214 344 c 0
 175 344 148 312 148 267 c 1
 48 267 l 1
 48 356 107 431 217 431 c 0
 321 431 374 360 374 295 c 0
 374 250 350 213 314 182 c 2
 216 95 l 1
 384 95 l 1
 384 2 l 1
 28 2 l 1
EndSplineSet
EndChar

StartChar: uni2083
Encoding: 8323 8323 184
Width: 372
VWidth: 0
Flags: HMW
LayerCount: 2
Fore
SplineSet
158 203 m 1
 158 249 l 1
 204 249 236 275 236 306 c 0
 236 331 220 347 188 347 c 0
 156 347 134 327 134 297 c 1
 40 297 l 1
 40 371 99 428 189 428 c 0
 283 428 337 377 337 312 c 0
 337 240 258 203 158 203 c 1
184 -10 m 0
 82 -10 22 60 22 134 c 1
 123 134 l 1
 123 92 153 72 188 72 c 0
 223 72 248 87 248 124 c 0
 248 159 220 184 158 184 c 1
 158 235 l 1
 269 235 349 200 349 115 c 0
 349 42 287 -10 184 -10 c 0
EndSplineSet
EndChar

StartChar: Agrave
Encoding: 192 192 185
Width: 735
VWidth: 0
Flags: HMW
LayerCount: 2
Fore
SplineSet
184 135 m 1
 196 264 l 1
 543 264 l 1
 554 135 l 1
 184 135 l 1
368 442 m 1
 270 217 l 1
 277 179 l 1
 191 0 l 1
 -1 0 l 1
 368 744 l 1
 736 0 l 1
 544 0 l 1
 460 172 l 1
 466 216 l 1
 368 442 l 1
206 954 m 1
 322 1007 l 1
 472 847 l 1
 386 804 l 1
 206 954 l 1
EndSplineSet
EndChar

StartChar: Aacute
Encoding: 193 193 186
Width: 735
VWidth: 0
Flags: HMW
LayerCount: 2
Fore
SplineSet
184 135 m 1
 196 264 l 1
 543 264 l 1
 554 135 l 1
 184 135 l 1
368 442 m 1
 270 217 l 1
 277 179 l 1
 191 0 l 1
 -1 0 l 1
 368 744 l 1
 736 0 l 1
 544 0 l 1
 460 172 l 1
 466 216 l 1
 368 442 l 1
526 954 m 1
 346 804 l 1
 260 847 l 1
 410 1007 l 1
 526 954 l 1
EndSplineSet
EndChar

StartChar: Acircumflex
Encoding: 194 194 187
Width: 735
VWidth: 0
Flags: HMW
LayerCount: 2
Fore
SplineSet
184 135 m 1
 196 264 l 1
 543 264 l 1
 554 135 l 1
 184 135 l 1
368 442 m 1
 270 217 l 1
 277 179 l 1
 191 0 l 1
 -1 0 l 1
 368 744 l 1
 736 0 l 1
 544 0 l 1
 460 172 l 1
 466 216 l 1
 368 442 l 1
368 875 m 1
 276 789 l 1
 170 861 l 1
 368 1001 l 1
 565 861 l 1
 459 789 l 1
 368 875 l 1
EndSplineSet
EndChar

StartChar: Atilde
Encoding: 195 195 188
Width: 735
VWidth: 0
Flags: HMW
LayerCount: 2
Fore
SplineSet
184 135 m 1
 196 264 l 1
 543 264 l 1
 554 135 l 1
 184 135 l 1
368 442 m 1
 270 217 l 1
 277 179 l 1
 191 0 l 1
 -1 0 l 1
 368 744 l 1
 736 0 l 1
 544 0 l 1
 460 172 l 1
 466 216 l 1
 368 442 l 1
171 863 m 1
 181 912 227 957 291 957 c 0
 357 957 371 905 427 905 c 0
 452 905 473 926 493 958 c 1
 564 884 l 1
 548 847 492 798 430 798 c 0
 375 798 339 852 290 852 c 0
 252 852 243 816 243 801 c 1
 171 863 l 1
EndSplineSet
EndChar

StartChar: Adieresis
Encoding: 196 196 189
Width: 735
VWidth: 0
Flags: HMW
LayerCount: 2
Fore
SplineSet
184 135 m 1
 196 264 l 1
 543 264 l 1
 554 135 l 1
 184 135 l 1
368 442 m 1
 270 217 l 1
 277 179 l 1
 191 0 l 1
 -1 0 l 1
 368 744 l 1
 736 0 l 1
 544 0 l 1
 460 172 l 1
 466 216 l 1
 368 442 l 1
420 830 m 0
 420 878 459 912 508 912 c 0
 557 912 596 878 596 830 c 0
 596 782 557 748 508 748 c 0
 459 748 420 782 420 830 c 0
132 836 m 0
 132 884 172 918 221 918 c 0
 270 918 309 884 309 836 c 0
 309 788 270 754 221 754 c 0
 172 754 132 788 132 836 c 0
EndSplineSet
EndChar

StartChar: Aring
Encoding: 197 197 190
Width: 735
VWidth: 0
Flags: HMW
LayerCount: 2
Fore
SplineSet
184 135 m 1
 196 264 l 1
 543 264 l 1
 554 135 l 1
 184 135 l 1
368 442 m 1
 270 217 l 1
 277 179 l 1
 191 0 l 1
 -1 0 l 1
 368 744 l 1
 736 0 l 1
 544 0 l 1
 460 172 l 1
 466 216 l 1
 368 442 l 1
242 800 m 0
 242 869 297 916 367 916 c 0
 437 916 493 869 493 800 c 0
 493 731 437 685 367 685 c 0
 297 685 242 731 242 800 c 0
321 800 m 0
 321 770 342 753 367 753 c 0
 392 753 414 770 414 800 c 0
 414 830 392 848 367 848 c 0
 342 848 321 830 321 800 c 0
EndSplineSet
EndChar

StartChar: AE
Encoding: 198 198 191
Width: 1085
VWidth: 0
Flags: HMW
LayerCount: 2
Fore
SplineSet
270 151 m 1
 276 306 l 1
 576 306 l 1
 576 151 l 1
 270 151 l 1
438 700 m 1
 601 660 l 1
 228 0 l 1
 14 0 l 1
 438 700 l 1
631 0 m 1
 631 139 l 1
 1015 139 l 1
 1015 0 l 1
 631 0 l 1
639 561 m 1
 438 700 l 1
 1015 700 l 1
 1015 561 l 1
 639 561 l 1
631 299 m 1
 631 436 l 1
 995 436 l 1
 995 299 l 1
 631 299 l 1
549 700 m 1
 731 700 l 1
 731 0 l 1
 549 0 l 1
 549 700 l 1
EndSplineSet
EndChar

StartChar: Ccedilla
Encoding: 199 199 192
Width: 700
VWidth: 0
Flags: HMW
LayerCount: 2
Fore
SplineSet
219 350 m 0
 219 221 315 145 428 145 c 0
 527 145 591 188 637 238 c 1
 637 54 l 1
 581 11 520 -16 418 -16 c 0
 193 -16 34 132 34 350 c 0
 34 568 193 716 418 716 c 0
 520 716 581 689 637 646 c 1
 637 462 l 1
 591 512 527 555 428 555 c 0
 315 555 219 479 219 350 c 0
358 48 m 1
 468 45 l 1
 382 -77 l 1
 393 -74 405 -74 418 -74 c 0
 458 -74 510 -105 510 -171 c 0
 510 -243 442 -280 379 -280 c 0
 323 -280 281 -271 234 -241 c 1
 280 -172 l 1
 305 -190 339 -198 359 -198 c 0
 393 -198 413 -187 413 -163 c 0
 413 -137 384 -130 353 -130 c 0
 343 -130 305 -133 270 -147 c 1
 358 48 l 1
EndSplineSet
EndChar

StartChar: Egrave
Encoding: 200 200 193
Width: 603
VWidth: 0
Flags: HMW
LayerCount: 2
Fore
SplineSet
186 0 m 1
 186 139 l 1
 539 139 l 1
 539 0 l 1
 186 0 l 1
186 561 m 1
 186 700 l 1
 539 700 l 1
 539 561 l 1
 186 561 l 1
186 299 m 1
 186 436 l 1
 519 436 l 1
 519 299 l 1
 186 299 l 1
74 700 m 1
 237 700 l 1
 237 0 l 1
 74 0 l 1
 74 700 l 1
145 932 m 1
 261 985 l 1
 411 825 l 1
 325 782 l 1
 145 932 l 1
EndSplineSet
EndChar

StartChar: Eacute
Encoding: 201 201 194
Width: 603
VWidth: 0
Flags: HMW
LayerCount: 2
Fore
SplineSet
186 0 m 1
 186 139 l 1
 539 139 l 1
 539 0 l 1
 186 0 l 1
186 561 m 1
 186 700 l 1
 539 700 l 1
 539 561 l 1
 186 561 l 1
186 299 m 1
 186 436 l 1
 519 436 l 1
 519 299 l 1
 186 299 l 1
74 700 m 1
 237 700 l 1
 237 0 l 1
 74 0 l 1
 74 700 l 1
465 932 m 1
 285 782 l 1
 199 825 l 1
 349 985 l 1
 465 932 l 1
EndSplineSet
EndChar

StartChar: Ecircumflex
Encoding: 202 202 195
Width: 603
VWidth: 0
Flags: HMW
LayerCount: 2
Fore
SplineSet
186 0 m 1
 186 139 l 1
 539 139 l 1
 539 0 l 1
 186 0 l 1
186 561 m 1
 186 700 l 1
 539 700 l 1
 539 561 l 1
 186 561 l 1
186 299 m 1
 186 436 l 1
 519 436 l 1
 519 299 l 1
 186 299 l 1
74 700 m 1
 237 700 l 1
 237 0 l 1
 74 0 l 1
 74 700 l 1
310 884 m 1
 200 789 l 1
 150 829 l 1
 310 969 l 1
 470 829 l 1
 420 789 l 1
 310 884 l 1
EndSplineSet
EndChar

StartChar: Edieresis
Encoding: 203 203 196
Width: 603
VWidth: 0
Flags: HMW
LayerCount: 2
Fore
SplineSet
186 0 m 1
 186 139 l 1
 539 139 l 1
 539 0 l 1
 186 0 l 1
186 561 m 1
 186 700 l 1
 539 700 l 1
 539 561 l 1
 186 561 l 1
186 299 m 1
 186 436 l 1
 519 436 l 1
 519 299 l 1
 186 299 l 1
74 700 m 1
 237 700 l 1
 237 0 l 1
 74 0 l 1
 74 700 l 1
344 866 m 0
 344 914 383 948 432 948 c 0
 481 948 521 914 521 866 c 0
 521 818 481 784 432 784 c 0
 383 784 344 818 344 866 c 0
101 866 m 0
 101 914 140 948 189 948 c 0
 238 948 277 914 277 866 c 0
 277 818 238 784 189 784 c 0
 140 784 101 818 101 866 c 0
EndSplineSet
EndChar

StartChar: Igrave
Encoding: 204 204 197
Width: 320
VWidth: 0
Flags: HMW
LayerCount: 2
Fore
SplineSet
74 700 m 1
 246 700 l 1
 246 0 l 1
 74 0 l 1
 74 700 l 1
-8 932 m 1
 108 985 l 1
 258 825 l 1
 172 782 l 1
 -8 932 l 1
EndSplineSet
EndChar

StartChar: Iacute
Encoding: 205 205 198
Width: 320
VWidth: 0
Flags: HMW
LayerCount: 2
Fore
SplineSet
74 700 m 1
 246 700 l 1
 246 0 l 1
 74 0 l 1
 74 700 l 1
312 932 m 1
 132 782 l 1
 47 825 l 1
 197 985 l 1
 312 932 l 1
EndSplineSet
EndChar

StartChar: Icircumflex
Encoding: 206 206 199
Width: 320
VWidth: 0
Flags: HMW
LayerCount: 2
Fore
SplineSet
74 700 m 1
 246 700 l 1
 246 0 l 1
 74 0 l 1
 74 700 l 1
160 862 m 1
 69 776 l 1
 -38 848 l 1
 160 988 l 1
 357 848 l 1
 251 776 l 1
 160 862 l 1
EndSplineSet
EndChar

StartChar: Idieresis
Encoding: 207 207 200
Width: 320
VWidth: 0
Flags: HMW
LayerCount: 2
Fore
SplineSet
74 700 m 1
 246 700 l 1
 246 0 l 1
 74 0 l 1
 74 700 l 1
194 858 m 0
 194 906 233 940 282 940 c 0
 331 940 370 906 370 858 c 0
 370 810 331 776 282 776 c 0
 233 776 194 810 194 858 c 0
-50 858 m 0
 -50 906 -11 940 38 940 c 0
 87 940 127 906 127 858 c 0
 127 810 87 776 38 776 c 0
 -11 776 -50 810 -50 858 c 0
EndSplineSet
EndChar

StartChar: Ntilde
Encoding: 209 209 201
Width: 793
VWidth: 0
Flags: HMW
LayerCount: 2
Fore
SplineSet
557 700 m 1
 720 700 l 1
 720 -35 l 1
 237 393 l 1
 237 0 l 1
 74 0 l 1
 74 735 l 1
 557 307 l 1
 557 700 l 1
171 833 m 1
 181 882 227 928 291 928 c 0
 357 928 371 876 427 876 c 0
 452 876 473 897 493 929 c 1
 564 854 l 1
 548 817 492 769 430 769 c 0
 375 769 339 822 290 822 c 0
 252 822 243 786 243 771 c 1
 171 833 l 1
EndSplineSet
EndChar

StartChar: Eth
Encoding: 208 208 202
Width: 733
VWidth: 0
Flags: HMW
LayerCount: 2
Fore
SplineSet
6 302 m 1
 6 402 l 1
 356 402 l 1
 356 302 l 1
 6 302 l 1
74 700 m 1
 249 700 l 1
 249 0 l 1
 74 0 l 1
 74 700 l 1
324 0 m 2
 186 0 l 1
 186 151 l 1
 318 151 l 2
 426 151 524 200 524 350 c 0
 524 500 426 549 318 549 c 2
 186 549 l 1
 186 700 l 1
 324 700 l 2
 553 700 699 565 699 350 c 0
 699 135 553 0 324 0 c 2
EndSplineSet
EndChar

StartChar: Ograve
Encoding: 210 210 203
Width: 821
VWidth: 0
Flags: HMW
LayerCount: 2
Fore
SplineSet
213 350 m 0
 213 226 292 139 411 139 c 0
 530 139 608 226 608 350 c 0
 608 474 533 561 411 561 c 0
 292 561 213 474 213 350 c 0
34 350 m 0
 34 566 198 716 411 716 c 0
 627 716 788 566 788 350 c 0
 788 134 631 -22 411 -22 c 0
 191 -22 34 134 34 350 c 0
262 932 m 1
 378 985 l 1
 528 825 l 1
 442 782 l 1
 262 932 l 1
EndSplineSet
EndChar

StartChar: Oacute
Encoding: 211 211 204
Width: 821
VWidth: 0
Flags: HMW
LayerCount: 2
Fore
SplineSet
213 350 m 0
 213 226 292 139 411 139 c 0
 530 139 608 226 608 350 c 0
 608 474 533 561 411 561 c 0
 292 561 213 474 213 350 c 0
34 350 m 0
 34 566 198 716 411 716 c 0
 627 716 788 566 788 350 c 0
 788 134 631 -22 411 -22 c 0
 191 -22 34 134 34 350 c 0
574 932 m 1
 394 782 l 1
 309 825 l 1
 459 985 l 1
 574 932 l 1
EndSplineSet
EndChar

StartChar: Ocircumflex
Encoding: 212 212 205
Width: 821
VWidth: 0
Flags: HMW
LayerCount: 2
Fore
SplineSet
213 350 m 0
 213 226 292 139 411 139 c 0
 530 139 608 226 608 350 c 0
 608 474 533 561 411 561 c 0
 292 561 213 474 213 350 c 0
34 350 m 0
 34 566 198 716 411 716 c 0
 627 716 788 566 788 350 c 0
 788 134 631 -22 411 -22 c 0
 191 -22 34 134 34 350 c 0
420 884 m 1
 310 789 l 1
 260 829 l 1
 420 969 l 1
 580 829 l 1
 530 789 l 1
 420 884 l 1
EndSplineSet
EndChar

StartChar: Otilde
Encoding: 213 213 206
Width: 821
VWidth: 0
Flags: HMW
LayerCount: 2
Fore
SplineSet
213 350 m 0
 213 226 292 139 411 139 c 0
 530 139 608 226 608 350 c 0
 608 474 533 561 411 561 c 0
 292 561 213 474 213 350 c 0
34 350 m 0
 34 566 198 716 411 716 c 0
 627 716 788 566 788 350 c 0
 788 134 631 -22 411 -22 c 0
 191 -22 34 134 34 350 c 0
249 842 m 1
 259 891 308 924 353 924 c 0
 418 924 423 877 477 877 c 0
 496 877 513 893 533 925 c 1
 579 882 l 1
 563 845 523 809 473 809 c 0
 418 809 397 856 352 856 c 0
 311 856 302 820 302 805 c 1
 249 842 l 1
EndSplineSet
EndChar

StartChar: Odieresis
Encoding: 214 214 207
Width: 821
VWidth: 0
Flags: HMW
LayerCount: 2
Fore
SplineSet
213 350 m 0
 213 226 292 139 411 139 c 0
 530 139 608 226 608 350 c 0
 608 474 533 561 411 561 c 0
 292 561 213 474 213 350 c 0
34 350 m 0
 34 566 198 716 411 716 c 0
 627 716 788 566 788 350 c 0
 788 134 631 -22 411 -22 c 0
 191 -22 34 134 34 350 c 0
444 858 m 0
 444 906 483 940 532 940 c 0
 581 940 621 906 621 858 c 0
 621 810 581 776 532 776 c 0
 483 776 444 810 444 858 c 0
201 858 m 0
 201 906 240 940 289 940 c 0
 338 940 377 906 377 858 c 0
 377 810 338 776 289 776 c 0
 240 776 201 810 201 858 c 0
EndSplineSet
EndChar

StartChar: Ugrave
Encoding: 217 217 208
Width: 701
VWidth: 0
Flags: HMW
LayerCount: 2
Fore
SplineSet
69 700 m 1
 238 700 l 1
 238 242 l 2
 238 171 275 123 350 123 c 0
 425 123 463 171 463 242 c 2
 463 700 l 1
 632 700 l 1
 632 230 l 2
 632 54 508 -29 350 -29 c 0
 192 -29 69 54 69 230 c 2
 69 700 l 1
189 926 m 1
 305 979 l 1
 455 819 l 1
 369 776 l 1
 189 926 l 1
EndSplineSet
EndChar

StartChar: Uacute
Encoding: 218 218 209
Width: 701
VWidth: 0
Flags: HMW
LayerCount: 2
Fore
SplineSet
69 700 m 1
 238 700 l 1
 238 242 l 2
 238 171 275 123 350 123 c 0
 425 123 463 171 463 242 c 2
 463 700 l 1
 632 700 l 1
 632 230 l 2
 632 54 508 -29 350 -29 c 0
 192 -29 69 54 69 230 c 2
 69 700 l 1
512 926 m 1
 332 776 l 1
 246 819 l 1
 396 979 l 1
 512 926 l 1
EndSplineSet
EndChar

StartChar: Ucircumflex
Encoding: 219 219 210
Width: 701
VWidth: 0
Flags: HMW
LayerCount: 2
Fore
SplineSet
69 700 m 1
 238 700 l 1
 238 242 l 2
 238 171 275 123 350 123 c 0
 425 123 463 171 463 242 c 2
 463 700 l 1
 632 700 l 1
 632 230 l 2
 632 54 508 -29 350 -29 c 0
 192 -29 69 54 69 230 c 2
 69 700 l 1
350 862 m 1
 259 776 l 1
 153 848 l 1
 350 988 l 1
 548 848 l 1
 442 776 l 1
 350 862 l 1
EndSplineSet
EndChar

StartChar: Udieresis
Encoding: 220 220 211
Width: 701
VWidth: 0
Flags: HMW
LayerCount: 2
Fore
SplineSet
69 700 m 1
 238 700 l 1
 238 242 l 2
 238 171 275 123 350 123 c 0
 425 123 463 171 463 242 c 2
 463 700 l 1
 632 700 l 1
 632 230 l 2
 632 54 508 -29 350 -29 c 0
 192 -29 69 54 69 230 c 2
 69 700 l 1
403 858 m 0
 403 906 442 940 491 940 c 0
 540 940 579 906 579 858 c 0
 579 810 540 776 491 776 c 0
 442 776 403 810 403 858 c 0
122 858 m 0
 122 906 161 940 210 940 c 0
 259 940 298 906 298 858 c 0
 298 810 259 776 210 776 c 0
 161 776 122 810 122 858 c 0
EndSplineSet
EndChar

StartChar: Yacute
Encoding: 221 221 212
Width: 660
VWidth: 0
Flags: HMW
LayerCount: 2
Fore
SplineSet
491 926 m 1
 311 776 l 1
 226 819 l 1
 376 979 l 1
 491 926 l 1
467 700 m 1
 662 700 l 1
 417 285 l 1
 417 0 l 1
 244 0 l 1
 244 284 l 1
 -1 700 l 1
 194 700 l 1
 330 437 l 1
 467 700 l 1
EndSplineSet
EndChar

StartChar: agrave
Encoding: 224 224 213
Width: 544
VWidth: 0
Flags: HMW
LayerCount: 2
Fore
SplineSet
177 138 m 0
 177 105 202 89 242 89 c 0
 297 89 345 112 345 186 c 1
 361 130 l 1
 361 41 286 -10 191 -10 c 0
 90 -10 24 41 24 128 c 0
 24 222 106 279 223 279 c 0
 292 279 358 251 378 230 c 1
 378 159 l 1
 344 185 310 197 258 197 c 0
 206 197 177 174 177 138 c 0
117 318 m 1
 66 420 l 1
 119 445 193 473 276 473 c 0
 400 473 491 419 491 324 c 2
 491 0 l 1
 345 0 l 1
 345 294 l 2
 345 333 314 358 264 358 c 0
 198 358 139 331 117 318 c 1
104 683 m 1
 219 736 l 1
 369 576 l 1
 284 533 l 1
 104 683 l 1
EndSplineSet
Substitution2: "alt a" agrave.alt
EndChar

StartChar: aacute
Encoding: 225 225 214
Width: 544
VWidth: 0
Flags: HMW
LayerCount: 2
Fore
SplineSet
177 138 m 0
 177 105 202 89 242 89 c 0
 297 89 345 112 345 186 c 1
 361 130 l 1
 361 41 286 -10 191 -10 c 0
 90 -10 24 41 24 128 c 0
 24 222 106 279 223 279 c 0
 292 279 358 251 378 230 c 1
 378 159 l 1
 344 185 310 197 258 197 c 0
 206 197 177 174 177 138 c 0
117 318 m 1
 66 420 l 1
 119 445 193 473 276 473 c 0
 400 473 491 419 491 324 c 2
 491 0 l 1
 345 0 l 1
 345 294 l 2
 345 333 314 358 264 358 c 0
 198 358 139 331 117 318 c 1
449 683 m 1
 269 533 l 1
 183 576 l 1
 333 736 l 1
 449 683 l 1
EndSplineSet
Substitution2: "alt a" aacute.alt
EndChar

StartChar: acircumflex
Encoding: 226 226 215
Width: 544
VWidth: 0
Flags: HMW
LayerCount: 2
Fore
SplineSet
177 138 m 0
 177 105 202 89 242 89 c 0
 297 89 345 112 345 186 c 1
 361 130 l 1
 361 41 286 -10 191 -10 c 0
 90 -10 24 41 24 128 c 0
 24 222 106 279 223 279 c 0
 292 279 358 251 378 230 c 1
 378 159 l 1
 344 185 310 197 258 197 c 0
 206 197 177 174 177 138 c 0
117 318 m 1
 66 420 l 1
 119 445 193 473 276 473 c 0
 400 473 491 419 491 324 c 2
 491 0 l 1
 345 0 l 1
 345 294 l 2
 345 333 314 358 264 358 c 0
 198 358 139 331 117 318 c 1
276 619 m 1
 185 533 l 1
 79 604 l 1
 276 744 l 1
 474 604 l 1
 367 533 l 1
 276 619 l 1
EndSplineSet
Substitution2: "alt a" acircumflex.alt
EndChar

StartChar: atilde
Encoding: 227 227 216
Width: 544
VWidth: 0
Flags: HMW
LayerCount: 2
Fore
SplineSet
177 138 m 0
 177 105 202 89 242 89 c 0
 297 89 345 112 345 186 c 1
 361 130 l 1
 361 41 286 -10 191 -10 c 0
 90 -10 24 41 24 128 c 0
 24 222 106 279 223 279 c 0
 292 279 358 251 378 230 c 1
 378 159 l 1
 344 185 310 197 258 197 c 0
 206 197 177 174 177 138 c 0
117 318 m 1
 66 420 l 1
 119 445 193 473 276 473 c 0
 400 473 491 419 491 324 c 2
 491 0 l 1
 345 0 l 1
 345 294 l 2
 345 333 314 358 264 358 c 0
 198 358 139 331 117 318 c 1
80 599 m 1
 90 648 136 693 200 693 c 0
 266 693 280 641 336 641 c 0
 361 641 381 662 401 694 c 1
 472 620 l 1
 456 583 400 535 338 535 c 0
 283 535 247 588 198 588 c 0
 160 588 152 552 152 537 c 1
 80 599 l 1
EndSplineSet
Substitution2: "alt a" atilde.alt
EndChar

StartChar: adieresis
Encoding: 228 228 217
Width: 544
VWidth: 0
Flags: HMW
LayerCount: 2
Fore
SplineSet
177 138 m 0
 177 105 202 89 242 89 c 0
 297 89 345 112 345 186 c 1
 361 130 l 1
 361 41 286 -10 191 -10 c 0
 90 -10 24 41 24 128 c 0
 24 222 106 279 223 279 c 0
 292 279 358 251 378 230 c 1
 378 159 l 1
 344 185 310 197 258 197 c 0
 206 197 177 174 177 138 c 0
117 318 m 1
 66 420 l 1
 119 445 193 473 276 473 c 0
 400 473 491 419 491 324 c 2
 491 0 l 1
 345 0 l 1
 345 294 l 2
 345 333 314 358 264 358 c 0
 198 358 139 331 117 318 c 1
310 615 m 0
 310 663 349 697 398 697 c 0
 447 697 486 663 486 615 c 0
 486 567 447 533 398 533 c 0
 349 533 310 567 310 615 c 0
66 615 m 0
 66 663 105 697 154 697 c 0
 203 697 242 663 242 615 c 0
 242 567 203 533 154 533 c 0
 105 533 66 567 66 615 c 0
EndSplineSet
Substitution2: "alt a" adieresis.alt
EndChar

StartChar: aring
Encoding: 229 229 218
Width: 544
VWidth: 0
Flags: HMW
LayerCount: 2
Fore
SplineSet
177 138 m 0
 177 105 202 89 242 89 c 0
 297 89 345 112 345 186 c 1
 361 130 l 1
 361 41 286 -10 191 -10 c 0
 90 -10 24 41 24 128 c 0
 24 222 106 279 223 279 c 0
 292 279 358 251 378 230 c 1
 378 159 l 1
 344 185 310 197 258 197 c 0
 206 197 177 174 177 138 c 0
117 318 m 1
 66 420 l 1
 119 445 193 473 276 473 c 0
 400 473 491 419 491 324 c 2
 491 0 l 1
 345 0 l 1
 345 294 l 2
 345 333 314 358 264 358 c 0
 198 358 139 331 117 318 c 1
151 649 m 0
 151 718 206 764 276 764 c 0
 346 764 401 718 401 649 c 0
 401 580 346 533 276 533 c 0
 206 533 151 580 151 649 c 0
230 649 m 0
 230 619 251 601 276 601 c 0
 301 601 322 619 322 649 c 0
 322 679 301 697 276 697 c 0
 251 697 230 679 230 649 c 0
EndSplineSet
Substitution2: "alt a" aring.alt
EndChar

StartChar: germandbls
Encoding: 223 223 219
Width: 603
VWidth: 0
Flags: HMW
LayerCount: 2
Fore
SplineSet
373 -12 m 0
 320 -12 266 5 232 28 c 1
 263 144 l 1
 291 124 328 110 360 110 c 0
 411 110 446 145 446 192 c 0
 446 289 294 292 294 386 c 0
 294 459 384 493 384 582 c 0
 384 637 347 662 295 662 c 0
 233 662 197 627 197 550 c 2
 199 -2 l 1
 46 -2 l 1
 46 552 l 2
 46 708 139 797 300 797 c 0
 434 797 541 732 541 611 c 0
 541 487 454 460 454 401 c 0
 454 337 604 336 604 193 c 0
 604 79 491 -12 373 -12 c 0
EndSplineSet
EndChar

StartChar: ae
Encoding: 230 230 220
Width: 896
VWidth: 0
Flags: HMW
LayerCount: 2
Fore
SplineSet
217 -10 m 0
 95 -10 24 41 24 128 c 0
 24 218 104 279 223 279 c 0
 281 279 330 265 416 224 c 1
 345 224 l 1
 345 282 l 2
 345 331 317 358 264 358 c 0
 220 358 155 340 117 318 c 1
 66 420 l 1
 141 456 209 473 276 473 c 0
 374 473 427 436 437 360 c 1
 425 360 l 1
 467 432 541 470 636 470 c 0
 778 470 862 383 862 237 c 0
 862 221 861 204 860 198 c 1
 488 198 l 1
 508 216 l 1
 512 139 548 99 614 99 c 0
 664 99 706 121 728 159 c 1
 863 126 l 1
 812 35 732 -10 616 -10 c 0
 511 -10 446 26 412 103 c 1
 424 102 l 1
 403 30 327 -10 217 -10 c 0
242 89 m 0
 308 89 345 122 349 186 c 1
 349 134 l 1
 344 195 l 1
 366 168 l 1
 334 187 296 197 258 197 c 0
 204 197 177 178 177 138 c 0
 177 105 197 89 242 89 c 0
507 236 m 1
 488 282 l 1
 722 282 l 1
 699 250 l 1
 701 258 701 259 701 266 c 0
 701 332 668 369 610 369 c 0
 544 369 507 322 507 236 c 1
EndSplineSet
EndChar

StartChar: ccedilla
Encoding: 231 231 221
Width: 493
VWidth: 0
Flags: HMW
LayerCount: 2
Fore
SplineSet
186 230 m 0
 186 156 241 111 309 111 c 0
 364 111 417 135 444 179 c 1
 444 32 l 1
 412 6 365 -10 296 -10 c 0
 142 -10 30 85 30 230 c 0
 30 375 142 470 296 470 c 0
 365 470 412 453 444 430 c 1
 444 282 l 1
 417 326 358 349 309 349 c 0
 241 349 186 298 186 230 c 0
237 61 m 1
 347 57 l 1
 261 -65 l 1
 272 -62 285 -61 298 -61 c 0
 338 -61 389 -93 389 -159 c 0
 389 -231 321 -268 258 -268 c 0
 202 -268 161 -259 114 -229 c 1
 160 -160 l 1
 185 -178 218 -185 238 -185 c 0
 272 -185 292 -174 292 -150 c 0
 292 -124 263 -118 232 -118 c 0
 222 -118 185 -120 150 -134 c 1
 237 61 l 1
EndSplineSet
EndChar

StartChar: egrave
Encoding: 232 232 222
Width: 573
VWidth: 0
Flags: HMW
LayerCount: 2
Fore
SplineSet
117 198 m 1
 117 282 l 1
 377 282 l 1
 370 337 342 369 288 369 c 0
 227 369 187 328 187 254 c 1
 185 230 l 1
 185 136 232 99 291 99 c 0
 345 99 383 121 405 159 c 1
 541 126 l 1
 495 44 426 -10 294 -10 c 0
 125 -10 32 91 32 230 c 0
 32 247 33 263 36 279 c 0
 55 392 141 470 291 470 c 0
 452 470 539 382 539 237 c 0
 539 229 540 214 538 198 c 1
 117 198 l 1
126 684 m 1
 242 737 l 1
 392 577 l 1
 306 534 l 1
 126 684 l 1
EndSplineSet
EndChar

StartChar: eacute
Encoding: 233 233 223
Width: 573
VWidth: 0
Flags: HMW
LayerCount: 2
Fore
SplineSet
117 198 m 1
 117 282 l 1
 377 282 l 1
 370 337 342 369 288 369 c 0
 227 369 187 328 187 254 c 1
 185 230 l 1
 185 136 232 99 291 99 c 0
 345 99 383 121 405 159 c 1
 541 126 l 1
 495 44 426 -10 294 -10 c 0
 125 -10 32 91 32 230 c 0
 32 247 33 263 36 279 c 0
 55 392 141 470 291 470 c 0
 452 470 539 382 539 237 c 0
 539 229 540 214 538 198 c 1
 117 198 l 1
464 684 m 1
 284 534 l 1
 198 577 l 1
 348 737 l 1
 464 684 l 1
EndSplineSet
EndChar

StartChar: ecircumflex
Encoding: 234 234 224
Width: 573
VWidth: 0
Flags: HMW
LayerCount: 2
Fore
SplineSet
117 198 m 1
 117 282 l 1
 377 282 l 1
 370 337 342 369 288 369 c 0
 227 369 187 328 187 254 c 1
 185 230 l 1
 185 136 232 99 291 99 c 0
 345 99 383 121 405 159 c 1
 541 126 l 1
 495 44 426 -10 294 -10 c 0
 125 -10 32 91 32 230 c 0
 32 247 33 263 36 279 c 0
 55 392 141 470 291 470 c 0
 452 470 539 382 539 237 c 0
 539 229 540 214 538 198 c 1
 117 198 l 1
291 616 m 1
 200 531 l 1
 94 602 l 1
 291 742 l 1
 489 602 l 1
 382 531 l 1
 291 616 l 1
EndSplineSet
EndChar

StartChar: edieresis
Encoding: 235 235 225
Width: 573
VWidth: 0
Flags: HMW
LayerCount: 2
Fore
SplineSet
117 198 m 1
 117 282 l 1
 377 282 l 1
 370 337 342 369 288 369 c 0
 227 369 187 328 187 254 c 1
 185 230 l 1
 185 136 232 99 291 99 c 0
 345 99 383 121 405 159 c 1
 541 126 l 1
 495 44 426 -10 294 -10 c 0
 125 -10 32 91 32 230 c 0
 32 247 33 263 36 279 c 0
 55 392 141 470 291 470 c 0
 452 470 539 382 539 237 c 0
 539 229 540 214 538 198 c 1
 117 198 l 1
325 612 m 0
 325 660 364 694 413 694 c 0
 462 694 501 660 501 612 c 0
 501 564 462 531 413 531 c 0
 364 531 325 564 325 612 c 0
81 612 m 0
 81 660 120 694 169 694 c 0
 218 694 257 660 257 612 c 0
 257 564 218 531 169 531 c 0
 120 531 81 564 81 612 c 0
EndSplineSet
EndChar

StartChar: igrave
Encoding: 236 236 226
Width: 276
VWidth: 0
Flags: HMW
LayerCount: 2
Fore
SplineSet
64 460 m 1
 211 460 l 1
 211 0 l 1
 64 0 l 1
 64 460 l 1
-42 688 m 1
 73 741 l 1
 223 581 l 1
 138 538 l 1
 -42 688 l 1
EndSplineSet
EndChar

StartChar: dotlessi
Encoding: 305 305 227
Width: 276
VWidth: 0
Flags: HMW
LayerCount: 2
Fore
SplineSet
64 460 m 1
 211 460 l 1
 211 0 l 1
 64 0 l 1
 64 460 l 1
EndSplineSet
EndChar

StartChar: kgreenlandic
Encoding: 312 312 228
Width: 577
VWidth: 0
Flags: HMW
LayerCount: 2
Fore
SplineSet
58 460 m 1
 203 460 l 1
 203 0 l 1
 58 0 l 1
 58 460 l 1
371 460 m 1
 551 460 l 1
 354 270 l 1
 571 0 l 1
 393 0 l 1
 174 270 l 1
 371 460 l 1
EndSplineSet
EndChar

StartChar: iacute
Encoding: 237 237 229
Width: 276
VWidth: 0
Flags: HMW
LayerCount: 2
Fore
SplineSet
64 460 m 1
 211 460 l 1
 211 0 l 1
 64 0 l 1
 64 460 l 1
310 688 m 1
 130 538 l 1
 44 581 l 1
 194 741 l 1
 310 688 l 1
EndSplineSet
EndChar

StartChar: icircumflex
Encoding: 238 238 230
Width: 276
VWidth: 0
Flags: HMW
LayerCount: 2
Fore
SplineSet
64 460 m 1
 211 460 l 1
 211 0 l 1
 64 0 l 1
 64 460 l 1
138 620 m 1
 46 534 l 1
 -60 606 l 1
 138 746 l 1
 335 606 l 1
 229 534 l 1
 138 620 l 1
EndSplineSet
EndChar

StartChar: idieresis
Encoding: 239 239 231
Width: 276
VWidth: 0
Flags: HMW
LayerCount: 2
Fore
SplineSet
64 460 m 1
 211 460 l 1
 211 0 l 1
 64 0 l 1
 64 460 l 1
172 624 m 0
 172 672 211 706 260 706 c 0
 309 706 348 672 348 624 c 0
 348 576 309 542 260 542 c 0
 211 542 172 576 172 624 c 0
-72 624 m 0
 -72 672 -33 706 16 706 c 0
 65 706 104 672 104 624 c 0
 104 576 65 542 16 542 c 0
 -33 542 -72 576 -72 624 c 0
EndSplineSet
EndChar

StartChar: ntilde
Encoding: 241 241 232
Width: 575
VWidth: 0
Flags: HMW
LayerCount: 2
Fore
SplineSet
211 460 m 1
 211 0 l 1
 59 0 l 1
 59 460 l 1
 211 460 l 1
358 280 m 2
 358 334 340 364 291 364 c 0
 243 364 211 334 211 280 c 1
 182 274 l 1
 182 383 237 471 351 471 c 0
 465 471 516 409 516 296 c 2
 516 0 l 1
 358 0 l 1
 358 280 l 2
92 596 m 1
 102 645 147 691 211 691 c 0
 277 691 291 639 347 639 c 0
 372 639 393 660 413 692 c 1
 484 618 l 1
 468 581 412 532 350 532 c 0
 295 532 259 585 210 585 c 0
 172 585 163 549 163 534 c 1
 92 596 l 1
EndSplineSet
EndChar

StartChar: ograve
Encoding: 242 242 233
Width: 589
VWidth: 0
Flags: HMW
LayerCount: 2
Fore
SplineSet
32 230 m 0
 32 375 144 471 295 471 c 0
 446 471 558 375 558 230 c 0
 558 85 446 -10 295 -10 c 0
 144 -10 32 85 32 230 c 0
188 230 m 0
 188 159 236 115 295 115 c 0
 354 115 402 159 402 230 c 0
 402 301 354 346 295 346 c 0
 236 346 188 301 188 230 c 0
135 688 m 1
 250 741 l 1
 400 581 l 1
 315 538 l 1
 135 688 l 1
EndSplineSet
EndChar

StartChar: oacute
Encoding: 243 243 234
Width: 589
VWidth: 0
Flags: HMW
LayerCount: 2
Fore
SplineSet
32 230 m 0
 32 375 144 471 295 471 c 0
 446 471 558 375 558 230 c 0
 558 85 446 -10 295 -10 c 0
 144 -10 32 85 32 230 c 0
188 230 m 0
 188 159 236 115 295 115 c 0
 354 115 402 159 402 230 c 0
 402 301 354 346 295 346 c 0
 236 346 188 301 188 230 c 0
455 688 m 1
 275 538 l 1
 189 581 l 1
 339 741 l 1
 455 688 l 1
EndSplineSet
EndChar

StartChar: ocircumflex
Encoding: 244 244 235
Width: 589
VWidth: 0
Flags: HMW
LayerCount: 2
Fore
SplineSet
32 230 m 0
 32 375 144 471 295 471 c 0
 446 471 558 375 558 230 c 0
 558 85 446 -10 295 -10 c 0
 144 -10 32 85 32 230 c 0
188 230 m 0
 188 159 236 115 295 115 c 0
 354 115 402 159 402 230 c 0
 402 301 354 346 295 346 c 0
 236 346 188 301 188 230 c 0
295 624 m 1
 204 538 l 1
 97 609 l 1
 295 749 l 1
 492 609 l 1
 386 538 l 1
 295 624 l 1
EndSplineSet
EndChar

StartChar: otilde
Encoding: 245 245 236
Width: 589
VWidth: 0
Flags: HMW
LayerCount: 2
Fore
SplineSet
32 230 m 0
 32 375 144 471 295 471 c 0
 446 471 558 375 558 230 c 0
 558 85 446 -10 295 -10 c 0
 144 -10 32 85 32 230 c 0
188 230 m 0
 188 159 236 115 295 115 c 0
 354 115 402 159 402 230 c 0
 402 301 354 346 295 346 c 0
 236 346 188 301 188 230 c 0
99 596 m 1
 109 645 154 691 218 691 c 0
 284 691 299 639 355 639 c 0
 380 639 400 660 420 692 c 1
 491 618 l 1
 475 581 419 532 357 532 c 0
 302 532 266 585 217 585 c 0
 179 585 170 549 170 534 c 1
 99 596 l 1
EndSplineSet
EndChar

StartChar: odieresis
Encoding: 246 246 237
Width: 589
VWidth: 0
Flags: HMW
LayerCount: 2
Fore
SplineSet
32 230 m 0
 32 375 144 471 295 471 c 0
 446 471 558 375 558 230 c 0
 558 85 446 -10 295 -10 c 0
 144 -10 32 85 32 230 c 0
188 230 m 0
 188 159 236 115 295 115 c 0
 354 115 402 159 402 230 c 0
 402 301 354 346 295 346 c 0
 236 346 188 301 188 230 c 0
329 624 m 0
 329 672 368 706 417 706 c 0
 466 706 505 672 505 624 c 0
 505 576 466 542 417 542 c 0
 368 542 329 576 329 624 c 0
85 624 m 0
 85 672 124 706 173 706 c 0
 222 706 261 672 261 624 c 0
 261 576 222 542 173 542 c 0
 124 542 85 576 85 624 c 0
EndSplineSet
EndChar

StartChar: ugrave
Encoding: 249 249 238
Width: 575
VWidth: 0
Flags: HMW
LayerCount: 2
Fore
SplineSet
364 0 m 1
 364 460 l 1
 516 460 l 1
 516 0 l 1
 364 0 l 1
218 180 m 2
 218 126 235 96 284 96 c 0
 332 96 364 126 364 180 c 1
 394 186 l 1
 394 77 338 -11 224 -11 c 0
 110 -11 59 51 59 164 c 2
 59 460 l 1
 218 460 l 1
 218 180 l 2
142 688 m 1
 258 741 l 1
 408 581 l 1
 322 538 l 1
 142 688 l 1
EndSplineSet
EndChar

StartChar: uacute
Encoding: 250 250 239
Width: 575
VWidth: 0
Flags: HMW
LayerCount: 2
Fore
SplineSet
364 0 m 1
 364 460 l 1
 516 460 l 1
 516 0 l 1
 364 0 l 1
218 180 m 2
 218 126 235 96 284 96 c 0
 332 96 364 126 364 180 c 1
 394 186 l 1
 394 77 338 -11 224 -11 c 0
 110 -11 59 51 59 164 c 2
 59 460 l 1
 218 460 l 1
 218 180 l 2
432 688 m 1
 252 538 l 1
 167 581 l 1
 317 741 l 1
 432 688 l 1
EndSplineSet
EndChar

StartChar: ucircumflex
Encoding: 251 251 240
Width: 575
VWidth: 0
Flags: HMW
LayerCount: 2
Fore
SplineSet
364 0 m 1
 364 460 l 1
 516 460 l 1
 516 0 l 1
 364 0 l 1
218 180 m 2
 218 126 235 96 284 96 c 0
 332 96 364 126 364 180 c 1
 394 186 l 1
 394 77 338 -11 224 -11 c 0
 110 -11 59 51 59 164 c 2
 59 460 l 1
 218 460 l 1
 218 180 l 2
287 624 m 1
 196 538 l 1
 90 609 l 1
 287 749 l 1
 484 609 l 1
 378 538 l 1
 287 624 l 1
EndSplineSet
EndChar

StartChar: udieresis
Encoding: 252 252 241
Width: 575
VWidth: 0
Flags: HMW
LayerCount: 2
Fore
SplineSet
364 0 m 1
 364 460 l 1
 516 460 l 1
 516 0 l 1
 364 0 l 1
218 180 m 2
 218 126 235 96 284 96 c 0
 332 96 364 126 364 180 c 1
 394 186 l 1
 394 77 338 -11 224 -11 c 0
 110 -11 59 51 59 164 c 2
 59 460 l 1
 218 460 l 1
 218 180 l 2
322 620 m 0
 322 668 361 702 410 702 c 0
 459 702 498 668 498 620 c 0
 498 572 459 538 410 538 c 0
 361 538 322 572 322 620 c 0
78 620 m 0
 78 668 117 702 166 702 c 0
 215 702 254 668 254 620 c 0
 254 572 215 538 166 538 c 0
 117 538 78 572 78 620 c 0
EndSplineSet
EndChar

StartChar: yacute
Encoding: 253 253 242
Width: 521
VWidth: 0
Flags: HMW
LayerCount: 2
Fore
SplineSet
531 460 m 1
 231 -220 l 1
 78 -220 l 1
 190 37 l 1
 -9 460 l 1
 158 460 l 1
 306 91 l 1
 228 92 l 1
 375 460 l 1
 531 460 l 1
422 688 m 1
 242 538 l 1
 156 581 l 1
 306 741 l 1
 422 688 l 1
EndSplineSet
EndChar

StartChar: thorn
Encoding: 254 254 243
Width: 616
VWidth: 0
Flags: HMW
LayerCount: 2
Fore
SplineSet
209 -220 m 1
 58 -220 l 1
 58 780 l 1
 209 780 l 1
 209 -220 l 1
585 230 m 0
 585 75 478 -10 366 -10 c 0
 251 -10 167 81 167 230 c 0
 167 379 251 470 366 470 c 0
 478 470 585 385 585 230 c 0
426 230 m 0
 426 302 376 348 316 348 c 0
 265 348 209 305 209 230 c 0
 209 155 265 112 316 112 c 0
 376 112 426 158 426 230 c 0
EndSplineSet
EndChar

StartChar: ydieresis
Encoding: 255 255 244
Width: 521
VWidth: 0
Flags: HMW
LayerCount: 2
Fore
SplineSet
531 460 m 1
 231 -220 l 1
 78 -220 l 1
 190 37 l 1
 -9 460 l 1
 158 460 l 1
 306 91 l 1
 228 92 l 1
 375 460 l 1
 531 460 l 1
294 612 m 0
 294 660 333 694 382 694 c 0
 431 694 471 660 471 612 c 0
 471 564 431 531 382 531 c 0
 333 531 294 564 294 612 c 0
51 612 m 0
 51 660 90 694 139 694 c 0
 188 694 227 660 227 612 c 0
 227 564 188 531 139 531 c 0
 90 531 51 564 51 612 c 0
EndSplineSet
EndChar

StartChar: Amacron
Encoding: 256 256 245
Width: 735
VWidth: 0
Flags: HMW
LayerCount: 2
Fore
SplineSet
184 135 m 1
 196 264 l 1
 543 264 l 1
 554 135 l 1
 184 135 l 1
368 442 m 1
 270 217 l 1
 277 179 l 1
 191 0 l 1
 -1 0 l 1
 368 744 l 1
 736 0 l 1
 544 0 l 1
 460 172 l 1
 466 216 l 1
 368 442 l 1
182 804 m 1
 182 936 l 1
 553 936 l 1
 553 804 l 1
 182 804 l 1
EndSplineSet
EndChar

StartChar: amacron
Encoding: 257 257 246
Width: 544
VWidth: 0
Flags: HMW
LayerCount: 2
Fore
SplineSet
177 138 m 0
 177 105 202 89 242 89 c 0
 297 89 345 112 345 186 c 1
 361 130 l 1
 361 41 286 -10 191 -10 c 0
 90 -10 24 41 24 128 c 0
 24 222 106 279 223 279 c 0
 292 279 358 251 378 230 c 1
 378 159 l 1
 344 185 310 197 258 197 c 0
 206 197 177 174 177 138 c 0
117 318 m 1
 66 420 l 1
 119 445 193 473 276 473 c 0
 400 473 491 419 491 324 c 2
 491 0 l 1
 345 0 l 1
 345 294 l 2
 345 333 314 358 264 358 c 0
 198 358 139 331 117 318 c 1
90 541 m 1
 90 672 l 1
 462 672 l 1
 462 541 l 1
 90 541 l 1
EndSplineSet
Substitution2: "alt a" amacron.alt
EndChar

StartChar: breve
Encoding: 728 728 247
Width: 546
VWidth: 0
Flags: HMW
LayerCount: 2
Fore
SplineSet
109 850 m 1
 208 850 l 1
 208 815 234 791 273 791 c 0
 312 791 338 815 338 850 c 1
 437 850 l 1
 437 768 378 704 273 704 c 0
 168 704 109 768 109 850 c 1
EndSplineSet
EndChar

StartChar: Abreve
Encoding: 258 258 248
Width: 735
VWidth: 0
Flags: HMW
LayerCount: 2
Fore
SplineSet
184 135 m 1
 196 264 l 1
 543 264 l 1
 554 135 l 1
 184 135 l 1
368 442 m 1
 270 217 l 1
 277 179 l 1
 191 0 l 1
 -1 0 l 1
 368 744 l 1
 736 0 l 1
 544 0 l 1
 460 172 l 1
 466 216 l 1
 368 442 l 1
203 951 m 1
 302 951 l 1
 302 916 329 891 368 891 c 0
 407 891 433 916 433 951 c 1
 532 951 l 1
 532 869 473 804 368 804 c 0
 263 804 203 869 203 951 c 1
EndSplineSet
EndChar

StartChar: abreve
Encoding: 259 259 249
Width: 544
VWidth: 0
Flags: HMW
LayerCount: 2
Fore
SplineSet
177 138 m 0
 177 105 202 89 242 89 c 0
 297 89 345 112 345 186 c 1
 361 130 l 1
 361 41 286 -10 191 -10 c 0
 90 -10 24 41 24 128 c 0
 24 222 106 279 223 279 c 0
 292 279 358 251 378 230 c 1
 378 159 l 1
 344 185 310 197 258 197 c 0
 206 197 177 174 177 138 c 0
117 318 m 1
 66 420 l 1
 119 445 193 473 276 473 c 0
 400 473 491 419 491 324 c 2
 491 0 l 1
 345 0 l 1
 345 294 l 2
 345 333 314 358 264 358 c 0
 198 358 139 331 117 318 c 1
112 679 m 1
 211 679 l 1
 211 644 237 620 276 620 c 0
 315 620 341 644 341 679 c 1
 440 679 l 1
 440 597 381 533 276 533 c 0
 171 533 112 597 112 679 c 1
EndSplineSet
Substitution2: "alt a" abreve.alt
EndChar

StartChar: Aogonek
Encoding: 260 260 250
Width: 735
VWidth: 0
Flags: HMW
LayerCount: 2
Fore
SplineSet
184 135 m 1
 196 264 l 1
 543 264 l 1
 554 135 l 1
 184 135 l 1
368 442 m 1
 270 217 l 1
 277 179 l 1
 191 0 l 1
 -1 0 l 1
 368 744 l 1
 736 0 l 1
 544 0 l 1
 460 172 l 1
 466 216 l 1
 368 442 l 1
691 -111 m 1
 724 -180 l 1
 709 -200 680 -220 624 -220 c 0
 559 -220 507 -185 507 -120 c 0
 507 -55 575 -11 645 25 c 1
 686 0 l 1
 634 -28 606 -63 606 -94 c 0
 606 -119 617 -131 641 -131 c 0
 661 -131 677 -124 691 -111 c 1
EndSplineSet
EndChar

StartChar: aogonek
Encoding: 261 261 251
Width: 544
VWidth: 0
Flags: HMW
LayerCount: 2
Fore
SplineSet
177 138 m 0
 177 105 206 89 242 89 c 0
 297 89 345 112 345 186 c 1
 361 130 l 1
 361 41 286 -10 191 -10 c 0
 93 -10 24 40 24 131 c 0
 24 222 102 279 223 279 c 0
 292 279 358 251 378 230 c 1
 378 159 l 1
 344 185 310 197 258 197 c 0
 206 197 177 174 177 138 c 0
117 318 m 1
 66 420 l 1
 119 445 193 473 276 473 c 0
 400 473 491 419 491 324 c 2
 491 0 l 1
 345 0 l 1
 345 294 l 2
 345 333 314 358 264 358 c 0
 198 358 139 331 117 318 c 1
464 -111 m 1
 497 -180 l 1
 482 -200 453 -220 397 -220 c 0
 332 -220 280 -185 280 -120 c 0
 280 -55 348 -11 418 25 c 1
 459 0 l 1
 407 -28 379 -63 379 -94 c 0
 379 -119 390 -131 414 -131 c 0
 434 -131 450 -124 464 -111 c 1
EndSplineSet
Substitution2: "alt a" aogonek.alt
EndChar

StartChar: Cacute
Encoding: 262 262 252
Width: 700
VWidth: 0
Flags: HMW
LayerCount: 2
Fore
SplineSet
219 350 m 0
 219 221 315 145 428 145 c 0
 527 145 591 188 637 238 c 1
 637 54 l 1
 581 11 520 -16 418 -16 c 0
 193 -16 34 132 34 350 c 0
 34 568 193 716 418 716 c 0
 520 716 581 689 637 646 c 1
 637 462 l 1
 591 512 527 555 428 555 c 0
 315 555 219 479 219 350 c 0
548 926 m 1
 368 776 l 1
 282 819 l 1
 432 979 l 1
 548 926 l 1
EndSplineSet
EndChar

StartChar: cacute
Encoding: 263 263 253
Width: 493
VWidth: 0
Flags: HMW
LayerCount: 2
Fore
SplineSet
186 230 m 0
 186 156 241 111 309 111 c 0
 364 111 417 135 444 179 c 1
 444 32 l 1
 412 6 365 -10 296 -10 c 0
 142 -10 30 85 30 230 c 0
 30 375 142 470 296 470 c 0
 365 470 412 453 444 430 c 1
 444 282 l 1
 417 326 358 349 309 349 c 0
 241 349 186 298 186 230 c 0
426 681 m 1
 246 531 l 1
 160 573 l 1
 310 733 l 1
 426 681 l 1
EndSplineSet
EndChar

StartChar: Ccircumflex
Encoding: 264 264 254
Width: 700
VWidth: 0
Flags: HMW
LayerCount: 2
Fore
SplineSet
219 350 m 0
 219 221 315 145 428 145 c 0
 527 145 591 188 637 238 c 1
 637 54 l 1
 581 11 520 -16 418 -16 c 0
 193 -16 34 132 34 350 c 0
 34 568 193 716 418 716 c 0
 520 716 581 689 637 646 c 1
 637 462 l 1
 591 512 527 555 428 555 c 0
 315 555 219 479 219 350 c 0
418 862 m 1
 327 776 l 1
 221 848 l 1
 418 988 l 1
 616 848 l 1
 509 776 l 1
 418 862 l 1
EndSplineSet
EndChar

StartChar: ccircumflex
Encoding: 265 265 255
Width: 493
VWidth: 0
Flags: HMW
LayerCount: 2
Fore
SplineSet
186 230 m 0
 186 156 241 111 309 111 c 0
 364 111 417 135 444 179 c 1
 444 32 l 1
 412 6 365 -10 296 -10 c 0
 142 -10 30 85 30 230 c 0
 30 375 142 470 296 470 c 0
 365 470 412 453 444 430 c 1
 444 282 l 1
 417 326 358 349 309 349 c 0
 241 349 186 298 186 230 c 0
265 616 m 1
 174 531 l 1
 67 602 l 1
 265 742 l 1
 462 602 l 1
 356 531 l 1
 265 616 l 1
EndSplineSet
EndChar

StartChar: Cdotaccent
Encoding: 266 266 256
Width: 700
VWidth: 0
Flags: HMW
LayerCount: 2
Fore
SplineSet
219 350 m 0
 219 221 315 145 428 145 c 0
 527 145 591 188 637 238 c 1
 637 54 l 1
 581 11 520 -16 418 -16 c 0
 193 -16 34 132 34 350 c 0
 34 568 193 716 418 716 c 0
 520 716 581 689 637 646 c 1
 637 462 l 1
 591 512 527 555 428 555 c 0
 315 555 219 479 219 350 c 0
305 858 m 0
 305 906 344 940 393 940 c 0
 442 940 481 906 481 858 c 0
 481 810 442 776 393 776 c 0
 344 776 305 810 305 858 c 0
EndSplineSet
EndChar

StartChar: cdotaccent
Encoding: 267 267 257
Width: 493
VWidth: 0
Flags: HMW
LayerCount: 2
Fore
SplineSet
186 230 m 0
 186 156 241 111 309 111 c 0
 364 111 417 135 444 179 c 1
 444 32 l 1
 412 6 365 -10 296 -10 c 0
 142 -10 30 85 30 230 c 0
 30 375 142 470 296 470 c 0
 365 470 412 453 444 430 c 1
 444 282 l 1
 417 326 358 349 309 349 c 0
 241 349 186 298 186 230 c 0
183 619 m 0
 183 667 222 701 271 701 c 0
 320 701 359 667 359 619 c 0
 359 571 320 537 271 537 c 0
 222 537 183 571 183 619 c 0
EndSplineSet
EndChar

StartChar: Ccaron
Encoding: 268 268 258
Width: 700
VWidth: 0
Flags: HMW
LayerCount: 2
Fore
SplineSet
219 350 m 0
 219 221 315 145 428 145 c 0
 527 145 591 188 637 238 c 1
 637 54 l 1
 581 11 520 -16 418 -16 c 0
 193 -16 34 132 34 350 c 0
 34 568 193 716 418 716 c 0
 520 716 581 689 637 646 c 1
 637 462 l 1
 591 512 527 555 428 555 c 0
 315 555 219 479 219 350 c 0
418 902 m 1
 509 988 l 1
 616 916 l 1
 418 776 l 1
 221 916 l 1
 327 988 l 1
 418 902 l 1
EndSplineSet
EndChar

StartChar: ccaron
Encoding: 269 269 259
Width: 493
VWidth: 0
Flags: HMW
LayerCount: 2
Fore
SplineSet
186 230 m 0
 186 156 241 111 309 111 c 0
 364 111 417 135 444 179 c 1
 444 32 l 1
 412 6 365 -10 296 -10 c 0
 142 -10 30 85 30 230 c 0
 30 375 142 470 296 470 c 0
 365 470 412 453 444 430 c 1
 444 282 l 1
 417 326 358 349 309 349 c 0
 241 349 186 298 186 230 c 0
265 656 m 1
 356 742 l 1
 462 671 l 1
 265 531 l 1
 67 671 l 1
 174 742 l 1
 265 656 l 1
EndSplineSet
EndChar

StartChar: Dcaron
Encoding: 270 270 260
Width: 733
VWidth: 0
Flags: HMW
LayerCount: 2
Fore
SplineSet
74 700 m 1
 249 700 l 1
 249 0 l 1
 74 0 l 1
 74 700 l 1
324 0 m 2
 186 0 l 1
 186 151 l 1
 318 151 l 2
 426 151 524 200 524 350 c 0
 524 500 426 549 318 549 c 2
 186 549 l 1
 186 700 l 1
 324 700 l 2
 553 700 699 565 699 350 c 0
 699 135 553 0 324 0 c 2
375 902 m 1
 467 988 l 1
 573 916 l 1
 375 776 l 1
 178 916 l 1
 284 988 l 1
 375 902 l 1
EndSplineSet
EndChar

StartChar: dcaron
Encoding: 271 271 261
Width: 616
VWidth: 0
Flags: HMW
LayerCount: 2
Fore
SplineSet
408 780 m 1
 559 780 l 1
 559 0 l 1
 408 0 l 1
 408 780 l 1
32 230 m 0
 32 385 138 470 250 470 c 0
 365 470 450 379 450 230 c 0
 450 81 365 -10 250 -10 c 0
 138 -10 32 75 32 230 c 0
191 230 m 0
 191 158 241 112 301 112 c 0
 352 112 408 155 408 230 c 0
 408 305 352 348 301 348 c 0
 241 348 191 302 191 230 c 0
677 780 m 1
 829 748 l 1
 704 498 l 1
 589 521 l 1
 677 780 l 1
EndSplineSet
EndChar

StartChar: Dcroat
Encoding: 272 272 262
Width: 733
VWidth: 0
Flags: HMW
LayerCount: 2
Fore
SplineSet
5 298 m 1
 5 398 l 1
 349 398 l 1
 349 298 l 1
 5 298 l 1
74 700 m 1
 249 700 l 1
 249 0 l 1
 74 0 l 1
 74 700 l 1
324 0 m 2
 186 0 l 1
 186 151 l 1
 318 151 l 2
 426 151 524 200 524 350 c 0
 524 500 426 549 318 549 c 2
 186 549 l 1
 186 700 l 1
 324 700 l 2
 553 700 699 565 699 350 c 0
 699 135 553 0 324 0 c 2
EndSplineSet
EndChar

StartChar: dcroat
Encoding: 273 273 263
Width: 616
VWidth: 0
Flags: HMW
LayerCount: 2
Fore
SplineSet
295 565 m 1
 295 665 l 1
 651 665 l 1
 651 565 l 1
 295 565 l 1
408 780 m 1
 559 780 l 1
 559 0 l 1
 408 0 l 1
 408 780 l 1
32 230 m 0
 32 385 138 470 250 470 c 0
 365 470 450 379 450 230 c 0
 450 81 365 -10 250 -10 c 0
 138 -10 32 75 32 230 c 0
191 230 m 0
 191 158 241 112 301 112 c 0
 352 112 408 155 408 230 c 0
 408 305 352 348 301 348 c 0
 241 348 191 302 191 230 c 0
EndSplineSet
EndChar

StartChar: Emacron
Encoding: 274 274 264
Width: 603
VWidth: 0
Flags: HMW
LayerCount: 2
Fore
SplineSet
186 0 m 1
 186 139 l 1
 539 139 l 1
 539 0 l 1
 186 0 l 1
186 561 m 1
 186 700 l 1
 539 700 l 1
 539 561 l 1
 186 561 l 1
186 299 m 1
 186 436 l 1
 519 436 l 1
 519 299 l 1
 186 299 l 1
74 700 m 1
 237 700 l 1
 237 0 l 1
 74 0 l 1
 74 700 l 1
121 776 m 1
 121 908 l 1
 492 908 l 1
 492 776 l 1
 121 776 l 1
EndSplineSet
EndChar

StartChar: emacron
Encoding: 275 275 265
Width: 573
VWidth: 0
Flags: HMW
LayerCount: 2
Fore
SplineSet
117 198 m 1
 117 282 l 1
 377 282 l 1
 370 337 342 369 288 369 c 0
 227 369 187 328 187 254 c 1
 185 230 l 1
 185 136 232 99 291 99 c 0
 345 99 383 121 405 159 c 1
 541 126 l 1
 495 44 426 -10 294 -10 c 0
 125 -10 32 91 32 230 c 0
 32 247 33 263 36 279 c 0
 55 392 141 470 291 470 c 0
 452 470 539 382 539 237 c 0
 539 229 540 214 538 198 c 1
 117 198 l 1
105 531 m 1
 105 662 l 1
 477 662 l 1
 477 531 l 1
 105 531 l 1
EndSplineSet
EndChar

StartChar: Ebreve
Encoding: 276 276 266
Width: 603
VWidth: 0
Flags: HMW
LayerCount: 2
Fore
SplineSet
186 0 m 1
 186 139 l 1
 539 139 l 1
 539 0 l 1
 186 0 l 1
186 561 m 1
 186 700 l 1
 539 700 l 1
 539 561 l 1
 186 561 l 1
186 299 m 1
 186 436 l 1
 519 436 l 1
 519 299 l 1
 186 299 l 1
74 700 m 1
 237 700 l 1
 237 0 l 1
 74 0 l 1
 74 700 l 1
142 922 m 1
 241 922 l 1
 241 887 267 863 306 863 c 0
 345 863 371 887 371 922 c 1
 470 922 l 1
 470 840 411 776 306 776 c 0
 201 776 142 840 142 922 c 1
EndSplineSet
EndChar

StartChar: ebreve
Encoding: 277 277 267
Width: 573
VWidth: 0
Flags: HMW
LayerCount: 2
Fore
SplineSet
117 198 m 1
 117 282 l 1
 377 282 l 1
 370 337 342 369 288 369 c 0
 227 369 187 328 187 254 c 1
 185 230 l 1
 185 136 232 99 291 99 c 0
 345 99 383 121 405 159 c 1
 541 126 l 1
 495 44 426 -10 294 -10 c 0
 125 -10 32 91 32 230 c 0
 32 247 33 263 36 279 c 0
 55 392 141 470 291 470 c 0
 452 470 539 382 539 237 c 0
 539 229 540 214 538 198 c 1
 117 198 l 1
127 677 m 1
 226 677 l 1
 226 642 252 618 291 618 c 0
 330 618 356 642 356 677 c 1
 455 677 l 1
 455 595 396 531 291 531 c 0
 186 531 127 595 127 677 c 1
EndSplineSet
EndChar

StartChar: Edotaccent
Encoding: 278 278 268
Width: 603
VWidth: 0
Flags: HMW
LayerCount: 2
Fore
SplineSet
186 0 m 1
 186 139 l 1
 539 139 l 1
 539 0 l 1
 186 0 l 1
186 561 m 1
 186 700 l 1
 539 700 l 1
 539 561 l 1
 186 561 l 1
186 299 m 1
 186 436 l 1
 519 436 l 1
 519 299 l 1
 186 299 l 1
74 700 m 1
 237 700 l 1
 237 0 l 1
 74 0 l 1
 74 700 l 1
218 858 m 0
 218 906 257 940 306 940 c 0
 355 940 394 906 394 858 c 0
 394 810 355 776 306 776 c 0
 257 776 218 810 218 858 c 0
EndSplineSet
EndChar

StartChar: edotaccent
Encoding: 279 279 269
Width: 573
VWidth: 0
Flags: HMW
LayerCount: 2
Fore
SplineSet
117 198 m 1
 117 282 l 1
 377 282 l 1
 370 337 342 369 288 369 c 0
 227 369 187 328 187 254 c 1
 185 230 l 1
 185 136 232 99 291 99 c 0
 345 99 383 121 405 159 c 1
 541 126 l 1
 495 44 426 -10 294 -10 c 0
 125 -10 32 91 32 230 c 0
 32 247 33 263 36 279 c 0
 55 392 141 470 291 470 c 0
 452 470 539 382 539 237 c 0
 539 229 540 214 538 198 c 1
 117 198 l 1
203 612 m 0
 203 660 242 694 291 694 c 0
 340 694 379 660 379 612 c 0
 379 564 340 531 291 531 c 0
 242 531 203 564 203 612 c 0
EndSplineSet
EndChar

StartChar: Eogonek
Encoding: 280 280 270
Width: 603
VWidth: 0
Flags: HMW
LayerCount: 2
Fore
SplineSet
186 0 m 1
 186 139 l 1
 539 139 l 1
 539 0 l 1
 186 0 l 1
186 561 m 1
 186 700 l 1
 539 700 l 1
 539 561 l 1
 186 561 l 1
186 299 m 1
 186 436 l 1
 519 436 l 1
 519 299 l 1
 186 299 l 1
74 700 m 1
 237 700 l 1
 237 0 l 1
 74 0 l 1
 74 700 l 1
399 -111 m 1
 432 -180 l 1
 417 -200 388 -220 332 -220 c 0
 267 -220 215 -185 215 -120 c 0
 215 -55 283 -11 353 25 c 1
 394 0 l 1
 342 -28 314 -63 314 -94 c 0
 314 -119 325 -131 349 -131 c 0
 369 -131 385 -124 399 -111 c 1
EndSplineSet
EndChar

StartChar: eogonek
Encoding: 281 281 271
Width: 573
VWidth: 0
Flags: HMW
LayerCount: 2
Fore
SplineSet
117 198 m 1
 117 282 l 1
 377 282 l 1
 370 337 342 369 288 369 c 0
 227 369 187 328 187 254 c 1
 185 230 l 1
 185 136 232 99 291 99 c 0
 345 99 383 121 405 159 c 1
 541 126 l 1
 495 44 426 -10 294 -10 c 0
 125 -10 32 91 32 230 c 0
 32 247 33 263 36 279 c 0
 55 392 141 470 291 470 c 0
 452 470 539 382 539 237 c 0
 539 229 540 214 538 198 c 1
 117 198 l 1
327 -103 m 1
 360 -172 l 1
 345 -192 316 -212 260 -212 c 0
 195 -212 143 -177 143 -112 c 0
 143 -47 211 -3 281 33 c 1
 322 8 l 1
 270 -20 242 -55 242 -86 c 0
 242 -111 253 -123 277 -123 c 0
 297 -123 313 -116 327 -103 c 1
EndSplineSet
EndChar

StartChar: Ecaron
Encoding: 282 282 272
Width: 603
VWidth: 0
Flags: HMW
LayerCount: 2
Fore
SplineSet
186 0 m 1
 186 139 l 1
 539 139 l 1
 539 0 l 1
 186 0 l 1
186 561 m 1
 186 700 l 1
 539 700 l 1
 539 561 l 1
 186 561 l 1
186 299 m 1
 186 436 l 1
 519 436 l 1
 519 299 l 1
 186 299 l 1
74 700 m 1
 237 700 l 1
 237 0 l 1
 74 0 l 1
 74 700 l 1
306 902 m 1
 398 988 l 1
 504 916 l 1
 306 776 l 1
 109 916 l 1
 215 988 l 1
 306 902 l 1
EndSplineSet
EndChar

StartChar: ecaron
Encoding: 283 283 273
Width: 573
VWidth: 0
Flags: HMW
LayerCount: 2
Fore
SplineSet
117 198 m 1
 117 282 l 1
 377 282 l 1
 370 337 342 369 288 369 c 0
 227 369 187 328 187 254 c 1
 185 230 l 1
 185 136 232 99 291 99 c 0
 345 99 383 121 405 159 c 1
 541 126 l 1
 495 44 426 -10 294 -10 c 0
 125 -10 32 91 32 230 c 0
 32 247 33 263 36 279 c 0
 55 392 141 470 291 470 c 0
 452 470 539 382 539 237 c 0
 539 229 540 214 538 198 c 1
 117 198 l 1
291 656 m 1
 382 742 l 1
 489 671 l 1
 291 531 l 1
 94 671 l 1
 200 742 l 1
 291 656 l 1
EndSplineSet
EndChar

StartChar: Gcircumflex
Encoding: 284 284 274
Width: 814
VWidth: 0
Flags: HMW
LayerCount: 2
Fore
SplineSet
421 253 m 1
 421 383 l 1
 775 383 l 1
 787 161 656 -22 417 -22 c 0
 194 -22 34 128 34 350 c 0
 34 572 200 716 423 716 c 0
 571 716 673 647 739 550 c 1
 588 472 l 1
 556 527 505 569 423 569 c 0
 306 569 211 488 211 350 c 0
 211 212 300 125 423 125 c 0
 526 125 584 180 607 253 c 1
 421 253 l 1
423 862 m 1
 332 776 l 1
 226 848 l 1
 423 988 l 1
 621 848 l 1
 514 776 l 1
 423 862 l 1
EndSplineSet
EndChar

StartChar: gcircumflex
Encoding: 285 285 275
Width: 610
VWidth: 0
Flags: HMW
LayerCount: 2
Fore
SplineSet
42 -33 m 1
 189 -33 l 1
 194 -90 234 -118 293 -118 c 0
 357 -118 408 -75 408 10 c 2
 408 460 l 1
 553 460 l 1
 553 10 l 2
 553 -168 440 -239 300 -239 c 0
 128 -239 53 -155 42 -33 c 1
32 236 m 0
 32 391 138 470 250 470 c 0
 365 470 450 385 450 236 c 0
 450 87 365 2 250 2 c 0
 138 2 32 81 32 236 c 0
191 236 m 0
 191 164 241 124 301 124 c 0
 352 124 408 161 408 236 c 0
 408 311 352 348 301 348 c 0
 241 348 191 308 191 236 c 0
319 616 m 1
 228 531 l 1
 122 602 l 1
 319 742 l 1
 517 602 l 1
 410 531 l 1
 319 616 l 1
EndSplineSet
EndChar

StartChar: Gbreve
Encoding: 286 286 276
Width: 814
VWidth: 0
Flags: HMW
LayerCount: 2
Fore
SplineSet
421 253 m 1
 421 383 l 1
 775 383 l 1
 787 161 656 -22 417 -22 c 0
 194 -22 34 128 34 350 c 0
 34 572 200 716 423 716 c 0
 571 716 673 647 739 550 c 1
 588 472 l 1
 556 527 505 569 423 569 c 0
 306 569 211 488 211 350 c 0
 211 212 300 125 423 125 c 0
 526 125 584 180 607 253 c 1
 421 253 l 1
259 922 m 1
 358 922 l 1
 358 887 384 863 423 863 c 0
 462 863 488 887 488 922 c 1
 587 922 l 1
 587 840 528 776 423 776 c 0
 318 776 259 840 259 922 c 1
EndSplineSet
EndChar

StartChar: gbreve
Encoding: 287 287 277
Width: 610
VWidth: 0
Flags: HMW
LayerCount: 2
Fore
SplineSet
42 -33 m 1
 189 -33 l 1
 194 -90 234 -118 293 -118 c 0
 357 -118 408 -75 408 10 c 2
 408 460 l 1
 553 460 l 1
 553 10 l 2
 553 -168 440 -239 300 -239 c 0
 128 -239 53 -155 42 -33 c 1
32 236 m 0
 32 391 138 470 250 470 c 0
 365 470 450 385 450 236 c 0
 450 87 365 2 250 2 c 0
 138 2 32 81 32 236 c 0
191 236 m 0
 191 164 241 124 301 124 c 0
 352 124 408 161 408 236 c 0
 408 311 352 348 301 348 c 0
 241 348 191 308 191 236 c 0
155 677 m 1
 254 677 l 1
 254 642 280 618 319 618 c 0
 358 618 384 642 384 677 c 1
 484 677 l 1
 484 595 424 531 319 531 c 0
 214 531 155 595 155 677 c 1
EndSplineSet
EndChar

StartChar: Gdotaccent
Encoding: 288 288 278
Width: 814
VWidth: 0
Flags: HMW
LayerCount: 2
Fore
SplineSet
421 253 m 1
 421 383 l 1
 775 383 l 1
 787 161 656 -22 417 -22 c 0
 194 -22 34 128 34 350 c 0
 34 572 200 716 423 716 c 0
 571 716 673 647 739 550 c 1
 588 472 l 1
 556 527 505 569 423 569 c 0
 306 569 211 488 211 350 c 0
 211 212 300 125 423 125 c 0
 526 125 584 180 607 253 c 1
 421 253 l 1
335 858 m 0
 335 906 374 940 423 940 c 0
 472 940 511 906 511 858 c 0
 511 810 472 776 423 776 c 0
 374 776 335 810 335 858 c 0
EndSplineSet
EndChar

StartChar: gdotaccent
Encoding: 289 289 279
Width: 610
VWidth: 0
Flags: HMW
LayerCount: 2
Fore
SplineSet
42 -33 m 1
 189 -33 l 1
 194 -90 234 -118 293 -118 c 0
 357 -118 408 -75 408 10 c 2
 408 460 l 1
 553 460 l 1
 553 10 l 2
 553 -168 440 -239 300 -239 c 0
 128 -239 53 -155 42 -33 c 1
32 236 m 0
 32 391 138 470 250 470 c 0
 365 470 450 385 450 236 c 0
 450 87 365 2 250 2 c 0
 138 2 32 81 32 236 c 0
191 236 m 0
 191 164 241 124 301 124 c 0
 352 124 408 161 408 236 c 0
 408 311 352 348 301 348 c 0
 241 348 191 308 191 236 c 0
220 628 m 0
 220 676 259 709 308 709 c 0
 357 709 396 676 396 628 c 0
 396 580 357 546 308 546 c 0
 259 546 220 580 220 628 c 0
EndSplineSet
EndChar

StartChar: uni0122
Encoding: 290 290 280
Width: 814
VWidth: 0
Flags: HMW
LayerCount: 2
Fore
SplineSet
421 253 m 1
 421 383 l 1
 775 383 l 1
 787 161 656 -22 417 -22 c 0
 194 -22 34 128 34 350 c 0
 34 572 200 716 423 716 c 0
 571 716 673 647 739 550 c 1
 588 472 l 1
 556 527 505 569 423 569 c 0
 306 569 211 488 211 350 c 0
 211 212 300 125 423 125 c 0
 526 125 584 180 607 253 c 1
 421 253 l 1
354 -82 m 1
 506 -115 l 1
 380 -365 l 1
 266 -342 l 1
 354 -82 l 1
EndSplineSet
EndChar

StartChar: Hcircumflex
Encoding: 292 292 281
Width: 786
VWidth: 0
Flags: HMW
LayerCount: 2
Fore
SplineSet
121 293 m 1
 121 445 l 1
 651 445 l 1
 651 293 l 1
 121 293 l 1
544 700 m 1
 713 700 l 1
 713 0 l 1
 544 0 l 1
 544 700 l 1
74 700 m 1
 243 700 l 1
 243 0 l 1
 74 0 l 1
 74 700 l 1
394 862 m 1
 302 776 l 1
 196 848 l 1
 394 988 l 1
 591 848 l 1
 485 776 l 1
 394 862 l 1
EndSplineSet
EndChar

StartChar: hcircumflex
Encoding: 293 293 282
Width: 568
VWidth: 0
Flags: HMW
LayerCount: 2
Fore
SplineSet
211 780 m 1
 211 0 l 1
 59 0 l 1
 59 780 l 1
 211 780 l 1
358 280 m 2
 358 334 340 364 291 364 c 0
 243 364 211 334 211 280 c 1
 182 280 l 1
 182 389 237 477 351 477 c 0
 465 477 509 415 509 302 c 2
 509 0 l 1
 358 0 l 1
 358 280 l 2
138 926 m 1
 47 840 l 1
 -60 911 l 1
 138 1051 l 1
 335 911 l 1
 229 840 l 1
 138 926 l 1
EndSplineSet
EndChar

StartChar: Itilde
Encoding: 296 296 283
Width: 320
VWidth: 0
Flags: HMW
LayerCount: 2
Fore
SplineSet
74 700 m 1
 246 700 l 1
 246 0 l 1
 74 0 l 1
 74 700 l 1
-36 842 m 1
 -26 891 19 936 83 936 c 0
 149 936 164 884 220 884 c 0
 245 884 266 906 286 938 c 1
 357 863 l 1
 341 826 284 778 222 778 c 0
 167 778 132 831 83 831 c 0
 45 831 35 795 35 780 c 1
 -36 842 l 1
EndSplineSet
EndChar

StartChar: itilde
Encoding: 297 297 284
Width: 276
VWidth: 0
Flags: HMW
LayerCount: 2
Fore
SplineSet
64 460 m 1
 211 460 l 1
 211 0 l 1
 64 0 l 1
 64 460 l 1
-58 596 m 1
 -48 645 -3 691 61 691 c 0
 127 691 141 639 197 639 c 0
 222 639 243 660 263 692 c 1
 334 618 l 1
 318 581 262 532 200 532 c 0
 145 532 109 585 60 585 c 0
 22 585 13 549 13 534 c 1
 -58 596 l 1
EndSplineSet
EndChar

StartChar: Imacron
Encoding: 298 298 285
Width: 320
VWidth: 0
Flags: HMW
LayerCount: 2
Fore
SplineSet
74 700 m 1
 246 700 l 1
 246 0 l 1
 74 0 l 1
 74 700 l 1
-26 776 m 1
 -26 908 l 1
 346 908 l 1
 346 776 l 1
 -26 776 l 1
EndSplineSet
EndChar

StartChar: imacron
Encoding: 299 299 286
Width: 276
VWidth: 0
Flags: HMW
LayerCount: 2
Fore
SplineSet
64 460 m 1
 211 460 l 1
 211 0 l 1
 64 0 l 1
 64 460 l 1
-48 531 m 1
 -48 662 l 1
 324 662 l 1
 324 531 l 1
 -48 531 l 1
EndSplineSet
EndChar

StartChar: Ibreve
Encoding: 300 300 287
Width: 320
VWidth: 0
Flags: HMW
LayerCount: 2
Fore
SplineSet
74 700 m 1
 246 700 l 1
 246 0 l 1
 74 0 l 1
 74 700 l 1
-4 922 m 1
 95 922 l 1
 95 887 121 863 160 863 c 0
 199 863 225 887 225 922 c 1
 324 922 l 1
 324 840 265 776 160 776 c 0
 55 776 -4 840 -4 922 c 1
EndSplineSet
EndChar

StartChar: ibreve
Encoding: 301 301 288
Width: 276
VWidth: 0
Flags: HMW
LayerCount: 2
Fore
SplineSet
64 460 m 1
 211 460 l 1
 211 0 l 1
 64 0 l 1
 64 460 l 1
-27 677 m 1
 72 677 l 1
 72 642 99 618 138 618 c 0
 177 618 203 642 203 677 c 1
 302 677 l 1
 302 595 243 531 138 531 c 0
 33 531 -27 595 -27 677 c 1
EndSplineSet
EndChar

StartChar: Iogonek
Encoding: 302 302 289
Width: 320
VWidth: 0
Flags: HMW
LayerCount: 2
Fore
SplineSet
74 700 m 1
 246 700 l 1
 246 0 l 1
 74 0 l 1
 74 700 l 1
225 -109 m 1
 259 -178 l 1
 244 -198 214 -218 158 -218 c 0
 93 -218 41 -183 41 -118 c 0
 41 -53 109 -9 179 27 c 1
 221 2 l 1
 169 -26 140 -61 140 -92 c 0
 140 -117 151 -129 175 -129 c 0
 195 -129 211 -122 225 -109 c 1
EndSplineSet
EndChar

StartChar: iogonek
Encoding: 303 303 290
Width: 276
VWidth: 0
Flags: HMW
LayerCount: 2
Fore
SplineSet
50 632 m 0
 50 680 89 714 138 714 c 0
 187 714 226 680 226 632 c 0
 226 584 187 551 138 551 c 0
 89 551 50 584 50 632 c 0
64 460 m 1
 211 460 l 1
 211 0 l 1
 64 0 l 1
 64 460 l 1
191 -111 m 1
 224 -180 l 1
 209 -200 180 -220 124 -220 c 0
 59 -220 7 -185 7 -120 c 0
 7 -55 75 -11 145 25 c 1
 186 0 l 1
 134 -28 106 -63 106 -94 c 0
 106 -119 117 -131 141 -131 c 0
 161 -131 177 -124 191 -111 c 1
EndSplineSet
EndChar

StartChar: Idotaccent
Encoding: 304 304 291
Width: 320
VWidth: 0
Flags: HMW
LayerCount: 2
Fore
SplineSet
74 700 m 1
 246 700 l 1
 246 0 l 1
 74 0 l 1
 74 700 l 1
71 858 m 0
 71 906 111 940 160 940 c 0
 209 940 248 906 248 858 c 0
 248 810 209 776 160 776 c 0
 111 776 71 810 71 858 c 0
EndSplineSet
EndChar

StartChar: uni0136
Encoding: 310 310 292
Width: 700
VWidth: 0
Flags: HMW
LayerCount: 2
Fore
SplineSet
74 700 m 1
 249 700 l 1
 249 0 l 1
 74 0 l 1
 74 700 l 1
487 700 m 1
 686 700 l 1
 402 372 l 1
 701 0 l 1
 496 0 l 1
 200 367 l 1
 487 700 l 1
330 -60 m 1
 483 -92 l 1
 356 -342 l 1
 242 -319 l 1
 330 -60 l 1
EndSplineSet
EndChar

StartChar: uni0137
Encoding: 311 311 293
Width: 577
VWidth: 0
Flags: HMW
LayerCount: 2
Fore
SplineSet
58 780 m 1
 203 780 l 1
 203 0 l 1
 58 0 l 1
 58 780 l 1
371 460 m 1
 551 460 l 1
 354 270 l 1
 571 0 l 1
 393 0 l 1
 174 270 l 1
 371 460 l 1
257 -60 m 1
 410 -92 l 1
 283 -342 l 1
 169 -319 l 1
 257 -60 l 1
EndSplineSet
EndChar

StartChar: Lacute
Encoding: 313 313 294
Width: 528
VWidth: 0
Flags: HMW
LayerCount: 2
Fore
SplineSet
74 700 m 1
 243 700 l 1
 243 146 l 1
 524 146 l 1
 524 0 l 1
 74 0 l 1
 74 700 l 1
460 926 m 1
 280 776 l 1
 195 819 l 1
 345 979 l 1
 460 926 l 1
EndSplineSet
EndChar

StartChar: lacute
Encoding: 314 314 295
Width: 270
VWidth: 0
Flags: HMW
LayerCount: 2
Fore
SplineSet
59 780 m 1
 211 780 l 1
 211 0 l 1
 59 0 l 1
 59 780 l 1
297 990 m 1
 117 840 l 1
 31 882 l 1
 181 1042 l 1
 297 990 l 1
EndSplineSet
EndChar

StartChar: uni013B
Encoding: 315 315 296
Width: 528
VWidth: 0
Flags: HMW
LayerCount: 2
Fore
SplineSet
74 700 m 1
 243 700 l 1
 243 146 l 1
 524 146 l 1
 524 0 l 1
 74 0 l 1
 74 700 l 1
267 -60 m 1
 419 -92 l 1
 293 -342 l 1
 179 -319 l 1
 267 -60 l 1
EndSplineSet
EndChar

StartChar: uni013C
Encoding: 316 316 297
Width: 270
VWidth: 0
Flags: HMW
LayerCount: 2
Fore
SplineSet
59 780 m 1
 211 780 l 1
 211 0 l 1
 59 0 l 1
 59 780 l 1
103 -60 m 1
 255 -92 l 1
 130 -342 l 1
 15 -319 l 1
 103 -60 l 1
EndSplineSet
EndChar

StartChar: Lcaron
Encoding: 317 317 298
Width: 528
VWidth: 0
Flags: HMW
LayerCount: 2
Fore
SplineSet
74 700 m 1
 243 700 l 1
 243 146 l 1
 524 146 l 1
 524 0 l 1
 74 0 l 1
 74 700 l 1
412 716 m 1
 564 684 l 1
 439 434 l 1
 324 457 l 1
 412 716 l 1
EndSplineSet
EndChar

StartChar: lcaron
Encoding: 318 318 299
Width: 270
VWidth: 0
Flags: HMW
LayerCount: 2
Fore
SplineSet
59 780 m 1
 211 780 l 1
 211 0 l 1
 59 0 l 1
 59 780 l 1
349 780 m 1
 501 748 l 1
 376 498 l 1
 261 521 l 1
 349 780 l 1
EndSplineSet
EndChar

StartChar: Ldot
Encoding: 319 319 300
Width: 528
VWidth: 0
Flags: HMW
LayerCount: 2
Fore
SplineSet
74 700 m 1
 243 700 l 1
 243 146 l 1
 524 146 l 1
 524 0 l 1
 74 0 l 1
 74 700 l 1
323 431 m 0
 323 482 363 523 418 523 c 0
 473 523 512 482 512 431 c 0
 512 380 473 338 418 338 c 0
 363 338 323 380 323 431 c 0
EndSplineSet
EndChar

StartChar: ldot
Encoding: 320 320 301
Width: 476
VWidth: 0
Flags: HMW
LayerCount: 2
Fore
SplineSet
59 780 m 1
 211 780 l 1
 211 0 l 1
 59 0 l 1
 59 780 l 1
252 409 m 0
 252 460 292 501 347 501 c 0
 402 501 441 460 441 409 c 0
 441 358 402 316 347 316 c 0
 292 316 252 358 252 409 c 0
EndSplineSet
EndChar

StartChar: eth
Encoding: 240 240 302
Width: 626
VWidth: 0
Flags: HMW
LayerCount: 2
Fore
SplineSet
310 -16 m 0
 158 -16 50 93 50 246 c 0
 50 381 135 473 261 473 c 0
 346 473 421 430 485 344 c 1
 442 345 l 1
 373 475 275 584 139 685 c 1
 251 761 l 1
 467 565 577 392 577 246 c 0
 577 95 463 -16 310 -16 c 0
313 116 m 0
 376 116 420 164 420 230 c 0
 420 297 375 346 313 346 c 0
 251 346 206 297 206 230 c 0
 206 164 250 116 313 116 c 0
156 507 m 1
 140 562 l 1
 488 674 l 1
 505 619 l 1
 156 507 l 1
EndSplineSet
EndChar

StartChar: racute
Encoding: 341 341 303
Width: 411
VWidth: 0
Flags: HMW
LayerCount: 2
Fore
SplineSet
208 460 m 1
 208 0 l 1
 59 0 l 1
 59 460 l 1
 208 460 l 1
341 303 m 1
 325 319 308 329 282 329 c 0
 238 329 208 293 208 227 c 1
 172 280 l 1
 172 389 246 471 324 471 c 0
 357 471 391 456 407 433 c 1
 341 303 l 1
394 681 m 1
 214 531 l 1
 129 574 l 1
 279 734 l 1
 394 681 l 1
EndSplineSet
EndChar

StartChar: rcaron
Encoding: 345 345 304
Width: 411
VWidth: 0
Flags: HMW
LayerCount: 2
Fore
SplineSet
208 460 m 1
 208 0 l 1
 59 0 l 1
 59 460 l 1
 208 460 l 1
341 303 m 1
 325 319 308 329 282 329 c 0
 238 329 208 293 208 227 c 1
 172 280 l 1
 172 389 246 471 324 471 c 0
 357 471 391 456 407 433 c 1
 341 303 l 1
233 657 m 1
 324 742 l 1
 430 671 l 1
 233 531 l 1
 35 671 l 1
 142 742 l 1
 233 657 l 1
EndSplineSet
EndChar

StartChar: Rcaron
Encoding: 344 344 305
Width: 647
VWidth: 0
Flags: HMW
LayerCount: 2
Fore
SplineSet
249 317 m 1
 425 317 l 1
 644 0 l 1
 445 0 l 1
 249 317 l 1
74 700 m 1
 243 700 l 1
 243 0 l 1
 74 0 l 1
 74 700 l 1
180 556 m 1
 180 700 l 1
 329 700 l 2
 508 700 602 606 602 471 c 0
 602 336 508 242 329 242 c 2
 180 242 l 1
 180 374 l 1
 317 374 l 2
 385 374 426 407 426 465 c 0
 426 523 385 556 317 556 c 2
 180 556 l 1
313 902 m 1
 404 988 l 1
 511 916 l 1
 313 776 l 1
 116 916 l 1
 222 988 l 1
 313 902 l 1
EndSplineSet
EndChar

StartChar: uni0213
Encoding: 531 531 306
Width: 411
VWidth: 0
Flags: HMW
LayerCount: 2
Fore
SplineSet
208 460 m 1
 208 0 l 1
 59 0 l 1
 59 460 l 1
 208 460 l 1
341 303 m 1
 325 319 308 329 282 329 c 0
 238 329 208 293 208 227 c 1
 172 280 l 1
 172 389 246 471 324 471 c 0
 357 471 391 456 407 433 c 1
 341 303 l 1
69 531 m 1
 168 531 l 1
 168 566 194 591 233 591 c 0
 272 591 298 566 298 531 c 1
 398 531 l 1
 398 613 338 678 233 678 c 0
 128 678 69 613 69 531 c 1
EndSplineSet
EndChar

StartChar: uni0212
Encoding: 530 530 307
Width: 647
VWidth: 0
Flags: HMW
LayerCount: 2
Fore
SplineSet
249 317 m 1
 425 317 l 1
 644 0 l 1
 445 0 l 1
 249 317 l 1
74 700 m 1
 243 700 l 1
 243 0 l 1
 74 0 l 1
 74 700 l 1
180 556 m 1
 180 700 l 1
 329 700 l 2
 508 700 602 606 602 471 c 0
 602 336 508 242 329 242 c 2
 180 242 l 1
 180 374 l 1
 317 374 l 2
 385 374 426 407 426 465 c 0
 426 523 385 556 317 556 c 2
 180 556 l 1
163 776 m 1
 262 776 l 1
 262 811 288 836 327 836 c 0
 366 836 392 811 392 776 c 1
 491 776 l 1
 491 858 432 922 327 922 c 0
 222 922 163 858 163 776 c 1
EndSplineSet
EndChar

StartChar: OE
Encoding: 338 338 308
Width: 985
VWidth: 0
Flags: HMW
LayerCount: 2
Fore
SplineSet
562 299 m 1
 562 436 l 1
 929 436 l 1
 929 299 l 1
 562 299 l 1
484 670 m 1
 647 670 l 1
 647 30 l 1
 484 30 l 1
 484 670 l 1
950 139 m 1
 950 0 l 1
 390 0 l 2
 187 0 34 141 34 350 c 0
 34 559 186 700 390 700 c 2
 949 700 l 1
 949 561 l 1
 568 561 l 1
 551 551 l 1
 421 551 l 2
 282 551 209 482 209 350 c 0
 209 218 283 149 421 149 c 2
 548 149 l 1
 572 139 l 1
 950 139 l 1
EndSplineSet
EndChar

StartChar: oe
Encoding: 339 339 309
Width: 900
VWidth: 0
Flags: HMW
LayerCount: 2
Fore
SplineSet
705 250 m 2
 705 324 676 369 617 369 c 0
 562 369 516 334 516 260 c 1
 514 230 l 1
 514 143 554 96 619 96 c 0
 673 96 705 121 732 159 c 1
 866 126 l 1
 826 50 741 -10 642 -10 c 0
 517 -10 430 91 430 230 c 0
 430 247 431 263 434 279 c 0
 453 392 539 470 658 470 c 0
 768 470 865 379 865 234 c 0
 865 226 864 206 863 198 c 1
 705 230 l 1
 705 250 l 2
481 198 m 1
 481 281 l 1
 844 281 l 1
 863 198 l 1
 481 198 l 1
35 230 m 0
 35 379 138 470 263 470 c 0
 388 470 466 379 466 230 c 0
 466 81 388 -10 263 -10 c 0
 138 -10 35 81 35 230 c 0
185 230 m 0
 185 155 232 115 292 115 c 0
 350 115 391 155 391 230 c 0
 391 305 350 345 292 345 c 0
 232 345 185 305 185 230 c 0
EndSplineSet
EndChar

StartChar: a.alt
Encoding: 65536 -1 310
Width: 616
VWidth: 0
Flags: HMW
LayerCount: 2
Fore
SplineSet
409 460 m 1
 559 460 l 1
 559 0 l 1
 409 0 l 1
 409 460 l 1
32 230 m 0
 32 385 138 470 250 470 c 0
 365 470 450 379 450 230 c 0
 450 81 365 -10 250 -10 c 0
 138 -10 32 75 32 230 c 0
191 230 m 0
 191 158 241 112 301 112 c 0
 352 112 408 155 408 230 c 0
 408 305 352 348 301 348 c 0
 241 348 191 302 191 230 c 0
EndSplineSet
EndChar

StartChar: Jcircumflex
Encoding: 308 308 312
Width: 330
VWidth: 0
Flags: HMW
LayerCount: 2
Fore
SplineSet
-72 -63 m 1
 -52 -81 -21 -96 9 -96 c 0
 39 -96 74 -76 74 -16 c 2
 74 700 l 1
 257 700 l 1
 257 -54 l 2
 257 -188 151 -239 26 -239 c 0
 -52 -239 -124 -208 -164 -182 c 1
 -72 -63 l 1
165 862 m 1
 74 776 l 1
 -32 848 l 1
 165 988 l 1
 362 848 l 1
 256 776 l 1
 165 862 l 1
EndSplineSet
EndChar

StartChar: jcircumflex
Encoding: 309 309 313
Width: 271
VWidth: 0
Flags: HMW
LayerCount: 2
Fore
SplineSet
-33 -77 m 1
 -20 -95 -5 -102 13 -102 c 0
 43 -102 61 -81 61 -34 c 2
 61 460 l 1
 207 460 l 1
 207 -72 l 2
 207 -175 148 -239 33 -239 c 0
 -35 -239 -73 -208 -94 -188 c 1
 -33 -77 l 1
134 616 m 1
 42 531 l 1
 -64 602 l 1
 134 742 l 1
 331 602 l 1
 225 531 l 1
 134 616 l 1
EndSplineSet
EndChar

StartChar: Nacute
Encoding: 323 323 314
Width: 793
VWidth: 0
Flags: HMW
LayerCount: 2
Fore
SplineSet
557 700 m 1
 720 700 l 1
 720 -35 l 1
 237 393 l 1
 237 0 l 1
 74 0 l 1
 74 735 l 1
 557 307 l 1
 557 700 l 1
548 911 m 1
 368 761 l 1
 282 804 l 1
 432 964 l 1
 548 911 l 1
EndSplineSet
EndChar

StartChar: nacute
Encoding: 324 324 315
Width: 575
VWidth: 0
Flags: HMW
LayerCount: 2
Fore
SplineSet
211 460 m 1
 211 0 l 1
 59 0 l 1
 59 460 l 1
 211 460 l 1
358 280 m 2
 358 334 340 364 291 364 c 0
 243 364 211 334 211 280 c 1
 185 274 l 1
 185 383 237 471 351 471 c 0
 465 471 516 409 516 296 c 2
 516 0 l 1
 358 0 l 1
 358 280 l 2
452 681 m 1
 272 531 l 1
 187 573 l 1
 337 733 l 1
 452 681 l 1
EndSplineSet
EndChar

StartChar: uni0145
Encoding: 325 325 316
Width: 793
VWidth: 0
Flags: HMW
LayerCount: 2
Fore
SplineSet
363 -54 m 1
 515 -86 l 1
 390 -336 l 1
 275 -313 l 1
 363 -54 l 1
557 700 m 1
 720 700 l 1
 720 -35 l 1
 237 393 l 1
 237 0 l 1
 74 0 l 1
 74 735 l 1
 557 307 l 1
 557 700 l 1
EndSplineSet
EndChar

StartChar: uni0146
Encoding: 326 326 317
Width: 575
VWidth: 0
Flags: HMW
LayerCount: 2
Fore
SplineSet
211 460 m 1
 211 0 l 1
 59 0 l 1
 59 460 l 1
 211 460 l 1
358 280 m 2
 358 334 340 364 291 364 c 0
 243 364 211 334 211 280 c 1
 182 274 l 1
 182 383 237 471 351 471 c 0
 465 471 516 409 516 296 c 2
 516 0 l 1
 358 0 l 1
 358 280 l 2
255 -60 m 1
 407 -92 l 1
 282 -342 l 1
 167 -319 l 1
 255 -60 l 1
EndSplineSet
EndChar

StartChar: Ncaron
Encoding: 327 327 318
Width: 793
VWidth: 0
Flags: HMW
LayerCount: 2
Fore
SplineSet
375 902 m 1
 466 988 l 1
 572 916 l 1
 375 776 l 1
 178 916 l 1
 284 988 l 1
 375 902 l 1
557 700 m 1
 720 700 l 1
 720 -35 l 1
 237 393 l 1
 237 0 l 1
 74 0 l 1
 74 735 l 1
 557 307 l 1
 557 700 l 1
EndSplineSet
EndChar

StartChar: ncaron
Encoding: 328 328 319
Width: 575
VWidth: 0
Flags: HMW
LayerCount: 2
Fore
SplineSet
211 460 m 1
 211 0 l 1
 59 0 l 1
 59 460 l 1
 211 460 l 1
358 280 m 2
 358 334 340 364 291 364 c 0
 243 364 211 334 211 280 c 1
 182 274 l 1
 182 383 237 471 351 471 c 0
 465 471 516 409 516 296 c 2
 516 0 l 1
 358 0 l 1
 358 280 l 2
287 656 m 1
 378 742 l 1
 484 671 l 1
 287 531 l 1
 90 671 l 1
 196 742 l 1
 287 656 l 1
EndSplineSet
EndChar

StartChar: Omacron
Encoding: 332 332 320
Width: 821
VWidth: 0
Flags: HMW
LayerCount: 2
Fore
SplineSet
213 350 m 0
 213 226 292 139 411 139 c 0
 530 139 608 226 608 350 c 0
 608 474 533 561 411 561 c 0
 292 561 213 474 213 350 c 0
34 350 m 0
 34 566 198 716 411 716 c 0
 627 716 788 566 788 350 c 0
 788 134 631 -22 411 -22 c 0
 191 -22 34 134 34 350 c 0
225 776 m 1
 225 908 l 1
 596 908 l 1
 596 776 l 1
 225 776 l 1
EndSplineSet
EndChar

StartChar: omacron
Encoding: 333 333 321
Width: 589
VWidth: 0
Flags: HMW
LayerCount: 2
Fore
SplineSet
32 230 m 0
 32 375 144 471 295 471 c 0
 446 471 558 375 558 230 c 0
 558 85 446 -10 295 -10 c 0
 144 -10 32 85 32 230 c 0
188 230 m 0
 188 159 236 115 295 115 c 0
 354 115 402 159 402 230 c 0
 402 301 354 346 295 346 c 0
 236 346 188 301 188 230 c 0
109 531 m 1
 109 662 l 1
 480 662 l 1
 480 531 l 1
 109 531 l 1
EndSplineSet
EndChar

StartChar: Obreve
Encoding: 334 334 322
Width: 821
VWidth: 0
Flags: HMW
LayerCount: 2
Fore
SplineSet
213 350 m 0
 213 226 292 139 411 139 c 0
 530 139 608 226 608 350 c 0
 608 474 533 561 411 561 c 0
 292 561 213 474 213 350 c 0
34 350 m 0
 34 566 198 716 411 716 c 0
 627 716 788 566 788 350 c 0
 788 134 631 -22 411 -22 c 0
 191 -22 34 134 34 350 c 0
246 922 m 1
 346 922 l 1
 346 887 372 863 411 863 c 0
 450 863 476 887 476 922 c 1
 575 922 l 1
 575 840 516 776 411 776 c 0
 306 776 246 840 246 922 c 1
EndSplineSet
EndChar

StartChar: obreve
Encoding: 335 335 323
Width: 589
VWidth: 0
Flags: HMW
LayerCount: 2
Fore
SplineSet
32 230 m 0
 32 375 144 471 295 471 c 0
 446 471 558 375 558 230 c 0
 558 85 446 -10 295 -10 c 0
 144 -10 32 85 32 230 c 0
188 230 m 0
 188 159 236 115 295 115 c 0
 354 115 402 159 402 230 c 0
 402 301 354 346 295 346 c 0
 236 346 188 301 188 230 c 0
131 677 m 1
 230 677 l 1
 230 642 256 618 295 618 c 0
 334 618 360 642 360 677 c 1
 459 677 l 1
 459 595 400 531 295 531 c 0
 190 531 131 595 131 677 c 1
EndSplineSet
EndChar

StartChar: Racute
Encoding: 340 340 324
Width: 647
VWidth: 0
Flags: HMW
LayerCount: 2
Fore
SplineSet
249 317 m 1
 425 317 l 1
 644 0 l 1
 445 0 l 1
 249 317 l 1
74 700 m 1
 243 700 l 1
 243 0 l 1
 74 0 l 1
 74 700 l 1
180 556 m 1
 180 700 l 1
 329 700 l 2
 508 700 602 606 602 471 c 0
 602 336 508 242 329 242 c 2
 180 242 l 1
 180 374 l 1
 317 374 l 2
 385 374 426 407 426 465 c 0
 426 523 385 556 317 556 c 2
 180 556 l 1
469 926 m 1
 289 776 l 1
 204 819 l 1
 354 979 l 1
 469 926 l 1
EndSplineSet
EndChar

StartChar: uni0156
Encoding: 342 342 325
Width: 647
VWidth: 0
Flags: HMW
LayerCount: 2
Fore
SplineSet
249 317 m 1
 425 317 l 1
 644 0 l 1
 445 0 l 1
 249 317 l 1
74 700 m 1
 243 700 l 1
 243 0 l 1
 74 0 l 1
 74 700 l 1
180 556 m 1
 180 700 l 1
 329 700 l 2
 508 700 602 606 602 471 c 0
 602 336 508 242 329 242 c 2
 180 242 l 1
 180 374 l 1
 317 374 l 2
 385 374 426 407 426 465 c 0
 426 523 385 556 317 556 c 2
 180 556 l 1
327 -60 m 1
 478 -92 l 1
 353 -342 l 1
 239 -319 l 1
 327 -60 l 1
EndSplineSet
EndChar

StartChar: uni0157
Encoding: 343 343 326
Width: 411
VWidth: 0
Flags: HMW
LayerCount: 2
Fore
SplineSet
208 460 m 1
 208 0 l 1
 59 0 l 1
 59 460 l 1
 208 460 l 1
341 303 m 1
 325 319 308 329 282 329 c 0
 238 329 208 293 208 227 c 1
 172 280 l 1
 172 389 246 471 324 471 c 0
 357 471 391 456 407 433 c 1
 341 303 l 1
102 -60 m 1
 253 -92 l 1
 128 -342 l 1
 14 -319 l 1
 102 -60 l 1
EndSplineSet
EndChar

StartChar: Scedilla
Encoding: 350 350 327
Width: 625
VWidth: 0
Flags: HMW
LayerCount: 2
Fore
SplineSet
153 251 m 1
 201 167 249 125 323 125 c 0
 378 125 408 148 408 193 c 0
 408 252 344 270 264 302 c 0
 195 329 74 378 74 518 c 0
 74 636 172 716 321 716 c 0
 471 716 546 637 577 562 c 1
 449 489 l 1
 419 541 379 573 325 573 c 0
 276 573 248 549 248 513 c 0
 248 465 325 443 408 413 c 0
 505 379 587 317 587 196 c 0
 587 53 479 -22 319 -22 c 0
 191 -22 78 52 34 167 c 1
 153 251 l 1
291 61 m 1
 401 57 l 1
 315 -65 l 1
 326 -62 339 -61 352 -61 c 0
 392 -61 443 -93 443 -159 c 0
 443 -231 375 -268 312 -268 c 0
 256 -268 215 -259 168 -229 c 1
 214 -160 l 1
 239 -178 272 -185 292 -185 c 0
 326 -185 346 -174 346 -150 c 0
 346 -124 317 -118 286 -118 c 0
 276 -118 238 -120 203 -134 c 1
 291 61 l 1
EndSplineSet
EndChar

StartChar: scedilla
Encoding: 351 351 328
Width: 456
VWidth: 0
Flags: HMW
LayerCount: 2
Fore
SplineSet
82 176 m 1
 158 110 210 94 237 94 c 0
 263 94 281 106 281 129 c 0
 281 165 235 178 183 196 c 0
 117 220 53 249 53 339 c 0
 53 425 126 470 225 470 c 0
 304 470 369 440 422 402 c 1
 368 304 l 1
 332 339 279 366 242 366 c 0
 210 366 193 355 193 336 c 0
 193 301 247 292 305 270 c 0
 370 245 432 213 432 130 c 0
 432 25 367 -19 259 -19 c 0
 161 -19 84 19 19 75 c 1
 82 176 l 1
225 64 m 1
 335 61 l 1
 249 -61 l 1
 260 -58 272 -58 285 -58 c 0
 325 -58 377 -89 377 -155 c 0
 377 -227 308 -264 245 -264 c 0
 189 -264 149 -255 102 -225 c 1
 147 -156 l 1
 172 -174 205 -182 225 -182 c 0
 259 -182 280 -171 280 -147 c 0
 280 -121 250 -114 219 -114 c 0
 209 -114 173 -117 138 -131 c 1
 225 64 l 1
EndSplineSet
EndChar

StartChar: Zcaron
Encoding: 381 381 329
Width: 620
VWidth: 0
Flags: HMW
LayerCount: 2
Fore
SplineSet
57 548 m 1
 57 700 l 1
 606 700 l 1
 276 146 l 1
 571 146 l 1
 571 0 l 1
 9 0 l 1
 335 548 l 1
 57 548 l 1
331 902 m 1
 422 988 l 1
 529 916 l 1
 331 776 l 1
 134 916 l 1
 240 988 l 1
 331 902 l 1
EndSplineSet
EndChar

StartChar: zcaron
Encoding: 382 382 330
Width: 516
VWidth: 0
Flags: HMW
LayerCount: 2
Fore
SplineSet
282 656 m 1
 374 741 l 1
 480 670 l 1
 282 530 l 1
 85 670 l 1
 191 741 l 1
 282 656 l 1
257 322 m 1
 58 322 l 1
 58 460 l 1
 508 460 l 1
 277 138 l 1
 475 138 l 1
 475 0 l 1
 15 0 l 1
 257 322 l 1
EndSplineSet
EndChar

StartChar: Ydieresis
Encoding: 376 376 331
Width: 660
VWidth: 0
Flags: HMW
LayerCount: 2
Fore
SplineSet
102 869 m 0
 102 917 140 951 189 951 c 0
 238 951 278 917 278 869 c 0
 278 821 238 787 189 787 c 0
 140 787 102 821 102 869 c 0
383 869 m 0
 383 917 422 951 471 951 c 0
 520 951 559 917 559 869 c 0
 559 821 520 787 471 787 c 0
 422 787 383 821 383 869 c 0
467 700 m 1
 662 700 l 1
 417 285 l 1
 417 0 l 1
 244 0 l 1
 244 284 l 1
 -1 700 l 1
 194 700 l 1
 330 437 l 1
 467 700 l 1
EndSplineSet
EndChar

StartChar: Scaron
Encoding: 352 352 332
Width: 625
VWidth: 0
Flags: HMW
LayerCount: 2
Fore
SplineSet
153 251 m 1
 201 167 249 125 323 125 c 0
 378 125 408 148 408 193 c 0
 408 252 344 270 264 302 c 0
 195 329 74 383 74 519 c 0
 74 637 176 716 321 716 c 0
 471 716 549 633 577 562 c 1
 449 489 l 1
 419 541 382 573 328 573 c 0
 279 573 248 549 248 513 c 0
 248 465 325 443 408 413 c 0
 505 379 587 317 587 196 c 0
 587 53 483 -22 319 -22 c 0
 191 -22 78 52 34 167 c 1
 153 251 l 1
321 902 m 1
 412 988 l 1
 519 916 l 1
 321 776 l 1
 124 916 l 1
 230 988 l 1
 321 902 l 1
EndSplineSet
EndChar

StartChar: scaron
Encoding: 353 353 333
Width: 456
VWidth: 0
Flags: HMW
LayerCount: 2
Fore
SplineSet
83 175 m 1
 151 115 203 98 235 98 c 0
 262 98 281 105 281 128 c 0
 281 162 212 172 158 197 c 0
 98 225 42 256 42 336 c 0
 42 424 126 470 225 470 c 0
 304 470 373 440 422 402 c 1
 368 303 l 1
 332 338 272 360 235 360 c 0
 203 360 187 352 187 332 c 0
 187 305 247 290 305 268 c 0
 370 243 432 210 432 130 c 0
 432 25 367 -19 255 -19 c 0
 157 -19 77 19 19 75 c 1
 83 175 l 1
225 644 m 1
 316 729 l 1
 422 658 l 1
 225 518 l 1
 27 658 l 1
 134 729 l 1
 225 644 l 1
EndSplineSet
EndChar

StartChar: Lslash
Encoding: 321 321 334
Width: 534
VWidth: 0
Flags: HMW
LayerCount: 2
Fore
SplineSet
5 309 m 1
 -34 382 l 1
 330 628 l 1
 369 554 l 1
 5 309 l 1
74 700 m 1
 243 700 l 1
 243 146 l 1
 524 146 l 1
 524 0 l 1
 74 0 l 1
 74 700 l 1
EndSplineSet
EndChar

StartChar: lslash
Encoding: 322 322 335
Width: 270
VWidth: 0
Flags: HMW
LayerCount: 2
Fore
SplineSet
-8 309 m 1
 -46 382 l 1
 285 601 l 1
 324 528 l 1
 -8 309 l 1
59 780 m 1
 211 780 l 1
 211 0 l 1
 59 0 l 1
 59 780 l 1
EndSplineSet
EndChar

StartChar: uni0218
Encoding: 536 536 336
Width: 625
VWidth: 0
Flags: HMW
LayerCount: 2
Fore
SplineSet
153 251 m 1
 201 167 249 125 323 125 c 0
 378 125 408 148 408 193 c 0
 408 252 344 270 264 302 c 0
 195 329 74 383 74 519 c 0
 74 637 176 716 321 716 c 0
 471 716 549 633 577 562 c 1
 449 489 l 1
 419 541 382 573 328 573 c 0
 279 573 248 549 248 513 c 0
 248 465 325 443 408 413 c 0
 505 379 587 317 587 196 c 0
 587 53 483 -22 319 -22 c 0
 191 -22 78 52 34 167 c 1
 153 251 l 1
262 -70 m 1
 414 -102 l 1
 288 -352 l 1
 174 -329 l 1
 262 -70 l 1
EndSplineSet
EndChar

StartChar: uni0219
Encoding: 537 537 337
Width: 456
VWidth: 0
Flags: HMW
LayerCount: 2
Fore
SplineSet
83 175 m 1
 151 115 203 98 235 98 c 0
 262 98 281 105 281 128 c 0
 281 162 212 172 158 197 c 0
 98 225 42 256 42 336 c 0
 42 424 126 470 225 470 c 0
 304 470 373 440 422 402 c 1
 368 303 l 1
 332 338 272 360 235 360 c 0
 203 360 187 352 187 332 c 0
 187 305 247 290 305 268 c 0
 370 243 432 210 432 130 c 0
 432 25 367 -19 255 -19 c 0
 157 -19 77 19 19 75 c 1
 83 175 l 1
198 -67 m 1
 350 -99 l 1
 225 -349 l 1
 110 -326 l 1
 198 -67 l 1
EndSplineSet
EndChar

StartChar: pi
Encoding: 960 960 338
Width: 602
VWidth: 0
Flags: HMW
LayerCount: 2
Fore
SplineSet
90 430 m 1
 232 430 l 1
 232 0 l 1
 90 0 l 1
 90 430 l 1
30 460 m 1
 562 460 l 1
 562 335 l 1
 30 335 l 1
 30 460 l 1
340 430 m 1
 482 430 l 1
 482 178 l 2
 482 112 506 108 536 108 c 1
 536 -9 l 1
 408 -9 340 -1 340 121 c 2
 340 430 l 1
EndSplineSet
EndChar

StartChar: trademark
Encoding: 8482 8482 339
Width: 746
VWidth: 0
Flags: HMW
LayerCount: 2
Fore
SplineSet
30 624 m 1
 30 700 l 1
 307 700 l 1
 307 624 l 1
 211 624 l 1
 211 350 l 1
 126 350 l 1
 126 624 l 1
 30 624 l 1
602 593 m 1
 664 718 l 1
 720 350 l 1
 631 350 l 1
 602 593 l 1
365 718 m 1
 427 593 l 1
 398 350 l 1
 309 350 l 1
 365 718 l 1
664 718 m 1
 664 603 l 1
 514 382 l 1
 365 603 l 1
 365 718 l 1
 514 504 l 1
 664 718 l 1
EndSplineSet
EndChar

StartChar: uni2219
Encoding: 8729 8729 340
Width: 322
VWidth: 0
Flags: HMW
LayerCount: 2
Fore
SplineSet
67 443 m 0
 67 494 106 536 161 536 c 0
 216 536 256 494 256 443 c 0
 256 392 216 351 161 351 c 0
 106 351 67 392 67 443 c 0
EndSplineSet
EndChar

StartChar: agrave.alt
Encoding: 65537 -1 341
Width: 616
VWidth: 0
Flags: HMW
LayerCount: 2
Fore
SplineSet
409 460 m 1
 559 460 l 1
 559 0 l 1
 409 0 l 1
 409 460 l 1
32 230 m 0
 32 385 138 470 250 470 c 0
 365 470 450 379 450 230 c 0
 450 81 365 -10 250 -10 c 0
 138 -10 32 75 32 230 c 0
191 230 m 0
 191 158 241 112 301 112 c 0
 352 112 408 155 408 230 c 0
 408 305 352 348 301 348 c 0
 241 348 191 302 191 230 c 0
132 681 m 1
 247 733 l 1
 397 573 l 1
 312 531 l 1
 132 681 l 1
EndSplineSet
EndChar

StartChar: aacute.alt
Encoding: 65538 -1 342
Width: 616
VWidth: 0
Flags: HMW
LayerCount: 2
Fore
SplineSet
409 460 m 1
 559 460 l 1
 559 0 l 1
 409 0 l 1
 409 460 l 1
32 230 m 0
 32 385 138 470 250 470 c 0
 365 470 450 379 450 230 c 0
 450 81 365 -10 250 -10 c 0
 138 -10 32 75 32 230 c 0
191 230 m 0
 191 158 241 112 301 112 c 0
 352 112 408 155 408 230 c 0
 408 305 352 348 301 348 c 0
 241 348 191 302 191 230 c 0
449 681 m 1
 269 531 l 1
 184 573 l 1
 334 733 l 1
 449 681 l 1
EndSplineSet
EndChar

StartChar: acircumflex.alt
Encoding: 65539 -1 343
Width: 616
VWidth: 0
Flags: HMW
LayerCount: 2
Fore
SplineSet
409 460 m 1
 559 460 l 1
 559 0 l 1
 409 0 l 1
 409 460 l 1
32 230 m 0
 32 385 138 470 250 470 c 0
 365 470 450 379 450 230 c 0
 450 81 365 -10 250 -10 c 0
 138 -10 32 75 32 230 c 0
191 230 m 0
 191 158 241 112 301 112 c 0
 352 112 408 155 408 230 c 0
 408 305 352 348 301 348 c 0
 241 348 191 302 191 230 c 0
314 616 m 1
 223 531 l 1
 117 602 l 1
 314 742 l 1
 512 602 l 1
 406 531 l 1
 314 616 l 1
EndSplineSet
EndChar

StartChar: atilde.alt
Encoding: 65540 -1 344
Width: 616
VWidth: 0
Flags: HMW
LayerCount: 2
Fore
SplineSet
409 460 m 1
 559 460 l 1
 559 0 l 1
 409 0 l 1
 409 460 l 1
32 230 m 0
 32 385 138 470 250 470 c 0
 365 470 450 379 450 230 c 0
 450 81 365 -10 250 -10 c 0
 138 -10 32 75 32 230 c 0
191 230 m 0
 191 158 241 112 301 112 c 0
 352 112 408 155 408 230 c 0
 408 305 352 348 301 348 c 0
 241 348 191 302 191 230 c 0
124 596 m 1
 134 645 180 691 244 691 c 0
 310 691 324 639 380 639 c 0
 405 639 426 660 446 692 c 1
 517 618 l 1
 501 581 445 532 383 532 c 0
 328 532 292 585 243 585 c 0
 205 585 196 549 196 534 c 1
 124 596 l 1
EndSplineSet
EndChar

StartChar: adieresis.alt
Encoding: 65541 -1 345
Width: 616
VWidth: 0
Flags: HMW
LayerCount: 2
Fore
SplineSet
409 460 m 1
 559 460 l 1
 559 0 l 1
 409 0 l 1
 409 460 l 1
32 230 m 0
 32 385 138 470 250 470 c 0
 365 470 450 379 450 230 c 0
 450 81 365 -10 250 -10 c 0
 138 -10 32 75 32 230 c 0
191 230 m 0
 191 158 241 112 301 112 c 0
 352 112 408 155 408 230 c 0
 408 305 352 348 301 348 c 0
 241 348 191 302 191 230 c 0
342 612 m 0
 342 660 381 694 430 694 c 0
 479 694 518 660 518 612 c 0
 518 564 479 531 430 531 c 0
 381 531 342 564 342 612 c 0
98 612 m 0
 98 660 137 694 186 694 c 0
 235 694 274 660 274 612 c 0
 274 564 235 531 186 531 c 0
 137 531 98 564 98 612 c 0
EndSplineSet
EndChar

StartChar: aring.alt
Encoding: 65542 -1 346
Width: 616
VWidth: 0
Flags: HMW
LayerCount: 2
Fore
SplineSet
409 460 m 1
 559 460 l 1
 559 0 l 1
 409 0 l 1
 409 460 l 1
32 230 m 0
 32 385 138 470 250 470 c 0
 365 470 450 379 450 230 c 0
 450 81 365 -10 250 -10 c 0
 138 -10 32 75 32 230 c 0
191 230 m 0
 191 158 241 112 301 112 c 0
 352 112 408 155 408 230 c 0
 408 305 352 348 301 348 c 0
 241 348 191 302 191 230 c 0
183 646 m 0
 183 715 237 762 307 762 c 0
 377 762 433 715 433 646 c 0
 433 577 377 531 307 531 c 0
 237 531 183 577 183 646 c 0
261 646 m 0
 261 616 282 599 307 599 c 0
 332 599 354 616 354 646 c 0
 354 676 332 694 307 694 c 0
 282 694 261 676 261 646 c 0
EndSplineSet
EndChar

StartChar: amacron.alt
Encoding: 65543 -1 347
Width: 616
VWidth: 0
Flags: HMW
LayerCount: 2
Fore
SplineSet
409 460 m 1
 559 460 l 1
 559 0 l 1
 409 0 l 1
 409 460 l 1
32 230 m 0
 32 385 138 470 250 470 c 0
 365 470 450 379 450 230 c 0
 450 81 365 -10 250 -10 c 0
 138 -10 32 75 32 230 c 0
191 230 m 0
 191 158 241 112 301 112 c 0
 352 112 408 155 408 230 c 0
 408 305 352 348 301 348 c 0
 241 348 191 302 191 230 c 0
125 531 m 1
 125 662 l 1
 496 662 l 1
 496 531 l 1
 125 531 l 1
EndSplineSet
EndChar

StartChar: abreve.alt
Encoding: 65544 -1 348
Width: 616
VWidth: 0
Flags: HMW
LayerCount: 2
Fore
SplineSet
409 460 m 1
 559 460 l 1
 559 0 l 1
 409 0 l 1
 409 460 l 1
32 230 m 0
 32 385 138 470 250 470 c 0
 365 470 450 379 450 230 c 0
 450 81 365 -10 250 -10 c 0
 138 -10 32 75 32 230 c 0
191 230 m 0
 191 158 241 112 301 112 c 0
 352 112 408 155 408 230 c 0
 408 305 352 348 301 348 c 0
 241 348 191 302 191 230 c 0
136 677 m 1
 235 677 l 1
 235 642 261 618 300 618 c 0
 339 618 366 642 366 677 c 1
 465 677 l 1
 465 595 405 531 300 531 c 0
 195 531 136 595 136 677 c 1
EndSplineSet
EndChar

StartChar: aogonek.alt
Encoding: 65545 -1 349
Width: 616
VWidth: 0
Flags: HMW
LayerCount: 2
Fore
SplineSet
409 460 m 1
 559 460 l 1
 559 0 l 1
 409 0 l 1
 409 460 l 1
32 230 m 0
 32 385 138 470 250 470 c 0
 365 470 450 379 450 230 c 0
 450 81 365 -10 250 -10 c 0
 138 -10 32 75 32 230 c 0
191 230 m 0
 191 158 241 112 301 112 c 0
 352 112 408 155 408 230 c 0
 408 305 352 348 301 348 c 0
 241 348 191 302 191 230 c 0
533 -111 m 1
 566 -180 l 1
 551 -200 522 -220 466 -220 c 0
 401 -220 349 -185 349 -120 c 0
 349 -55 417 -11 487 25 c 1
 528 0 l 1
 476 -28 448 -63 448 -94 c 0
 448 -119 459 -131 483 -131 c 0
 503 -131 519 -124 533 -111 c 1
EndSplineSet
EndChar

StartChar: dagger
Encoding: 8224 8224 350
Width: 632
VWidth: 0
Flags: HMW
LayerCount: 2
Fore
SplineSet
90 540 m 1
 542 540 l 1
 542 415 l 1
 90 415 l 1
 90 540 l 1
245 700 m 1
 388 700 l 1
 388 -150 l 1
 245 -150 l 1
 245 700 l 1
EndSplineSet
EndChar

StartChar: daggerdbl
Encoding: 8225 8225 351
Width: 632
VWidth: 0
Flags: HMW
LayerCount: 2
Fore
SplineSet
90 158 m 1
 542 158 l 1
 542 32 l 1
 90 32 l 1
 90 158 l 1
90 540 m 1
 542 540 l 1
 542 415 l 1
 90 415 l 1
 90 540 l 1
245 700 m 1
 388 700 l 1
 388 -150 l 1
 245 -150 l 1
 245 700 l 1
EndSplineSet
EndChar

StartChar: ellipsis
Encoding: 8230 8230 352
Width: 925
VWidth: 0
Flags: HMW
LayerCount: 2
Fore
SplineSet
67 68 m 0
 67 119 106 161 161 161 c 0
 216 161 256 119 256 68 c 0
 256 17 216 -24 161 -24 c 0
 106 -24 67 17 67 68 c 0
367 68 m 0
 367 119 406 161 461 161 c 0
 516 161 556 119 556 68 c 0
 556 17 516 -24 461 -24 c 0
 406 -24 367 17 367 68 c 0
667 68 m 0
 667 119 706 161 761 161 c 0
 816 161 856 119 856 68 c 0
 856 17 816 -24 761 -24 c 0
 706 -24 667 17 667 68 c 0
EndSplineSet
EndChar

StartChar: uniFF10
Encoding: 65296 65296 353
Width: 630
VWidth: 0
Flags: HMW
LayerCount: 2
Fore
SplineSet
186 350 m 0
 186 218 237 132 314 132 c 0
 391 132 442 218 442 350 c 0
 442 482 391 568 314 568 c 0
 237 568 186 482 186 350 c 0
23 350 m 0
 23 578 141 713 314 713 c 0
 493 713 606 578 606 350 c 0
 606 122 493 -13 314 -13 c 0
 141 -13 23 122 23 350 c 0
EndSplineSet
EndChar

StartChar: uniFF11
Encoding: 65297 65297 354
Width: 630
VWidth: 0
Flags: HMW
LayerCount: 2
Fore
SplineSet
109 498 m 1
 109 645 l 1
 446 713 l 1
 446 0 l 1
 282 0 l 1
 282 540 l 1
 109 498 l 1
EndSplineSet
EndChar

StartChar: uniFF12
Encoding: 65298 65298 355
Width: 630
VWidth: 0
Flags: HMW
LayerCount: 2
Fore
SplineSet
13 0 m 1
 325 323 l 2
 381 383 415 425 415 480 c 0
 415 525 386 568 322 568 c 0
 257 568 212 516 212 441 c 1
 47 441 l 1
 47 590 145 714 327 714 c 0
 500 714 590 598 590 488 c 0
 590 413 550 353 489 301 c 2
 326 155 l 1
 607 155 l 1
 607 0 l 1
 13 0 l 1
EndSplineSet
EndChar

StartChar: uniFF13
Encoding: 65299 65299 356
Width: 630
VWidth: 0
Flags: HMW
LayerCount: 2
Fore
SplineSet
273 339 m 1
 273 415 l 1
 351 415 402 458 402 508 c 0
 402 549 376 578 323 578 c 0
 271 578 232 543 232 495 c 1
 76 495 l 1
 76 620 174 713 323 713 c 0
 481 713 570 627 570 519 c 0
 570 398 439 339 273 339 c 1
316 -16 m 0
 147 -16 46 97 46 222 c 1
 213 222 l 1
 213 153 264 120 322 120 c 0
 380 120 422 148 422 208 c 0
 422 266 375 306 273 306 c 1
 273 392 l 1
 458 392 590 333 590 191 c 0
 590 69 488 -16 316 -16 c 0
EndSplineSet
EndChar

StartChar: uniFF14
Encoding: 65300 65300 357
Width: 630
VWidth: 0
Flags: HMW
LayerCount: 2
Fore
SplineSet
12 124 m 1
 150 246 l 1
 428 246 l 0
 446 268 l 0
 610 268 l 1
 610 124 l 1
 12 124 l 1
170 174 m 1
 12 124 l 1
 387 700 l 1
 513 700 l 1
 513 0 l 1
 337 0 l 1
 337 160 l 0
 356 171 l 0
 356 455 l 1
 170 174 l 1
EndSplineSet
EndChar

StartChar: uniFF15
Encoding: 65301 65301 358
Width: 630
VWidth: 0
Flags: HMW
LayerCount: 2
Fore
SplineSet
591 224 m 0
 591 59 443 -13 308 -13 c 0
 179 -13 93 29 28 78 c 1
 94 217 l 1
 150 169 219 142 271 142 c 0
 355 142 406 174 406 242 c 0
 406 310 339 340 271 340 c 0
 217 340 145 332 74 296 c 1
 192 380 l 1
 244 436 306 453 378 453 c 0
 489 453 591 369 591 224 c 0
295 553 m 1
 237 380 l 1
 74 296 l 1
 171 700 l 1
 576 700 l 1
 576 553 l 1
 295 553 l 1
EndSplineSet
EndChar

StartChar: uniFF16
Encoding: 65302 65302 359
Width: 630
VWidth: 0
Flags: HMW
LayerCount: 2
Fore
SplineSet
197 246 m 0
 197 175 247 128 314 128 c 0
 381 128 432 175 432 246 c 0
 432 317 381 365 314 365 c 0
 247 365 197 317 197 246 c 0
313 697 m 1
 527 697 l 1
 301 444 l 1
 266 429 l 1
 304 465 333 473 383 473 c 0
 488 473 599 388 599 246 c 0
 599 74 471 -16 314 -16 c 0
 157 -16 30 74 30 246 c 0
 30 322 65 385 111 441 c 2
 313 697 l 1
EndSplineSet
EndChar

StartChar: uniFF17
Encoding: 65303 65303 360
Width: 630
VWidth: 0
Flags: HMW
LayerCount: 2
Fore
SplineSet
39 542 m 1
 39 700 l 1
 610 700 l 1
 271 0 l 1
 89 0 l 1
 361 542 l 1
 39 542 l 1
EndSplineSet
EndChar

StartChar: uniFF18
Encoding: 65304 65304 361
Width: 630
VWidth: 0
Flags: HMW
LayerCount: 2
Fore
SplineSet
91 531 m 0
 91 649 199 716 328 716 c 0
 457 716 564 649 564 531 c 0
 564 403 443 342 328 342 c 0
 213 342 91 403 91 531 c 0
250 515 m 0
 250 468 284 435 328 435 c 0
 372 435 405 468 405 515 c 0
 405 562 374 594 328 594 c 0
 282 594 250 562 250 515 c 0
66 190 m 0
 66 338 213 396 328 396 c 0
 443 396 589 338 589 190 c 0
 589 62 466 -16 328 -16 c 0
 190 -16 66 62 66 190 c 0
234 216 m 0
 234 155 277 121 328 121 c 0
 379 121 421 155 421 216 c 0
 421 267 379 307 328 307 c 0
 277 307 234 267 234 216 c 0
EndSplineSet
EndChar

StartChar: uniFF19
Encoding: 65305 65305 362
Width: 630
VWidth: 0
Flags: HMW
LayerCount: 2
Fore
SplineSet
432 454 m 0
 432 525 381 572 314 572 c 0
 247 572 197 525 197 454 c 0
 197 383 247 335 314 335 c 0
 381 335 432 383 432 454 c 0
316 3 m 1
 102 3 l 1
 328 256 l 1
 363 271 l 1
 325 235 296 227 246 227 c 0
 141 227 30 312 30 454 c 0
 30 626 157 716 314 716 c 0
 471 716 599 626 599 454 c 0
 599 378 564 315 518 259 c 2
 316 3 l 1
EndSplineSet
EndChar

StartChar: caron
Encoding: 711 711 363
Width: 480
VWidth: 0
Flags: HMW
LayerCount: 2
Fore
SplineSet
240 676 m 1
 331 762 l 1
 438 691 l 1
 240 551 l 1
 42 691 l 1
 149 762 l 1
 240 676 l 1
EndSplineSet
EndChar

StartChar: napostrophe
Encoding: 329 329 364
Width: 747
VWidth: 0
Flags: HMW
LayerCount: 2
Fore
SplineSet
384 460 m 1
 384 0 l 1
 232 0 l 1
 232 460 l 1
 384 460 l 1
530 280 m 2
 530 334 512 364 463 364 c 0
 415 364 384 334 384 280 c 1
 354 274 l 1
 354 383 410 471 524 471 c 0
 638 471 688 409 688 296 c 2
 688 0 l 1
 530 0 l 1
 530 280 l 2
111 700 m 1
 269 700 l 1
 166 445 l 1
 58 445 l 1
 111 700 l 1
EndSplineSet
EndChar

StartChar: IJ
Encoding: 306 306 365
Width: 624
VWidth: 0
Flags: HMW
LayerCount: 2
Fore
SplineSet
222 -63 m 1
 242 -81 273 -96 303 -96 c 0
 333 -96 368 -76 368 -16 c 2
 368 700 l 1
 551 700 l 1
 551 -54 l 2
 551 -188 445 -239 320 -239 c 0
 242 -239 170 -208 130 -182 c 1
 222 -63 l 1
74 700 m 1
 246 700 l 1
 246 0 l 1
 74 0 l 1
 74 700 l 1
EndSplineSet
EndChar

StartChar: ij
Encoding: 307 307 366
Width: 545
VWidth: 0
Flags: HMW
LayerCount: 2
Fore
SplineSet
319 632 m 0
 319 680 358 714 407 714 c 0
 456 714 495 680 495 632 c 0
 495 584 456 551 407 551 c 0
 358 551 319 584 319 632 c 0
239 -77 m 1
 252 -95 268 -102 286 -102 c 0
 316 -102 334 -81 334 -34 c 2
 334 460 l 1
 479 460 l 1
 479 -72 l 2
 479 -175 421 -239 306 -239 c 0
 238 -239 199 -208 178 -188 c 1
 239 -77 l 1
50 632 m 0
 50 680 89 714 138 714 c 0
 187 714 226 680 226 632 c 0
 226 584 187 551 138 551 c 0
 89 551 50 584 50 632 c 0
64 460 m 1
 211 460 l 1
 211 0 l 1
 64 0 l 1
 64 460 l 1
EndSplineSet
EndChar

StartChar: uni0237
Encoding: 567 567 367
Width: 271
VWidth: 0
Flags: HMW
LayerCount: 2
Fore
SplineSet
-33 -77 m 1
 -20 -95 -5 -102 13 -102 c 0
 43 -102 61 -81 61 -34 c 2
 61 460 l 1
 207 460 l 1
 207 -72 l 2
 207 -175 148 -239 33 -239 c 0
 -35 -239 -73 -208 -94 -188 c 1
 -33 -77 l 1
EndSplineSet
EndChar

StartChar: Sacute
Encoding: 346 346 368
Width: 625
VWidth: 0
Flags: HMW
LayerCount: 2
Fore
SplineSet
153 251 m 1
 201 167 249 125 323 125 c 0
 378 125 408 148 408 193 c 0
 408 252 344 270 264 302 c 0
 195 329 74 383 74 519 c 0
 74 637 176 716 321 716 c 0
 471 716 549 633 577 562 c 1
 449 489 l 1
 419 541 382 573 328 573 c 0
 279 573 248 549 248 513 c 0
 248 465 325 443 408 413 c 0
 505 379 587 317 587 196 c 0
 587 53 483 -22 319 -22 c 0
 191 -22 78 52 34 167 c 1
 153 251 l 1
501 926 m 1
 321 776 l 1
 236 819 l 1
 386 979 l 1
 501 926 l 1
EndSplineSet
EndChar

StartChar: sacute
Encoding: 347 347 369
Width: 456
VWidth: 0
Flags: HMW
LayerCount: 2
Fore
SplineSet
83 175 m 1
 151 115 203 98 235 98 c 0
 262 98 281 105 281 128 c 0
 281 162 212 172 158 197 c 0
 98 225 42 256 42 336 c 0
 42 424 126 470 225 470 c 0
 304 470 373 440 422 402 c 1
 368 303 l 1
 332 338 272 360 235 360 c 0
 203 360 187 352 187 332 c 0
 187 305 247 290 305 268 c 0
 370 243 432 210 432 130 c 0
 432 25 367 -19 255 -19 c 0
 157 -19 77 19 19 75 c 1
 83 175 l 1
405 681 m 1
 225 531 l 1
 139 573 l 1
 289 733 l 1
 405 681 l 1
EndSplineSet
EndChar

StartChar: Scircumflex
Encoding: 348 348 370
Width: 625
VWidth: 0
Flags: HMW
LayerCount: 2
Fore
SplineSet
153 251 m 1
 201 167 249 125 323 125 c 0
 378 125 408 148 408 193 c 0
 408 252 344 270 264 302 c 0
 195 329 74 383 74 519 c 0
 74 637 176 716 321 716 c 0
 471 716 549 633 577 562 c 1
 449 489 l 1
 419 541 382 573 328 573 c 0
 279 573 248 549 248 513 c 0
 248 465 325 443 408 413 c 0
 505 379 587 317 587 196 c 0
 587 53 483 -22 319 -22 c 0
 191 -22 78 52 34 167 c 1
 153 251 l 1
321 862 m 1
 230 776 l 1
 124 848 l 1
 321 988 l 1
 519 848 l 1
 412 776 l 1
 321 862 l 1
EndSplineSet
EndChar

StartChar: scircumflex
Encoding: 349 349 371
Width: 456
VWidth: 0
Flags: HMW
LayerCount: 2
Fore
SplineSet
83 175 m 1
 151 115 203 98 235 98 c 0
 262 98 281 105 281 128 c 0
 281 162 212 172 158 197 c 0
 98 225 42 256 42 336 c 0
 42 424 126 470 225 470 c 0
 304 470 373 440 422 402 c 1
 368 303 l 1
 332 338 272 360 235 360 c 0
 203 360 187 352 187 332 c 0
 187 305 247 290 305 268 c 0
 370 243 432 210 432 130 c 0
 432 25 367 -19 255 -19 c 0
 157 -19 77 19 19 75 c 1
 83 175 l 1
237 616 m 1
 146 531 l 1
 40 602 l 1
 237 742 l 1
 435 602 l 1
 329 531 l 1
 237 616 l 1
EndSplineSet
EndChar

StartChar: uni1E9E
Encoding: 7838 7838 372
Width: 814
VWidth: 0
Flags: HMW
LayerCount: 2
Fore
SplineSet
541 -12 m 0
 686 -12 773 59 773 174 c 0
 773 313 635 313 635 360 c 0
 635 396 717 436 717 536 c 0
 717 636 620 716 430 716 c 0
 183 716 80 580 80 366 c 2
 80 -2 l 1
 255 -2 l 1
 254 350 l 2
 254 486 314 562 427 562 c 0
 494 562 533 531 533 495 c 0
 533 439 448 430 448 358 c 0
 448 265 594 278 594 191 c 0
 594 147 551 129 498 129 c 0
 452 129 401 145 344 171 c 1
 305 34 l 1
 371 6 456 -12 541 -12 c 0
EndSplineSet
EndChar

StartChar: Zacute
Encoding: 377 377 373
Width: 620
VWidth: 0
Flags: HW
LayerCount: 2
Fore
SplineSet
57 548 m 1
 57 700 l 1
 606 700 l 1
 276 146 l 1
 571 146 l 1
 571 0 l 1
 9 0 l 1
 335 548 l 1
 57 548 l 1
504 926 m 1
 324 776 l 1
 238 819 l 1
 388 979 l 1
 504 926 l 1
EndSplineSet
EndChar

StartChar: zacute
Encoding: 378 378 374
Width: 522
VWidth: 0
Flags: HW
LayerCount: 2
Fore
SplineSet
256 322 m 1
 58 322 l 1
 58 460 l 1
 508 460 l 1
 278 138 l 1
 475 138 l 1
 475 0 l 1
 15 0 l 1
 256 322 l 1
455 688 m 1
 275 538 l 1
 189 581 l 1
 339 741 l 1
 455 688 l 1
EndSplineSet
EndChar

StartChar: Zdotaccent
Encoding: 379 379 375
Width: 620
VWidth: 0
Flags: HW
LayerCount: 2
Fore
SplineSet
57 548 m 1
 57 700 l 1
 606 700 l 1
 276 146 l 1
 571 146 l 1
 571 0 l 1
 9 0 l 1
 335 548 l 1
 57 548 l 1
243 858 m 0
 243 906 282 940 331 940 c 0
 380 940 419 906 419 858 c 0
 419 810 380 776 331 776 c 0
 282 776 243 810 243 858 c 0
EndSplineSet
EndChar

StartChar: zdotaccent
Encoding: 380 380 376
Width: 522
VWidth: 0
Flags: HW
LayerCount: 2
Fore
SplineSet
256 322 m 1
 58 322 l 1
 58 460 l 1
 508 460 l 1
 278 138 l 1
 475 138 l 1
 475 0 l 1
 15 0 l 1
 256 322 l 1
194 624 m 0
 194 672 233 706 282 706 c 0
 331 706 371 672 371 624 c 0
 371 576 331 542 282 542 c 0
 233 542 194 576 194 624 c 0
EndSplineSet
EndChar

StartChar: Tcaron
Encoding: 356 356 377
Width: 561
VWidth: 0
Flags: HW
LayerCount: 2
Fore
SplineSet
4 548 m 1
 4 700 l 1
 558 700 l 1
 558 548 l 1
 366 548 l 1
 366 0 l 1
 196 0 l 1
 196 548 l 1
 4 548 l 1
281 902 m 1
 372 988 l 1
 478 916 l 1
 281 776 l 1
 83 916 l 1
 190 988 l 1
 281 902 l 1
EndSplineSet
EndChar

StartChar: tcaron
Encoding: 357 357 378
Width: 484
VWidth: 0
Flags: HW
LayerCount: 2
Fore
SplineSet
5 460 m 1
 313 460 l 1
 313 335 l 1
 5 335 l 1
 5 460 l 1
86 620 m 1
 232 620 l 1
 232 0 l 1
 86 0 l 1
 86 620 l 1
381 786 m 1
 532 754 l 1
 407 504 l 1
 293 527 l 1
 381 786 l 1
EndSplineSet
EndChar

StartChar: Uring
Encoding: 366 366 379
Width: 701
VWidth: 0
Flags: HW
LayerCount: 2
Fore
SplineSet
69 700 m 1
 238 700 l 1
 238 242 l 2
 238 171 275 123 350 123 c 0
 425 123 463 171 463 242 c 2
 463 700 l 1
 632 700 l 1
 632 230 l 2
 632 54 508 -29 350 -29 c 0
 192 -29 69 54 69 230 c 2
 69 700 l 1
225 892 m 0
 225 961 280 1008 350 1008 c 0
 420 1008 476 961 476 892 c 0
 476 823 420 776 350 776 c 0
 280 776 225 823 225 892 c 0
304 892 m 0
 304 862 325 844 350 844 c 0
 375 844 396 862 396 892 c 0
 396 922 375 940 350 940 c 0
 325 940 304 922 304 892 c 0
EndSplineSet
EndChar

StartChar: uring
Encoding: 367 367 380
Width: 575
VWidth: 0
Flags: HW
LayerCount: 2
Fore
SplineSet
364 0 m 1
 364 460 l 1
 516 460 l 1
 516 0 l 1
 364 0 l 1
218 180 m 2
 218 126 235 96 284 96 c 0
 332 96 364 126 364 180 c 1
 390 186 l 1
 390 77 338 -11 224 -11 c 0
 110 -11 59 51 59 164 c 2
 59 460 l 1
 218 460 l 1
 218 180 l 2
162 646 m 0
 162 715 217 762 287 762 c 0
 357 762 413 715 413 646 c 0
 413 577 357 531 287 531 c 0
 217 531 162 577 162 646 c 0
241 646 m 0
 241 616 262 599 287 599 c 0
 312 599 334 616 334 646 c 0
 334 676 312 694 287 694 c 0
 262 694 241 676 241 646 c 0
EndSplineSet
EndChar

StartChar: Wcircumflex
Encoding: 372 372 381
Width: 1065
VWidth: 0
Flags: HW
LayerCount: 2
Fore
SplineSet
729 285 m 1
 860 700 l 1
 1061 700 l 1
 758 -41 l 1
 532 380 l 1
 307 -41 l 1
 4 700 l 1
 205 700 l 1
 336 285 l 1
 532 735 l 1
 729 285 l 1
532 881 m 1
 441 795 l 1
 335 866 l 1
 532 1006 l 1
 730 866 l 1
 624 795 l 1
 532 881 l 1
EndSplineSet
EndChar

StartChar: wcircumflex
Encoding: 373 373 382
Width: 761
VWidth: 0
Flags: HW
LayerCount: 2
Fore
SplineSet
-8 460 m 1
 151 460 l 1
 247 225 l 1
 379 495 l 1
 514 224 l 1
 610 460 l 1
 769 460 l 1
 531 -29 l 1
 379 244 l 1
 230 -29 l 1
 -8 460 l 1
379 641 m 1
 288 555 l 1
 181 626 l 1
 379 766 l 1
 576 626 l 1
 470 555 l 1
 379 641 l 1
EndSplineSet
EndChar

StartChar: Ycircumflex
Encoding: 374 374 383
Width: 660
VWidth: 0
Flags: HW
LayerCount: 2
Fore
SplineSet
467 700 m 1
 662 700 l 1
 417 285 l 1
 417 0 l 1
 244 0 l 1
 244 284 l 1
 -1 700 l 1
 194 700 l 1
 330 437 l 1
 467 700 l 1
330 862 m 1
 239 776 l 1
 133 848 l 1
 330 988 l 1
 528 848 l 1
 421 776 l 1
 330 862 l 1
EndSplineSet
EndChar

StartChar: ycircumflex
Encoding: 375 375 384
Width: 521
VWidth: 0
Flags: HW
LayerCount: 2
Fore
SplineSet
531 460 m 1
 231 -220 l 1
 78 -220 l 1
 190 37 l 1
 -9 460 l 1
 158 460 l 1
 306 91 l 1
 228 92 l 1
 375 460 l 1
 531 460 l 1
261 616 m 1
 169 531 l 1
 63 602 l 1
 261 742 l 1
 458 602 l 1
 352 531 l 1
 261 616 l 1
EndSplineSet
EndChar

StartChar: uni0123
Encoding: 291 291 385
Width: 570
VWidth: 0
Flags: HW
LayerCount: 2
Fore
SplineSet
42 -33 m 1
 189 -33 l 1
 194 -90 234 -118 293 -118 c 0
 357 -118 408 -75 408 10 c 2
 408 460 l 1
 553 460 l 1
 553 10 l 2
 553 -168 440 -239 300 -239 c 0
 128 -239 53 -155 42 -33 c 1
32 236 m 0
 32 391 138 470 250 470 c 0
 365 470 450 385 450 236 c 0
 450 87 365 2 250 2 c 0
 138 2 32 81 32 236 c 0
191 236 m 0
 191 164 241 124 301 124 c 0
 352 124 408 161 408 236 c 0
 408 311 352 348 301 348 c 0
 241 348 191 308 191 236 c 0
310 542 m 1
 165 597 l 1
 327 825 l 1
 437 784 l 1
 310 542 l 1
EndSplineSet
EndChar

StartChar: Hbar
Encoding: 294 294 386
Width: 786
VWidth: 0
Flags: HW
LayerCount: 2
Fore
SplineSet
121 293 m 1
 121 445 l 1
 651 445 l 1
 651 293 l 1
 121 293 l 1
544 700 m 1
 713 700 l 1
 713 0 l 1
 544 0 l 1
 544 700 l 1
74 700 m 1
 243 700 l 1
 243 0 l 1
 74 0 l 1
 74 700 l 1
5 537 m 1
 5 643 l 1
 782 643 l 1
 782 537 l 1
 5 537 l 1
EndSplineSet
EndChar

StartChar: hbar
Encoding: 295 295 387
Width: 568
VWidth: 0
Flags: HW
LayerCount: 2
Fore
SplineSet
211 780 m 1
 211 0 l 1
 59 0 l 1
 59 780 l 1
 211 780 l 1
358 280 m 2
 358 334 340 364 291 364 c 0
 243 364 211 334 211 280 c 1
 185 280 l 1
 185 389 237 477 351 477 c 0
 465 477 509 415 509 302 c 2
 509 0 l 1
 358 0 l 1
 358 280 l 2
5 597 m 1
 5 728 l 1
 337 728 l 1
 337 597 l 1
 5 597 l 1
EndSplineSet
EndChar

StartChar: Utilde
Encoding: 360 360 388
Width: 701
VWidth: 0
Flags: HW
LayerCount: 2
Fore
SplineSet
69 700 m 1
 238 700 l 1
 238 242 l 2
 238 171 275 123 350 123 c 0
 425 123 463 171 463 242 c 2
 463 700 l 1
 632 700 l 1
 632 230 l 2
 632 54 508 -29 350 -29 c 0
 192 -29 69 54 69 230 c 2
 69 700 l 1
154 842 m 1
 164 891 210 936 274 936 c 0
 340 936 354 884 410 884 c 0
 435 884 456 906 476 938 c 1
 547 863 l 1
 531 826 475 778 413 778 c 0
 358 778 322 831 273 831 c 0
 235 831 226 795 226 780 c 1
 154 842 l 1
EndSplineSet
EndChar

StartChar: utilde
Encoding: 361 361 389
Width: 575
VWidth: 0
Flags: HW
LayerCount: 2
Fore
SplineSet
364 0 m 1
 364 460 l 1
 516 460 l 1
 516 0 l 1
 364 0 l 1
218 180 m 2
 218 126 235 96 284 96 c 0
 332 96 364 126 364 180 c 1
 390 186 l 1
 390 77 338 -11 224 -11 c 0
 110 -11 59 51 59 164 c 2
 59 460 l 1
 218 460 l 1
 218 180 l 2
91 596 m 1
 101 645 147 691 211 691 c 0
 277 691 291 639 347 639 c 0
 372 639 393 660 413 692 c 1
 484 618 l 1
 468 581 412 532 350 532 c 0
 295 532 259 585 210 585 c 0
 172 585 163 549 163 534 c 1
 91 596 l 1
EndSplineSet
EndChar

StartChar: Umacron
Encoding: 362 362 390
Width: 701
VWidth: 0
Flags: HW
LayerCount: 2
Fore
SplineSet
69 700 m 1
 238 700 l 1
 238 242 l 2
 238 171 275 123 350 123 c 0
 425 123 463 171 463 242 c 2
 463 700 l 1
 632 700 l 1
 632 230 l 2
 632 54 508 -29 350 -29 c 0
 192 -29 69 54 69 230 c 2
 69 700 l 1
165 776 m 1
 165 908 l 1
 537 908 l 1
 537 776 l 1
 165 776 l 1
EndSplineSet
EndChar

StartChar: umacron
Encoding: 363 363 391
Width: 575
VWidth: 0
Flags: HW
LayerCount: 2
Fore
SplineSet
364 0 m 1
 364 460 l 1
 516 460 l 1
 516 0 l 1
 364 0 l 1
218 180 m 2
 218 126 235 96 284 96 c 0
 332 96 364 126 364 180 c 1
 390 186 l 1
 390 77 338 -11 224 -11 c 0
 110 -11 59 51 59 164 c 2
 59 460 l 1
 218 460 l 1
 218 180 l 2
102 531 m 1
 102 662 l 1
 474 662 l 1
 474 531 l 1
 102 531 l 1
EndSplineSet
EndChar

StartChar: Ubreve
Encoding: 364 364 392
Width: 701
VWidth: 0
Flags: HW
LayerCount: 2
Fore
SplineSet
69 700 m 1
 238 700 l 1
 238 242 l 2
 238 171 275 123 350 123 c 0
 425 123 463 171 463 242 c 2
 463 700 l 1
 632 700 l 1
 632 230 l 2
 632 54 508 -29 350 -29 c 0
 192 -29 69 54 69 230 c 2
 69 700 l 1
186 922 m 1
 285 922 l 1
 285 887 311 863 350 863 c 0
 389 863 416 887 416 922 c 1
 515 922 l 1
 515 840 455 776 350 776 c 0
 245 776 186 840 186 922 c 1
EndSplineSet
EndChar

StartChar: ubreve
Encoding: 365 365 393
Width: 575
VWidth: 0
Flags: HW
LayerCount: 2
Fore
SplineSet
364 0 m 1
 364 460 l 1
 516 460 l 1
 516 0 l 1
 364 0 l 1
218 180 m 2
 218 126 235 96 284 96 c 0
 332 96 364 126 364 180 c 1
 390 186 l 1
 390 77 338 -11 224 -11 c 0
 110 -11 59 51 59 164 c 2
 59 460 l 1
 218 460 l 1
 218 180 l 2
123 677 m 1
 222 677 l 1
 222 642 249 618 288 618 c 0
 327 618 353 642 353 677 c 1
 452 677 l 1
 452 595 393 531 288 531 c 0
 183 531 123 595 123 677 c 1
EndSplineSet
EndChar

StartChar: uni0400
Encoding: 1024 1024 394
Width: 603
VWidth: 0
Flags: HW
LayerCount: 2
Fore
SplineSet
186 0 m 1
 186 139 l 1
 539 139 l 1
 539 0 l 1
 186 0 l 1
186 561 m 1
 186 700 l 1
 539 700 l 1
 539 561 l 1
 186 561 l 1
186 299 m 1
 186 436 l 1
 519 436 l 1
 519 299 l 1
 186 299 l 1
74 700 m 1
 237 700 l 1
 237 0 l 1
 74 0 l 1
 74 700 l 1
127 926 m 1
 242 979 l 1
 392 819 l 1
 307 776 l 1
 127 926 l 1
EndSplineSet
EndChar

StartChar: uni0401
Encoding: 1025 1025 395
Width: 603
VWidth: 0
Flags: HW
LayerCount: 2
Fore
SplineSet
186 0 m 1
 186 139 l 1
 539 139 l 1
 539 0 l 1
 186 0 l 1
186 561 m 1
 186 700 l 1
 539 700 l 1
 539 561 l 1
 186 561 l 1
186 299 m 1
 186 436 l 1
 519 436 l 1
 519 299 l 1
 186 299 l 1
74 700 m 1
 237 700 l 1
 237 0 l 1
 74 0 l 1
 74 700 l 1
340 858 m 0
 340 906 379 940 428 940 c 0
 477 940 517 906 517 858 c 0
 517 810 477 776 428 776 c 0
 379 776 340 810 340 858 c 0
97 858 m 0
 97 906 136 940 185 940 c 0
 234 940 273 906 273 858 c 0
 273 810 234 776 185 776 c 0
 136 776 97 810 97 858 c 0
EndSplineSet
EndChar

StartChar: uni0403
Encoding: 1027 1027 396
Width: 506
VWidth: 0
Flags: HW
LayerCount: 2
Fore
SplineSet
80 700 m 1
 497 700 l 1
 497 548 l 1
 249 548 l 1
 249 0 l 1
 80 0 l 1
 80 700 l 1
468 926 m 1
 288 776 l 1
 203 819 l 1
 353 979 l 1
 468 926 l 1
EndSplineSet
EndChar

StartChar: uni040C
Encoding: 1036 1036 397
Width: 700
VWidth: 0
Flags: HW
LayerCount: 2
Fore
SplineSet
74 700 m 1
 249 700 l 1
 249 0 l 1
 74 0 l 1
 74 700 l 1
487 700 m 1
 686 700 l 1
 402 372 l 1
 701 0 l 1
 496 0 l 1
 200 367 l 1
 487 700 l 1
560 926 m 1
 380 776 l 1
 294 819 l 1
 444 979 l 1
 560 926 l 1
EndSplineSet
EndChar

StartChar: uni040D
Encoding: 1037 1037 398
Width: 793
VWidth: 0
Flags: HW
LayerCount: 2
Fore
SplineSet
715 524 m 1
 74 -35 l 1
 79 176 l 1
 720 735 l 1
 715 524 l 1
237 700 m 1
 237 131 l 1
 74 -35 l 1
 74 700 l 1
 237 700 l 1
720 735 m 1
 720 0 l 1
 557 0 l 1
 557 562 l 1
 720 735 l 1
249 908 m 1
 364 960 l 1
 514 800 l 1
 429 758 l 1
 249 908 l 1
EndSplineSet
EndChar

StartChar: uni040E
Encoding: 1038 1038 399
Width: 605
VWidth: 0
Flags: HW
LayerCount: 2
Fore
SplineSet
615 700 m 1
 286 0 l 1
 119 0 l 1
 214 213 l 1
 -9 700 l 1
 174 700 l 1
 332 283 l 1
 259 285 l 1
 445 700 l 1
 615 700 l 1
140 922 m 1
 239 922 l 1
 239 887 265 863 304 863 c 0
 343 863 369 887 369 922 c 1
 468 922 l 1
 468 840 409 776 304 776 c 0
 199 776 140 840 140 922 c 1
EndSplineSet
EndChar

StartChar: uni0410
Encoding: 1040 1040 400
Width: 735
VWidth: 0
Flags: HW
LayerCount: 2
Fore
SplineSet
184 135 m 1
 196 264 l 1
 543 264 l 1
 554 135 l 1
 184 135 l 1
368 442 m 1
 270 217 l 1
 277 179 l 1
 191 0 l 1
 -1 0 l 1
 368 744 l 1
 736 0 l 1
 544 0 l 1
 460 172 l 1
 466 216 l 1
 368 442 l 1
EndSplineSet
EndChar

StartChar: uni0411
Encoding: 1041 1041 401
Width: 673
VWidth: 0
Flags: HW
LayerCount: 2
Fore
SplineSet
127 299 m 1
 127 436 l 1
 395 436 l 2
 530 436 633 348 633 219 c 0
 633 90 530 0 395 0 c 2
 127 0 l 1
 127 139 l 1
 358 139 l 2
 423 139 460 164 460 219 c 0
 460 274 423 299 358 299 c 2
 127 299 l 1
80 700 m 1
 580 700 l 1
 580 561 l 1
 252 561 l 1
 252 0 l 1
 80 0 l 1
 80 700 l 1
EndSplineSet
EndChar

StartChar: uni0412
Encoding: 1042 1042 402
Width: 664
VWidth: 0
Flags: HW
LayerCount: 2
Fore
SplineSet
200 348 m 1
 200 422 l 1
 313 422 l 2
 371 422 405 450 405 497 c 0
 405 544 371 569 313 569 c 2
 243 569 l 1
 243 131 l 1
 329 131 l 2
 394 131 445 154 445 221 c 0
 445 282 394 304 329 304 c 2
 200 304 l 1
 200 396 l 1
 348 396 l 2
 483 396 620 339 620 197 c 0
 620 58 514 0 348 0 c 2
 74 0 l 1
 74 700 l 1
 332 700 l 2
 476 700 580 641 580 522 c 0
 580 410 476 348 332 348 c 2
 200 348 l 1
EndSplineSet
EndChar

StartChar: uni0413
Encoding: 1043 1043 403
Width: 506
VWidth: 0
Flags: HW
LayerCount: 2
Fore
SplineSet
80 700 m 1
 497 700 l 1
 497 548 l 1
 249 548 l 1
 249 0 l 1
 80 0 l 1
 80 700 l 1
EndSplineSet
EndChar

StartChar: uni0414
Encoding: 1044 1044 404
Width: 882
VWidth: 0
Flags: HW
LayerCount: 2
Fore
SplineSet
439 430 m 1
 294 30 l 1
 98 30 l 1
 439 735 l 1
 780 30 l 1
 584 30 l 1
 439 430 l 1
669 0 m 1
 209 0 l 1
 209 -110 l 1
 40 -110 l 1
 40 146 l 1
 838 146 l 1
 838 -110 l 1
 669 -110 l 1
 669 0 l 1
EndSplineSet
EndChar

StartChar: uni0415
Encoding: 1045 1045 405
Width: 603
VWidth: 0
Flags: HW
LayerCount: 2
Fore
SplineSet
186 0 m 1
 186 139 l 1
 539 139 l 1
 539 0 l 1
 186 0 l 1
186 561 m 1
 186 700 l 1
 539 700 l 1
 539 561 l 1
 186 561 l 1
186 299 m 1
 186 436 l 1
 519 436 l 1
 519 299 l 1
 186 299 l 1
74 700 m 1
 237 700 l 1
 237 0 l 1
 74 0 l 1
 74 700 l 1
EndSplineSet
EndChar

StartChar: uni0416
Encoding: 1046 1046 406
Width: 1085
VWidth: 0
Flags: HW
LayerCount: 2
Fore
SplineSet
212 700 m 1
 501 370 l 1
 198 0 l 1
 -1 0 l 1
 304 372 l 1
 14 700 l 1
 212 700 l 1
457 700 m 1
 632 700 l 1
 632 0 l 1
 457 0 l 1
 457 700 l 1
867 700 m 1
 1072 700 l 1
 781 372 l 1
 1087 0 l 1
 882 0 l 1
 588 370 l 1
 867 700 l 1
EndSplineSet
EndChar

StartChar: uni0417
Encoding: 1047 1047 407
Width: 668
VWidth: 0
Flags: HW
LayerCount: 2
Fore
SplineSet
305 339 m 1
 305 415 l 1
 403 415 452 452 452 502 c 0
 452 546 416 578 349 578 c 0
 277 578 234 543 234 495 c 1
 78 495 l 1
 78 620 173 713 349 713 c 0
 527 713 619 627 619 519 c 0
 619 398 479 339 305 339 c 1
354 -16 m 0
 142 -16 48 97 48 222 c 1
 215 222 l 1
 218 153 271 120 347 120 c 0
 423 120 472 148 472 208 c 0
 472 266 421 306 305 306 c 1
 305 392 l 1
 497 392 639 333 639 191 c 0
 639 69 543 -16 354 -16 c 0
EndSplineSet
EndChar

StartChar: uni0418
Encoding: 1048 1048 408
Width: 793
VWidth: 0
Flags: HW
LayerCount: 2
Fore
SplineSet
715 524 m 1
 74 -35 l 1
 79 176 l 1
 720 735 l 1
 715 524 l 1
237 700 m 1
 237 131 l 1
 74 -35 l 1
 74 700 l 1
 237 700 l 1
720 735 m 1
 720 0 l 1
 557 0 l 1
 557 562 l 1
 720 735 l 1
EndSplineSet
EndChar

StartChar: uni0419
Encoding: 1049 1049 409
Width: 793
VWidth: 0
Flags: HW
LayerCount: 2
Fore
SplineSet
715 524 m 1
 74 -35 l 1
 79 176 l 1
 720 735 l 1
 715 524 l 1
237 700 m 1
 237 131 l 1
 74 -35 l 1
 74 700 l 1
 237 700 l 1
720 735 m 1
 720 0 l 1
 557 0 l 1
 557 562 l 1
 720 735 l 1
257 918 m 1
 356 918 l 1
 356 883 382 858 421 858 c 0
 460 858 486 883 486 918 c 1
 586 918 l 1
 586 836 526 771 421 771 c 0
 316 771 257 836 257 918 c 1
EndSplineSet
EndChar

StartChar: uni041A
Encoding: 1050 1050 410
Width: 700
VWidth: 0
Flags: HW
LayerCount: 2
Fore
SplineSet
74 700 m 1
 249 700 l 1
 249 0 l 1
 74 0 l 1
 74 700 l 1
487 700 m 1
 686 700 l 1
 402 372 l 1
 701 0 l 1
 496 0 l 1
 200 367 l 1
 487 700 l 1
EndSplineSet
EndChar

StartChar: uni041B
Encoding: 1051 1051 411
Width: 770
VWidth: 0
Flags: HW
LayerCount: 2
Fore
SplineSet
690 700 m 25
 690 0 l 1
 518 0 l 1
 518 548 l 1
 286 548 l 25
 286 296 l 2
 286 98 205 0 10 0 c 1
 10 143 l 1
 76 143 116 199 116 286 c 2
 116 700 l 25
 690 700 l 25
EndSplineSet
EndChar

StartChar: uni041C
Encoding: 1052 1052 412
Width: 891
VWidth: 0
Flags: HW
LayerCount: 2
Fore
SplineSet
255 356 m 1
 212 0 l 1
 34 0 l 1
 147 735 l 1
 446 309 l 1
 744 735 l 1
 858 0 l 1
 679 0 l 1
 637 356 l 1
 446 65 l 1
 255 356 l 1
EndSplineSet
EndChar

StartChar: uni041D
Encoding: 1053 1053 413
Width: 786
VWidth: 0
Flags: HW
LayerCount: 2
Fore
SplineSet
121 293 m 1
 121 445 l 1
 651 445 l 1
 651 293 l 1
 121 293 l 1
544 700 m 1
 713 700 l 1
 713 0 l 1
 544 0 l 1
 544 700 l 1
74 700 m 1
 243 700 l 1
 243 0 l 1
 74 0 l 1
 74 700 l 1
EndSplineSet
EndChar

StartChar: uni041E
Encoding: 1054 1054 414
Width: 821
VWidth: 0
Flags: HW
LayerCount: 2
Fore
SplineSet
213 350 m 0
 213 226 292 139 411 139 c 0
 530 139 608 226 608 350 c 0
 608 474 533 561 411 561 c 0
 292 561 213 474 213 350 c 0
34 350 m 0
 34 566 198 716 411 716 c 0
 627 716 788 566 788 350 c 0
 788 134 631 -22 411 -22 c 0
 191 -22 34 134 34 350 c 0
EndSplineSet
EndChar

StartChar: uni041F
Encoding: 1055 1055 415
Width: 771
VWidth: 0
Flags: HW
LayerCount: 2
Fore
SplineSet
519 548 m 1
 252 548 l 1
 252 0 l 1
 80 0 l 1
 80 700 l 1
 691 700 l 1
 691 0 l 1
 519 0 l 1
 519 548 l 1
EndSplineSet
EndChar

StartChar: uni0420
Encoding: 1056 1056 416
Width: 623
VWidth: 0
Flags: HW
LayerCount: 2
Fore
SplineSet
74 700 m 1
 243 700 l 1
 243 0 l 1
 74 0 l 1
 74 700 l 1
180 561 m 1
 180 700 l 1
 317 700 l 2
 496 700 589 613 589 471 c 0
 589 329 496 242 317 242 c 2
 180 242 l 1
 180 382 l 1
 317 382 l 2
 385 382 426 413 426 471 c 0
 426 529 385 561 317 561 c 2
 180 561 l 1
EndSplineSet
EndChar

StartChar: uni0421
Encoding: 1057 1057 417
Width: 700
VWidth: 0
Flags: HW
LayerCount: 2
Fore
SplineSet
219 350 m 0
 219 221 315 145 428 145 c 0
 527 145 591 188 637 238 c 1
 637 54 l 1
 581 11 520 -16 418 -16 c 0
 193 -16 34 132 34 350 c 0
 34 568 193 716 418 716 c 0
 520 716 581 689 637 646 c 1
 637 462 l 1
 591 512 527 555 428 555 c 0
 315 555 219 479 219 350 c 0
EndSplineSet
EndChar

StartChar: uni0422
Encoding: 1058 1058 418
Width: 561
VWidth: 0
Flags: HW
LayerCount: 2
Fore
SplineSet
4 548 m 1
 4 700 l 1
 558 700 l 1
 558 548 l 1
 366 548 l 1
 366 0 l 1
 196 0 l 1
 196 548 l 1
 4 548 l 1
EndSplineSet
EndChar

StartChar: uni0423
Encoding: 1059 1059 419
Width: 618
VWidth: 0
Flags: HW
LayerCount: 2
Fore
SplineSet
628 700 m 1
 298 0 l 1
 125 0 l 1
 220 213 l 1
 -9 700 l 1
 180 700 l 1
 338 283 l 1
 266 285 l 1
 451 700 l 1
 628 700 l 1
EndSplineSet
EndChar

StartChar: uni0424
Encoding: 1060 1060 420
Width: 933
VWidth: 0
Flags: HW
LayerCount: 2
Fore
SplineSet
380 700 m 1
 553 700 l 1
 553 0 l 1
 380 0 l 1
 380 700 l 1
720 350 m 0
 720 442 649 472 536 472 c 2
 398 472 l 2
 285 472 212 442 212 350 c 0
 212 258 285 228 398 228 c 2
 536 228 l 2
 649 228 720 258 720 350 c 0
893 350 m 0
 893 181 751 80 567 80 c 2
 366 80 l 2
 182 80 40 181 40 350 c 0
 40 519 182 620 366 620 c 2
 567 620 l 2
 751 620 893 519 893 350 c 0
EndSplineSet
EndChar

StartChar: uni0425
Encoding: 1061 1061 421
Width: 686
VWidth: 0
Flags: HW
LayerCount: 2
Fore
SplineSet
458 700 m 1
 668 700 l 1
 448 359 l 1
 682 0 l 1
 473 0 l 1
 345 232 l 1
 213 0 l 1
 4 0 l 1
 244 359 l 1
 29 700 l 1
 238 700 l 1
 347 497 l 1
 458 700 l 1
EndSplineSet
EndChar

StartChar: uni0426
Encoding: 1062 1062 422
Width: 860
VWidth: 0
Flags: HW
LayerCount: 2
Fore
SplineSet
246 152 m 1
 544 152 l 1
 544 700 l 1
 716 700 l 1
 716 152 l 1
 826 152 l 1
 826 -135 l 1
 664 -135 l 1
 664 0 l 1
 74 0 l 1
 74 700 l 1
 246 700 l 1
 246 152 l 1
EndSplineSet
EndChar

StartChar: uni0427
Encoding: 1063 1063 423
Width: 718
VWidth: 0
Flags: HW
LayerCount: 2
Fore
SplineSet
309 221 m 1
 359 371 l 1
 526 371 l 1
 526 221 l 1
 309 221 l 1
462 700 m 1
 638 700 l 1
 638 0 l 1
 462 0 l 1
 462 700 l 1
244 700 m 1
 244 490 l 2
 244 412 292 371 359 371 c 1
 309 221 l 1
 157 221 74 333 74 468 c 2
 74 700 l 1
 244 700 l 1
EndSplineSet
EndChar

StartChar: uni0428
Encoding: 1064 1064 424
Width: 1081
VWidth: 0
Flags: HW
LayerCount: 2
Fore
SplineSet
832 152 m 1
 832 700 l 1
 1002 700 l 1
 1002 0 l 1
 80 0 l 1
 80 700 l 1
 249 700 l 1
 249 152 l 1
 459 152 l 1
 459 700 l 1
 622 700 l 1
 622 152 l 1
 832 152 l 1
EndSplineSet
EndChar

StartChar: uni0429
Encoding: 1065 1065 425
Width: 1151
VWidth: 0
Flags: HW
LayerCount: 2
Fore
SplineSet
832 152 m 1
 832 700 l 1
 1002 700 l 1
 1002 152 l 1
 1112 152 l 1
 1112 -135 l 1
 949 -135 l 1
 949 0 l 1
 80 0 l 1
 80 700 l 1
 249 700 l 1
 249 152 l 1
 459 152 l 1
 459 700 l 1
 622 700 l 1
 622 152 l 1
 832 152 l 1
EndSplineSet
EndChar

StartChar: uni042A
Encoding: 1066 1066 426
Width: 736
VWidth: 0
Flags: HW
LayerCount: 2
Fore
SplineSet
293 318 m 1
 293 458 l 1
 430 458 l 2
 609 458 702 371 702 229 c 0
 702 87 609 0 430 0 c 2
 293 0 l 1
 293 139 l 1
 430 139 l 2
 498 139 539 171 539 229 c 0
 539 287 498 318 430 318 c 2
 293 318 l 1
190 549 m 1
 10 549 l 1
 10 700 l 1
 359 700 l 1
 359 0 l 1
 190 0 l 1
 190 549 l 1
EndSplineSet
EndChar

StartChar: uni042B
Encoding: 1067 1067 427
Width: 908
VWidth: 0
Flags: HW
LayerCount: 2
Fore
SplineSet
662 700 m 1
 835 700 l 1
 835 0 l 1
 662 0 l 1
 662 700 l 1
74 700 m 1
 243 700 l 1
 243 0 l 1
 74 0 l 1
 74 700 l 1
180 318 m 1
 180 458 l 1
 317 458 l 2
 496 458 589 371 589 229 c 0
 589 87 496 0 317 0 c 2
 180 0 l 1
 180 139 l 1
 317 139 l 2
 385 139 426 171 426 229 c 0
 426 287 385 318 317 318 c 2
 180 318 l 1
EndSplineSet
EndChar

StartChar: uni042C
Encoding: 1068 1068 428
Width: 623
VWidth: 0
Flags: HW
LayerCount: 2
Fore
SplineSet
74 700 m 1
 243 700 l 1
 243 0 l 1
 74 0 l 1
 74 700 l 1
180 318 m 1
 180 458 l 1
 317 458 l 2
 496 458 589 371 589 229 c 0
 589 87 496 0 317 0 c 2
 180 0 l 1
 180 139 l 1
 317 139 l 2
 385 139 426 171 426 229 c 0
 426 287 385 318 317 318 c 2
 180 318 l 1
EndSplineSet
EndChar

StartChar: uni042D
Encoding: 1069 1069 429
Width: 700
VWidth: 0
Flags: HW
LayerCount: 2
Fore
SplineSet
137 282 m 1
 137 418 l 1
 510 418 l 1
 510 282 l 1
 137 282 l 1
501 350 m 0
 501 479 385 561 272 561 c 0
 173 561 104 518 64 481 c 1
 64 646 l 1
 120 689 180 716 282 716 c 0
 507 716 667 568 667 350 c 0
 667 132 507 -16 282 -16 c 0
 180 -16 120 11 64 54 c 1
 64 219 l 1
 104 182 173 139 272 139 c 0
 385 139 501 221 501 350 c 0
EndSplineSet
EndChar

StartChar: uni042E
Encoding: 1070 1070 430
Width: 1142
VWidth: 0
Flags: HW
LayerCount: 2
Fore
SplineSet
121 293 m 1
 121 445 l 1
 460 445 l 1
 460 293 l 1
 121 293 l 1
74 700 m 1
 243 700 l 1
 243 0 l 1
 74 0 l 1
 74 700 l 1
534 350 m 0
 534 226 613 139 732 139 c 0
 851 139 929 226 929 350 c 0
 929 474 854 561 732 561 c 0
 613 561 534 474 534 350 c 0
355 350 m 0
 355 566 519 716 732 716 c 0
 948 716 1109 566 1109 350 c 0
 1109 134 952 -22 732 -22 c 0
 512 -22 355 134 355 350 c 0
EndSplineSet
EndChar

StartChar: uni042F
Encoding: 1071 1071 431
Width: 647
VWidth: 0
Flags: HW
LayerCount: 2
Fore
SplineSet
399 317 m 1
 202 0 l 1
 4 0 l 1
 222 317 l 1
 399 317 l 1
574 700 m 1
 574 0 l 1
 404 0 l 1
 404 700 l 1
 574 700 l 1
467 556 m 1
 331 556 l 2
 263 556 221 523 221 465 c 0
 221 407 263 374 331 374 c 2
 467 374 l 1
 467 242 l 1
 318 242 l 2
 139 242 46 336 46 471 c 0
 46 606 139 700 318 700 c 2
 467 700 l 1
 467 556 l 1
EndSplineSet
EndChar

StartChar: uni0430
Encoding: 1072 1072 432
Width: 544
VWidth: 0
Flags: HW
LayerCount: 2
Fore
SplineSet
177 138 m 0
 177 105 206 89 242 89 c 0
 297 89 345 112 345 186 c 1
 361 130 l 1
 361 41 286 -10 191 -10 c 0
 93 -10 24 40 24 131 c 0
 24 222 102 279 223 279 c 0
 292 279 358 251 378 230 c 1
 378 159 l 1
 344 185 310 197 258 197 c 0
 206 197 177 174 177 138 c 0
117 318 m 1
 66 420 l 1
 119 445 193 473 276 473 c 0
 400 473 491 419 491 324 c 2
 491 0 l 1
 345 0 l 1
 345 294 l 2
 345 333 314 358 264 358 c 0
 198 358 139 331 117 318 c 1
EndSplineSet
Substitution2: "alt a" a.alt
EndChar

StartChar: uni0431
Encoding: 1073 1073 433
Width: 608
VWidth: 0
Flags: HW
LayerCount: 2
Fore
SplineSet
311 346 m 1
 323 470 l 1
 471 470 574 369 574 230 c 0
 574 91 470 -10 310 -10 c 0
 150 -10 35 91 35 290 c 1
 202 230 l 1
 202 159 251 115 310 115 c 0
 369 115 418 159 418 230 c 0
 418 301 370 346 311 346 c 1
135 230 m 1
 135 379 208 470 323 470 c 1
 311 346 l 1
 256 346 202 305 202 230 c 1
 135 230 l 1
35 290 m 1
 35 477 75 597 232 662 c 0
 323 699 370 732 380 780 c 1
 526 780 l 1
 516 691 433 614 324 572 c 0
 201 525 168 440 168 340 c 2
 192 231 l 1
 35 290 l 1
EndSplineSet
EndChar

StartChar: uni0432
Encoding: 1074 1074 434
Width: 524
VWidth: 0
Flags: HW
LayerCount: 2
Fore
SplineSet
163 240 m 1
 327 240 l 2
 422 240 495 214 495 125 c 0
 495 56 452 0 347 0 c 2
 163 0 l 1
 163 95 l 1
 296 95 l 2
 337 95 352 117 352 141 c 0
 352 165 337 186 296 186 c 2
 163 186 l 1
 163 240 l 1
163 220 m 1
 163 280 l 1
 286 280 l 2
 315 280 332 298 332 322 c 0
 332 346 315 365 286 365 c 2
 163 365 l 1
 163 460 l 1
 317 460 l 2
 402 460 475 424 475 335 c 0
 475 256 402 220 317 220 c 2
 163 220 l 1
75 460 m 1
 221 460 l 1
 221 0 l 1
 75 0 l 1
 75 460 l 1
EndSplineSet
EndChar

StartChar: uni0433
Encoding: 1075 1075 435
Width: 358
VWidth: 0
Flags: HW
LayerCount: 2
Fore
SplineSet
61 460 m 1
 356 460 l 1
 356 335 l 1
 210 335 l 1
 210 0 l 1
 61 0 l 1
 61 460 l 1
EndSplineSet
EndChar

StartChar: uni0434
Encoding: 1076 1076 436
Width: 705
VWidth: 0
Flags: HW
LayerCount: 2
Fore
SplineSet
350 278 m 1
 240 30 l 1
 94 61 l 1
 350 495 l 1
 606 61 l 1
 460 30 l 1
 350 278 l 1
518 0 m 1
 188 0 l 1
 188 -90 l 1
 40 -90 l 1
 40 119 l 1
 660 119 l 1
 660 -90 l 1
 518 -90 l 1
 518 0 l 1
EndSplineSet
EndChar

StartChar: uni0435
Encoding: 1077 1077 437
Width: 575
VWidth: 0
Flags: HW
LayerCount: 2
Fore
SplineSet
117 198 m 1
 117 282 l 1
 377 282 l 1
 370 337 342 369 288 369 c 0
 227 369 187 328 187 254 c 1
 185 230 l 1
 185 136 232 99 291 99 c 0
 345 99 383 121 405 159 c 1
 541 126 l 1
 495 44 426 -10 294 -10 c 0
 125 -10 32 91 32 230 c 0
 32 247 33 263 36 279 c 0
 55 392 141 470 291 470 c 0
 452 470 539 382 539 237 c 0
 539 229 540 214 538 198 c 1
 117 198 l 1
EndSplineSet
EndChar

StartChar: uni0436
Encoding: 1078 1078 438
Width: 881
VWidth: 0
Flags: HW
LayerCount: 2
Fore
SplineSet
686 460 m 1
 861 460 l 1
 664 266 l 1
 881 0 l 1
 706 0 l 1
 486 270 l 1
 686 460 l 1
512 460 m 1
 512 0 l 1
 369 0 l 1
 369 460 l 1
 512 460 l 1
195 460 m 1
 395 270 l 1
 175 0 l 1
 0 0 l 1
 218 266 l 1
 20 460 l 1
 195 460 l 1
EndSplineSet
EndChar

StartChar: uni0437
Encoding: 1079 1079 439
Width: 536
VWidth: 0
Flags: HW
LayerCount: 2
Fore
SplineSet
272 230 m 1
 272 275 l 1
 314 275 333 294 333 319 c 0
 333 344 312 360 282 360 c 0
 247 360 225 338 224 307 c 1
 86 307 l 1
 86 404 163 470 281 470 c 0
 390 470 472 414 472 338 c 0
 472 270 408 224 272 230 c 1
279 -10 m 0
 147 -10 70 56 60 158 c 1
 204 158 l 1
 214 119 239 98 278 98 c 0
 320 98 350 117 350 150 c 0
 350 184 323 202 272 202 c 1
 272 260 l 1
 412 266 492 216 492 134 c 0
 492 46 401 -10 279 -10 c 0
EndSplineSet
EndChar

StartChar: uni0438
Encoding: 1080 1080 440
Width: 591
VWidth: 0
Flags: HW
LayerCount: 2
Fore
SplineSet
526 330 m 1
 61 -35 l 1
 66 130 l 1
 531 495 l 1
 526 330 l 1
207 460 m 1
 207 106 l 1
 61 -35 l 1
 61 460 l 1
 207 460 l 1
531 495 m 1
 531 0 l 1
 385 0 l 1
 385 354 l 1
 531 495 l 1
EndSplineSet
EndChar

StartChar: uni0439
Encoding: 1081 1081 441
Width: 591
VWidth: 0
Flags: HW
LayerCount: 2
Fore
SplineSet
526 330 m 1
 61 -35 l 1
 66 130 l 1
 531 495 l 1
 526 330 l 1
207 460 m 1
 207 106 l 1
 61 -35 l 1
 61 460 l 1
 207 460 l 1
531 495 m 1
 531 0 l 1
 385 0 l 1
 385 354 l 1
 531 495 l 1
139 695 m 1
 238 695 l 1
 238 660 264 636 303 636 c 0
 342 636 368 660 368 695 c 1
 467 695 l 1
 467 613 408 549 303 549 c 0
 198 549 139 613 139 695 c 1
EndSplineSet
EndChar

StartChar: uni043A
Encoding: 1082 1082 442
Width: 577
VWidth: 0
Flags: HW
LayerCount: 2
Fore
SplineSet
58 460 m 1
 203 460 l 1
 203 0 l 1
 58 0 l 1
 58 460 l 1
371 460 m 1
 551 460 l 1
 354 270 l 1
 571 0 l 1
 393 0 l 1
 174 270 l 1
 371 460 l 1
EndSplineSet
EndChar

StartChar: uni043B
Encoding: 1083 1083 443
Width: 623
VWidth: 0
Flags: HW
LayerCount: 2
Fore
SplineSet
544 460 m 25
 544 0 l 1
 398 0 l 1
 398 322 l 1
 229 322 l 25
 229 160 l 2
 229 51 176 0 10 0 c 1
 10 136 l 1
 50 136 83 144 83 198 c 2
 83 460 l 25
 544 460 l 25
EndSplineSet
EndChar

StartChar: uni043C
Encoding: 1084 1084 444
Width: 657
VWidth: 0
Flags: HW
LayerCount: 2
Fore
SplineSet
500 0 m 1
 437 315 l 1
 513 495 l 1
 652 0 l 1
 500 0 l 1
297 132 m 1
 513 495 l 1
 523 291 l 1
 327 -31 l 1
 297 132 l 1
327 -31 m 1
 134 291 l 1
 144 495 l 1
 357 132 l 1
 327 -31 l 1
5 0 m 1
 144 495 l 1
 220 315 l 1
 158 0 l 1
 5 0 l 1
EndSplineSet
EndChar

StartChar: uni043D
Encoding: 1085 1085 445
Width: 615
VWidth: 0
Flags: HW
LayerCount: 2
Fore
SplineSet
106 186 m 1
 106 299 l 1
 478 299 l 1
 478 186 l 1
 106 186 l 1
410 460 m 1
 556 460 l 1
 556 0 l 1
 410 0 l 1
 410 460 l 1
59 460 m 1
 205 460 l 1
 205 0 l 1
 59 0 l 1
 59 460 l 1
EndSplineSet
EndChar

StartChar: uni043E
Encoding: 1086 1086 446
Width: 589
VWidth: 0
Flags: HW
LayerCount: 2
Fore
SplineSet
32 230 m 0
 32 375 144 471 295 471 c 0
 446 471 558 375 558 230 c 0
 558 85 446 -10 295 -10 c 0
 144 -10 32 85 32 230 c 0
188 230 m 0
 188 159 236 115 295 115 c 0
 354 115 402 159 402 230 c 0
 402 301 354 346 295 346 c 0
 236 346 188 301 188 230 c 0
EndSplineSet
EndChar

StartChar: uni043F
Encoding: 1087 1087 447
Width: 575
VWidth: 0
Flags: HW
LayerCount: 2
Fore
SplineSet
516 460 m 1
 516 0 l 1
 370 0 l 1
 370 329 l 1
 205 329 l 1
 205 0 l 1
 59 0 l 1
 59 460 l 1
 516 460 l 1
EndSplineSet
EndChar

StartChar: uni0440
Encoding: 1088 1088 448
Width: 616
VWidth: 0
Flags: HW
LayerCount: 2
Fore
SplineSet
209 -220 m 1
 58 -220 l 1
 58 460 l 1
 209 460 l 1
 209 -220 l 1
585 230 m 0
 585 68 478 -16 366 -16 c 0
 245 -16 173 81 173 230 c 0
 173 379 245 476 366 476 c 0
 478 476 585 392 585 230 c 0
426 230 m 0
 426 302 376 342 316 342 c 0
 265 342 209 305 209 230 c 0
 209 155 265 118 316 118 c 0
 376 118 426 158 426 230 c 0
EndSplineSet
EndChar

StartChar: uni0441
Encoding: 1089 1089 449
Width: 493
VWidth: 0
Flags: HW
LayerCount: 2
Fore
SplineSet
186 230 m 0
 186 156 241 111 309 111 c 0
 364 111 417 135 444 179 c 1
 444 32 l 1
 412 6 365 -10 296 -10 c 0
 142 -10 30 85 30 230 c 0
 30 375 142 470 296 470 c 0
 365 470 412 453 444 430 c 1
 444 282 l 1
 417 326 358 349 309 349 c 0
 241 349 186 298 186 230 c 0
EndSplineSet
EndChar

StartChar: uni0442
Encoding: 1090 1090 450
Width: 333
VWidth: 0
Flags: HW
LayerCount: 2
Fore
SplineSet
5 460 m 1
 328 460 l 1
 328 335 l 1
 5 335 l 1
 5 460 l 1
94 440 m 1
 239 440 l 1
 239 0 l 1
 94 0 l 1
 94 440 l 1
EndSplineSet
EndChar

StartChar: uni0443
Encoding: 1091 1091 451
Width: 521
VWidth: 0
Flags: HW
LayerCount: 2
Fore
SplineSet
531 460 m 1
 231 -220 l 1
 78 -220 l 1
 190 37 l 1
 -9 460 l 1
 158 460 l 1
 306 91 l 1
 228 92 l 1
 375 460 l 1
 531 460 l 1
EndSplineSet
EndChar

StartChar: uni0444
Encoding: 1092 1092 452
Width: 667
VWidth: 0
Flags: HW
LayerCount: 2
Fore
SplineSet
262 560 m 1
 405 560 l 1
 405 -100 l 1
 262 -100 l 1
 262 560 l 1
32 230 m 0
 32 375 145 471 334 471 c 0
 523 471 635 375 635 230 c 0
 635 85 523 -10 334 -10 c 0
 145 -10 32 85 32 230 c 0
169 230 m 0
 169 159 218 115 334 115 c 0
 450 115 498 159 498 230 c 0
 498 301 450 346 334 346 c 0
 218 346 169 301 169 230 c 0
EndSplineSet
EndChar

StartChar: uni0445
Encoding: 1093 1093 453
Width: 532
VWidth: 0
Flags: HW
LayerCount: 2
Fore
SplineSet
354 460 m 1
 522 460 l 1
 346 236 l 1
 532 0 l 1
 364 0 l 1
 269 133 l 1
 174 0 l 1
 0 0 l 1
 189 236 l 1
 10 460 l 1
 184 460 l 1
 269 339 l 1
 354 460 l 1
EndSplineSet
EndChar

StartChar: uni0446
Encoding: 1094 1094 454
Width: 621
VWidth: 0
Flags: HW
LayerCount: 2
Fore
SplineSet
522 125 m 1
 602 125 l 1
 602 -102 l 1
 460 -102 l 1
 460 0 l 1
 59 0 l 1
 59 460 l 1
 211 460 l 1
 211 125 l 1
 370 125 l 1
 370 460 l 1
 522 460 l 1
 522 125 l 1
EndSplineSet
EndChar

StartChar: uni0447
Encoding: 1095 1095 455
Width: 547
VWidth: 0
Flags: HW
LayerCount: 2
Fore
SplineSet
230 115 m 1
 274 240 l 1
 387 240 l 1
 387 115 l 1
 230 115 l 1
330 460 m 1
 482 460 l 1
 482 0 l 1
 330 0 l 1
 330 460 l 1
202 460 m 1
 202 316 l 2
 202 261 223 240 274 240 c 1
 230 115 l 1
 91 115 50 193 50 328 c 2
 50 460 l 1
 202 460 l 1
EndSplineSet
EndChar

StartChar: uni0448
Encoding: 1096 1096 456
Width: 836
VWidth: 0
Flags: HW
LayerCount: 2
Fore
SplineSet
491 125 m 1
 632 125 l 1
 632 460 l 1
 778 460 l 1
 778 0 l 1
 59 0 l 1
 59 460 l 1
 205 460 l 1
 205 125 l 1
 346 125 l 1
 346 460 l 1
 491 460 l 1
 491 125 l 1
EndSplineSet
EndChar

StartChar: uni0449
Encoding: 1097 1097 457
Width: 876
VWidth: 0
Flags: HW
LayerCount: 2
Fore
SplineSet
491 125 m 1
 631 125 l 1
 631 460 l 1
 777 460 l 1
 777 125 l 1
 857 125 l 1
 857 -102 l 1
 715 -102 l 1
 715 0 l 1
 59 0 l 1
 59 460 l 1
 205 460 l 1
 205 125 l 1
 346 125 l 1
 346 460 l 1
 491 460 l 1
 491 125 l 1
EndSplineSet
EndChar

StartChar: uni044A
Encoding: 1098 1098 458
Width: 612
VWidth: 0
Flags: HW
LayerCount: 2
Fore
SplineSet
254 207 m 1
 254 305 l 1
 398 305 l 2
 493 305 566 261 566 162 c 0
 566 63 493 0 398 0 c 2
 254 0 l 1
 254 117 l 1
 371 117 l 2
 404 117 423 135 423 162 c 0
 423 189 404 207 371 207 c 2
 254 207 l 1
145 335 m 1
 5 335 l 1
 5 460 l 1
 284 460 l 1
 284 0 l 1
 145 0 l 1
 145 335 l 1
EndSplineSet
EndChar

StartChar: uni044B
Encoding: 1099 1099 459
Width: 763
VWidth: 0
Flags: HW
LayerCount: 2
Fore
SplineSet
552 460 m 1
 704 460 l 1
 704 0 l 1
 552 0 l 1
 552 460 l 1
59 460 m 1
 211 460 l 1
 211 0 l 1
 59 0 l 1
 59 460 l 1
178 207 m 1
 178 305 l 1
 321 305 l 2
 416 305 489 261 489 162 c 0
 489 63 416 0 321 0 c 2
 178 0 l 1
 178 117 l 1
 294 117 l 2
 327 117 347 135 347 162 c 0
 347 189 327 207 294 207 c 2
 178 207 l 1
EndSplineSet
EndChar

StartChar: uni044C
Encoding: 1100 1100 460
Width: 545
VWidth: 0
Flags: HW
LayerCount: 2
Fore
SplineSet
66 460 m 1
 218 460 l 1
 218 0 l 1
 66 0 l 1
 66 460 l 1
184 207 m 1
 184 305 l 1
 328 305 l 2
 423 305 496 261 496 162 c 0
 496 63 423 0 328 0 c 2
 184 0 l 1
 184 117 l 1
 301 117 l 2
 334 117 353 135 353 162 c 0
 353 189 334 207 301 207 c 2
 184 207 l 1
EndSplineSet
EndChar

StartChar: uni044D
Encoding: 1101 1101 461
Width: 493
VWidth: 0
Flags: HW
LayerCount: 2
Fore
SplineSet
112 280 m 1
 406 280 l 1
 380 180 l 1
 112 180 l 1
 112 280 l 1
308 230 m 0
 308 317 253 368 185 368 c 0
 136 368 77 344 50 300 c 1
 50 430 l 1
 82 453 129 470 198 470 c 0
 352 470 464 375 464 230 c 0
 464 85 352 -10 198 -10 c 0
 129 -10 82 6 50 32 c 1
 50 160 l 1
 77 116 130 92 185 92 c 0
 253 92 308 137 308 230 c 0
EndSplineSet
EndChar

StartChar: uni044E
Encoding: 1102 1102 462
Width: 821
VWidth: 0
Flags: HW
LayerCount: 2
Fore
SplineSet
106 186 m 1
 106 299 l 1
 376 299 l 1
 376 186 l 1
 106 186 l 1
59 460 m 1
 205 460 l 1
 205 0 l 1
 59 0 l 1
 59 460 l 1
263 230 m 0
 263 375 375 471 526 471 c 0
 677 471 789 375 789 230 c 0
 789 85 677 -10 526 -10 c 0
 375 -10 263 85 263 230 c 0
419 230 m 0
 419 159 467 115 526 115 c 0
 585 115 633 159 633 230 c 0
 633 301 585 346 526 346 c 0
 467 346 419 301 419 230 c 0
EndSplineSet
EndChar

StartChar: uni044F
Encoding: 1103 1103 463
Width: 545
VWidth: 0
Flags: HW
LayerCount: 2
Fore
SplineSet
197 0 m 1
 40 0 l 1
 179 209 l 1
 324 209 l 1
 197 0 l 1
505 0 m 1
 353 0 l 1
 353 460 l 1
 505 460 l 1
 505 0 l 1
405 266 m 1
 405 165 l 1
 262 165 l 2
 167 165 75 211 75 316 c 0
 75 421 167 460 262 460 c 2
 405 460 l 1
 405 340 l 1
 284 340 l 2
 245 340 224 330 224 303 c 0
 224 276 245 266 284 266 c 2
 405 266 l 1
EndSplineSet
EndChar

StartChar: uni0450
Encoding: 1104 1104 464
Width: 575
VWidth: 0
Flags: HW
LayerCount: 2
Fore
SplineSet
117 198 m 1
 117 282 l 1
 377 282 l 1
 370 337 342 369 288 369 c 0
 227 369 187 328 187 254 c 1
 185 230 l 1
 185 136 232 99 291 99 c 0
 345 99 383 121 405 159 c 1
 541 126 l 1
 495 44 426 -10 294 -10 c 0
 125 -10 32 91 32 230 c 0
 32 247 33 263 36 279 c 0
 55 392 141 470 291 470 c 0
 452 470 539 382 539 237 c 0
 539 229 540 214 538 198 c 1
 117 198 l 1
122 681 m 1
 238 733 l 1
 388 573 l 1
 302 531 l 1
 122 681 l 1
EndSplineSet
EndChar

